<?xml version="1.0" encoding="UTF-8"?>
<svg xmlns="http://www.w3.org/2000/svg" xmlns:xlink="http://www.w3.org/1999/xlink" version="1.2" >
<font id="adiNeue2013-Regular">
<font-face  font-family="adiNeue2013" units-per-em="1000" ascent="760" descent="-240" font-style="normal" font-weight="400" font-stretch="normal" cap-height="685" x-height="506" underline-position="0" underline-thickness="0" />
<missing-glyph  horiz-adv-x="410" d="" />
<glyph glyph-name="space" unicode="&#x20;" horiz-adv-x="200" d="" />
<glyph glyph-name="A" unicode="A" horiz-adv-x="584" d="M462 69 Q462 66 439.5 46 Q417 26 376.5 9 Q336 -8 280 -8 Q210 -8 151 26.5 Q92 61 57.5 120.5 Q23 180 23 252 Q23 324 57.5 383.5 Q92 443 151 478 Q210 513 280 513 Q334 513 374.5 496.5 Q415 480 438.5 460.5 Q462 441 462 438 L462 506 L549 506 L549 0 L462 0 L462 69 Z M285 431 Q236 431 195.5 407 Q155 383 132 342 Q109 301 109 252 Q109 203 132 162 Q155 121 195.5 97 Q236 73 285 73 Q335 73 376 96.5 Q417 120 440.5 161 Q464 202 464 252 Q464 301 440.5 342 Q417 383 376 407 Q335 431 285 431 Z " />
<glyph glyph-name="Aacute" unicode="&#xc1;" horiz-adv-x="584" d="M462 69 Q462 66 439.5 46 Q417 26 376.5 9 Q336 -8 280 -8 Q210 -8 151 26.5 Q92 61 57.5 120.5 Q23 180 23 252 Q23 324 57.5 383.5 Q92 443 151 478 Q210 513 280 513 Q334 513 374.5 496.5 Q415 480 438.5 460.5 Q462 441 462 438 L462 506 L549 506 L549 0 L462 0 L462 69 Z M285 431 Q236 431 195.5 407 Q155 383 132 342 Q109 301 109 252 Q109 203 132 162 Q155 121 195.5 97 Q236 73 285 73 Q335 73 376 96.5 Q417 120 440.5 161 Q464 202 464 252 Q464 301 440.5 342 Q417 383 376 407 Q335 431 285 431 Z M188 570 L188 648 L398 709 L398 627 L188 570 Z " />
<glyph glyph-name="Abreve" unicode="&#x102;" horiz-adv-x="584" d="M462 69 Q462 66 439.5 46 Q417 26 376.5 9 Q336 -8 280 -8 Q210 -8 151 26.5 Q92 61 57.5 120.5 Q23 180 23 252 Q23 324 57.5 383.5 Q92 443 151 478 Q210 513 280 513 Q334 513 374.5 496.5 Q415 480 438.5 460.5 Q462 441 462 438 L462 506 L549 506 L549 0 L462 0 L462 69 Z M285 431 Q236 431 195.5 407 Q155 383 132 342 Q109 301 109 252 Q109 203 132 162 Q155 121 195.5 97 Q236 73 285 73 Q335 73 376 96.5 Q417 120 440.5 161 Q464 202 464 252 Q464 301 440.5 342 Q417 383 376 407 Q335 431 285 431 Z M431 622 Q431 620 414 604.5 Q397 589 366 576 Q335 563 292 563 Q249 563 218.5 576 Q188 589 171 604.5 Q154 620 154 622 L154 692 Q154 690 174 676.5 Q194 663 224.5 651 Q255 639 292 639 Q329 639 360 651 Q391 663 411 676.5 Q431 690 431 692 L431 622 Z " />
<glyph glyph-name="Acircumflex" unicode="&#xc2;" horiz-adv-x="584" d="M462 69 Q462 66 439.5 46 Q417 26 376.5 9 Q336 -8 280 -8 Q210 -8 151 26.5 Q92 61 57.5 120.5 Q23 180 23 252 Q23 324 57.5 383.5 Q92 443 151 478 Q210 513 280 513 Q334 513 374.5 496.5 Q415 480 438.5 460.5 Q462 441 462 438 L462 506 L549 506 L549 0 L462 0 L462 69 Z M285 431 Q236 431 195.5 407 Q155 383 132 342 Q109 301 109 252 Q109 203 132 162 Q155 121 195.5 97 Q236 73 285 73 Q335 73 376 96.5 Q417 120 440.5 161 Q464 202 464 252 Q464 301 440.5 342 Q417 383 376 407 Q335 431 285 431 Z M427 558 L292 618 L157 558 L157 633 L292 702 L427 633 L427 558 Z " />
<glyph glyph-name="Adieresis" unicode="&#xc4;" horiz-adv-x="584" d="M462 69 Q462 66 439.5 46 Q417 26 376.5 9 Q336 -8 280 -8 Q210 -8 151 26.5 Q92 61 57.5 120.5 Q23 180 23 252 Q23 324 57.5 383.5 Q92 443 151 478 Q210 513 280 513 Q334 513 374.5 496.5 Q415 480 438.5 460.5 Q462 441 462 438 L462 506 L549 506 L549 0 L462 0 L462 69 Z M285 431 Q236 431 195.5 407 Q155 383 132 342 Q109 301 109 252 Q109 203 132 162 Q155 121 195.5 97 Q236 73 285 73 Q335 73 376 96.5 Q417 120 440.5 161 Q464 202 464 252 Q464 301 440.5 342 Q417 383 376 407 Q335 431 285 431 Z M172 597 L172 686 L259 686 L259 597 L172 597 Z M326 597 L326 686 L413 686 L413 597 L326 597 Z " />
<glyph glyph-name="Agrave" unicode="&#xc0;" horiz-adv-x="584" d="M462 69 Q462 66 439.5 46 Q417 26 376.5 9 Q336 -8 280 -8 Q210 -8 151 26.5 Q92 61 57.5 120.5 Q23 180 23 252 Q23 324 57.5 383.5 Q92 443 151 478 Q210 513 280 513 Q334 513 374.5 496.5 Q415 480 438.5 460.5 Q462 441 462 438 L462 506 L549 506 L549 0 L462 0 L462 69 Z M285 431 Q236 431 195.5 407 Q155 383 132 342 Q109 301 109 252 Q109 203 132 162 Q155 121 195.5 97 Q236 73 285 73 Q335 73 376 96.5 Q417 120 440.5 161 Q464 202 464 252 Q464 301 440.5 342 Q417 383 376 407 Q335 431 285 431 Z M398 570 L188 627 L188 709 L398 648 L398 570 Z " />
<glyph glyph-name="Amacron" unicode="&#x100;" horiz-adv-x="584" d="M462 69 Q462 66 439.5 46 Q417 26 376.5 9 Q336 -8 280 -8 Q210 -8 151 26.5 Q92 61 57.5 120.5 Q23 180 23 252 Q23 324 57.5 383.5 Q92 443 151 478 Q210 513 280 513 Q334 513 374.5 496.5 Q415 480 438.5 460.5 Q462 441 462 438 L462 506 L549 506 L549 0 L462 0 L462 69 Z M285 431 Q236 431 195.5 407 Q155 383 132 342 Q109 301 109 252 Q109 203 132 162 Q155 121 195.5 97 Q236 73 285 73 Q335 73 376 96.5 Q417 120 440.5 161 Q464 202 464 252 Q464 301 440.5 342 Q417 383 376 407 Q335 431 285 431 Z M161 596 L161 674 L423 674 L423 596 L161 596 Z " />
<glyph glyph-name="Aogonek" unicode="&#x104;" horiz-adv-x="584" d="M547 0 Q514 -14 496.5 -36.5 Q479 -59 479 -84 Q479 -103 492 -113.5 Q505 -124 527 -124 Q542 -124 554.5 -121 Q567 -118 574 -115 Q581 -112 583 -111 L583 -160 Q581 -162 572.5 -166.5 Q564 -171 549 -175 Q534 -179 514 -179 Q469 -179 441.5 -156 Q414 -133 414 -96 Q414 -63 434.5 -37.5 Q455 -12 486 0 L462 0 L462 69 Q462 66 439.5 46 Q417 26 376.5 9 Q336 -8 280 -8 Q210 -8 151 26.5 Q92 61 57.5 120.5 Q23 180 23 252 Q23 324 57.5 383.5 Q92 443 151 478 Q210 513 280 513 Q334 513 374.5 496.5 Q415 480 438.5 460.5 Q462 441 462 438 L462 506 L549 506 L549 0 L547 0 Z M284 73 Q335 73 376 96.5 Q417 120 440.5 161 Q464 202 464 252 Q464 301 440.5 342 Q417 383 375.5 407 Q334 431 284 431 Q235 431 194.5 407 Q154 383 131 342 Q108 301 108 252 Q108 203 131 162 Q154 121 194.5 97 Q235 73 284 73 Z " />
<glyph glyph-name="Aring" unicode="&#xc5;" horiz-adv-x="584" d="M462 69 Q462 66 439.5 46 Q417 26 376.5 9 Q336 -8 280 -8 Q210 -8 151 26.5 Q92 61 57.5 120.5 Q23 180 23 252 Q23 324 57.5 383.5 Q92 443 151 478 Q210 513 280 513 Q334 513 374.5 496.5 Q415 480 438.5 460.5 Q462 441 462 438 L462 506 L549 506 L549 0 L462 0 L462 69 Z M285 431 Q236 431 195.5 407 Q155 383 132 342 Q109 301 109 252 Q109 203 132 162 Q155 121 195.5 97 Q236 73 285 73 Q335 73 376 96.5 Q417 120 440.5 161 Q464 202 464 252 Q464 301 440.5 342 Q417 383 376 407 Q335 431 285 431 Z M293 742 Q334 742 362 715 Q390 688 390 648 Q390 608 362 580.5 Q334 553 293 553 Q252 553 224 580.5 Q196 608 196 648 Q196 688 224 715 Q252 742 293 742 Z M293 692 Q274 692 261.5 679.5 Q249 667 249 648 Q249 629 261.5 616 Q274 603 293 603 Q312 603 324.5 616 Q337 629 337 648 Q337 667 324.5 679.5 Q312 692 293 692 Z " />
<glyph glyph-name="Atilde" unicode="&#xc3;" horiz-adv-x="584" d="M462 69 Q462 66 439.5 46 Q417 26 376.5 9 Q336 -8 280 -8 Q210 -8 151 26.5 Q92 61 57.5 120.5 Q23 180 23 252 Q23 324 57.5 383.5 Q92 443 151 478 Q210 513 280 513 Q334 513 374.5 496.5 Q415 480 438.5 460.5 Q462 441 462 438 L462 506 L549 506 L549 0 L462 0 L462 69 Z M285 431 Q236 431 195.5 407 Q155 383 132 342 Q109 301 109 252 Q109 203 132 162 Q155 121 195.5 97 Q236 73 285 73 Q335 73 376 96.5 Q417 120 440.5 161 Q464 202 464 252 Q464 301 440.5 342 Q417 383 376 407 Q335 431 285 431 Z M148 630 Q148 631 159.5 642.5 Q171 654 189.5 663.5 Q208 673 231 673 Q260 673 304 654 Q344 638 365 638 Q383 638 399 645.5 Q415 653 425 660.5 Q435 668 437 671 L437 608 Q437 607 425.5 595.5 Q414 584 395.5 574 Q377 564 354 564 Q326 564 280 583 Q238 600 220 600 Q202 600 186 592.5 Q170 585 160 577.5 Q150 570 148 567 L148 630 Z " />
<glyph glyph-name="AE" unicode="&#xc6;" horiz-adv-x="1005" d="M550 434 Q571 464 617.5 489 Q664 514 728 514 Q804 514 862 480.5 Q920 447 951.5 390 Q983 333 983 264 Q983 249 982 238 Q981 227 980 224 L552 224 Q561 154 608.5 111.5 Q656 69 729 69 Q840 69 897 157 L966 116 Q885 -10 728 -10 Q665 -10 618 15.5 Q571 41 550 71 L550 0 L463 0 L463 73 Q463 70 440 48.5 Q417 27 377 9 Q337 -9 281 -9 Q208 -9 149 25.5 Q90 60 56.5 119.5 Q23 179 23 252 Q23 325 56.5 385 Q90 445 149 479.5 Q208 514 281 514 Q337 514 377 496.5 Q417 479 440 458.5 Q463 438 463 435 L463 506 L550 506 L550 434 Z M891 295 Q885 356 839.5 397 Q794 438 726 438 Q659 438 613 399 Q567 360 554 295 L891 295 Z M285 71 Q336 71 377 94.5 Q418 118 441.5 159.5 Q465 201 465 252 Q465 303 442 344.5 Q419 386 378.5 409.5 Q338 433 287 433 Q236 433 195.5 409.5 Q155 386 132 344.5 Q109 303 109 252 Q109 200 131.5 159 Q154 118 194 94.5 Q234 71 285 71 Z " />
<glyph glyph-name="B" unicode="B" horiz-adv-x="584" d="M123 437 Q123 440 145.5 459.5 Q168 479 208 496 Q248 513 304 513 Q374 513 433 478 Q492 443 527 383.5 Q562 324 562 252 Q562 180 527.5 120.5 Q493 61 433.5 26.5 Q374 -8 304 -8 Q248 -8 207.5 9 Q167 26 145 46 Q123 66 123 69 L123 0 L35 0 L35 685 L123 685 L123 437 Z M300 431 Q250 431 208.5 407 Q167 383 143.5 342 Q120 301 120 252 Q120 202 143.5 161 Q167 120 208 96.5 Q249 73 300 73 Q349 73 389.5 97 Q430 121 453 162 Q476 203 476 252 Q476 301 453 342 Q430 383 389.5 407 Q349 431 300 431 Z " />
<glyph glyph-name="C" unicode="C" horiz-adv-x="535" d="M517 119 Q438 -10 283 -10 Q208 -10 148.5 25 Q89 60 56 120 Q23 180 23 253 Q23 326 56 385.5 Q89 445 148.5 479.5 Q208 514 283 514 Q440 514 517 385 L449 342 Q421 386 382.5 410 Q344 434 285 434 Q234 434 194.5 410.5 Q155 387 133 346 Q111 305 111 253 Q111 201 133 159.5 Q155 118 194.5 94.5 Q234 71 286 71 Q345 71 383 94.5 Q421 118 449 163 L517 119 Z " />
<glyph glyph-name="Cacute" unicode="&#x106;" horiz-adv-x="535" d="M517 119 Q438 -10 283 -10 Q208 -10 148.5 25 Q89 60 56 120 Q23 180 23 253 Q23 326 56 385.5 Q89 445 148.5 479.5 Q208 514 283 514 Q440 514 517 385 L449 342 Q421 386 382.5 410 Q344 434 285 434 Q234 434 194.5 410.5 Q155 387 133 346 Q111 305 111 253 Q111 201 133 159.5 Q155 118 194.5 94.5 Q234 71 286 71 Q345 71 383 94.5 Q421 118 449 163 L517 119 Z M177 570 L177 648 L387 709 L387 627 L177 570 Z " />
<glyph glyph-name="Ccaron" unicode="&#x10c;" horiz-adv-x="535" d="M517 119 Q438 -10 283 -10 Q208 -10 148.5 25 Q89 60 56 120 Q23 180 23 253 Q23 326 56 385.5 Q89 445 148.5 479.5 Q208 514 283 514 Q440 514 517 385 L449 342 Q421 386 382.5 410 Q344 434 285 434 Q234 434 194.5 410.5 Q155 387 133 346 Q111 305 111 253 Q111 201 133 159.5 Q155 118 194.5 94.5 Q234 71 286 71 Q345 71 383 94.5 Q421 118 449 163 L517 119 Z M281 551 L146 620 L146 695 L281 635 L416 695 L416 620 L281 551 Z " />
<glyph glyph-name="Ccedilla" unicode="&#xc7;" horiz-adv-x="535" d="M448 342 Q421 386 382.5 410 Q344 434 285 434 Q233 434 193.5 410.5 Q154 387 132.5 346 Q111 305 111 253 Q111 201 133 159.5 Q155 118 194.5 94.5 Q234 71 285 71 Q345 71 383 94.5 Q421 118 448 163 L517 119 Q444 -1 303 -9 L284 -45 Q323 -45 348 -68 Q373 -91 373 -127 Q373 -163 347 -187.5 Q321 -212 282 -212 Q243 -212 218 -189 Q193 -166 189 -129 L245 -129 Q251 -161 283 -161 Q299 -161 309 -151.5 Q319 -142 319 -127 Q319 -112 308.5 -102.5 Q298 -93 282 -93 L210 -93 L252 -8 Q185 -1 133 35 Q81 71 52 128 Q23 185 23 253 Q23 326 56 385.5 Q89 445 148.5 479.5 Q208 514 283 514 Q440 514 517 385 L448 342 Z " />
<glyph glyph-name="Ccircumflex" unicode="&#x108;" horiz-adv-x="535" d="M517 119 Q438 -10 283 -10 Q208 -10 148.5 25 Q89 60 56 120 Q23 180 23 253 Q23 326 56 385.5 Q89 445 148.5 479.5 Q208 514 283 514 Q440 514 517 385 L449 342 Q421 386 382.5 410 Q344 434 285 434 Q234 434 194.5 410.5 Q155 387 133 346 Q111 305 111 253 Q111 201 133 159.5 Q155 118 194.5 94.5 Q234 71 286 71 Q345 71 383 94.5 Q421 118 449 163 L517 119 Z M416 558 L281 618 L146 558 L146 633 L281 702 L416 633 L416 558 Z " />
<glyph glyph-name="Cdotaccent" unicode="&#x10a;" horiz-adv-x="535" d="M517 119 Q438 -10 283 -10 Q208 -10 148.5 25 Q89 60 56 120 Q23 180 23 253 Q23 326 56 385.5 Q89 445 148.5 479.5 Q208 514 283 514 Q440 514 517 385 L449 342 Q421 386 382.5 410 Q344 434 285 434 Q234 434 194.5 410.5 Q155 387 133 346 Q111 305 111 253 Q111 201 133 159.5 Q155 118 194.5 94.5 Q234 71 286 71 Q345 71 383 94.5 Q421 118 449 163 L517 119 Z M238 597 L238 686 L325 686 L325 597 L238 597 Z " />
<glyph glyph-name="D" unicode="D" horiz-adv-x="584" d="M462 0 L462 69 Q462 66 439 46 Q416 26 375.5 9 Q335 -8 280 -8 Q210 -8 151 26.5 Q92 61 57.5 120.5 Q23 180 23 252 Q23 324 57.5 383.5 Q92 443 151 478 Q210 513 280 513 Q335 513 375.5 496 Q416 479 439 459.5 Q462 440 462 437 L462 685 L549 685 L549 0 L462 0 Z M285 431 Q236 431 195.5 407 Q155 383 132 342 Q109 301 109 252 Q109 203 132 162 Q155 121 195.5 97 Q236 73 285 73 Q335 73 376 96.5 Q417 120 440.5 161 Q464 202 464 252 Q464 301 440.5 342 Q417 383 376 407 Q335 431 285 431 Z " />
<glyph glyph-name="Eth" unicode="&#xd0;" horiz-adv-x="569" d="M509 388 Q547 323 547 251 Q547 180 511.5 120.5 Q476 61 415.5 26 Q355 -9 283 -9 Q210 -9 150.5 25 Q91 59 57 118 Q23 177 23 250 Q23 323 56.5 382.5 Q90 442 149 476 Q208 510 281 510 Q299 510 315.5 507 Q332 504 342 500.5 Q352 497 355 496 L318 559 L226 542 L226 607 L285 617 L247 685 L340 685 L370 633 L475 653 L475 588 L403 575 L509 388 Z M284 70 Q334 70 374.5 93.5 Q415 117 437.5 158 Q460 199 460 250 Q460 301 437.5 342 Q415 383 375 406 Q335 429 285 429 Q235 429 194.5 406 Q154 383 131 342 Q108 301 108 250 Q108 199 130.5 158 Q153 117 193.5 93.5 Q234 70 284 70 Z " />
<glyph glyph-name="Dcaron" unicode="&#x10e;" horiz-adv-x="697" d="M462 0 L462 69 Q462 66 439 46 Q416 26 375.5 9 Q335 -8 280 -8 Q210 -8 151 26.5 Q92 61 57.5 120.5 Q23 180 23 252 Q23 324 57.5 383.5 Q92 443 151 478 Q210 513 280 513 Q335 513 375.5 496 Q416 479 439 459.5 Q462 440 462 437 L462 685 L549 685 L549 0 L462 0 Z M655 514 L598 514 L623 594 L595 594 L595 685 L683 685 L683 609 L655 514 Z M285 431 Q236 431 195.5 407 Q155 383 132 342 Q109 301 109 252 Q109 203 132 162 Q155 121 195.5 97 Q236 73 285 73 Q335 73 376 96.5 Q417 120 440.5 161 Q464 202 464 252 Q464 301 440.5 342 Q417 383 376 407 Q335 431 285 431 Z " />
<glyph glyph-name="Dcroat" unicode="&#x110;" horiz-adv-x="584" d="M549 546 L549 0 L462 0 L462 69 Q462 66 439 46 Q416 26 375.5 9 Q335 -8 280 -8 Q210 -8 151 26.5 Q92 61 57.5 120.5 Q23 180 23 252 Q23 324 57.5 383.5 Q92 443 151 478 Q210 513 280 513 Q335 513 375.5 496 Q416 479 439 459.5 Q462 440 462 437 L462 546 L319 546 L319 622 L462 622 L462 685 L549 685 L549 622 L591 622 L591 546 L549 546 Z M285 73 Q335 73 376 96.5 Q417 120 440.5 161 Q464 202 464 252 Q464 301 440.5 342 Q417 383 376 407 Q335 431 285 431 Q236 431 195.5 407 Q155 383 132 342 Q109 301 109 252 Q109 203 132 162 Q155 121 195.5 97 Q236 73 285 73 Z " />
<glyph glyph-name="E" unicode="E" horiz-adv-x="564" d="M524 116 Q445 -10 285 -10 Q208 -10 148.5 24.5 Q89 59 56 119 Q23 179 23 253 Q23 325 56.5 385 Q90 445 150 479.5 Q210 514 285 514 Q362 514 420 480.5 Q478 447 510 390 Q542 333 542 264 Q542 249 541 238 Q540 227 539 224 L111 224 Q119 155 166.5 112 Q214 69 287 69 Q399 69 456 157 L524 116 Z M451 295 Q445 356 399 397 Q353 438 285 438 Q218 438 171.5 399 Q125 360 113 295 L451 295 Z " />
<glyph glyph-name="Eacute" unicode="&#xc9;" horiz-adv-x="564" d="M524 116 Q445 -10 285 -10 Q208 -10 148.5 24.5 Q89 59 56 119 Q23 179 23 253 Q23 325 56.5 385 Q90 445 150 479.5 Q210 514 285 514 Q362 514 420 480.5 Q478 447 510 390 Q542 333 542 264 Q542 249 541 238 Q540 227 539 224 L111 224 Q119 155 166.5 112 Q214 69 287 69 Q399 69 456 157 L524 116 Z M451 295 Q445 356 399 397 Q353 438 285 438 Q218 438 171.5 399 Q125 360 113 295 L451 295 Z M180 570 L180 648 L390 709 L390 627 L180 570 Z " />
<glyph glyph-name="Ebreve" unicode="&#x114;" horiz-adv-x="564" d="M524 116 Q445 -10 285 -10 Q208 -10 148.5 24.5 Q89 59 56 119 Q23 179 23 253 Q23 325 56.5 385 Q90 445 150 479.5 Q210 514 285 514 Q362 514 420 480.5 Q478 447 510 390 Q542 333 542 264 Q542 249 541 238 Q540 227 539 224 L111 224 Q119 155 166.5 112 Q214 69 287 69 Q399 69 456 157 L524 116 Z M451 295 Q445 356 399 397 Q353 438 285 438 Q218 438 171.5 399 Q125 360 113 295 L451 295 Z M424 622 Q424 620 407 604.5 Q390 589 359 576 Q328 563 285 563 Q242 563 211.5 576 Q181 589 164 604.5 Q147 620 147 622 L147 692 Q147 690 167 676.5 Q187 663 217.5 651 Q248 639 285 639 Q322 639 353 651 Q384 663 404 676.5 Q424 690 424 692 L424 622 Z " />
<glyph glyph-name="Ecaron" unicode="&#x11a;" horiz-adv-x="564" d="M524 116 Q445 -10 285 -10 Q208 -10 148.5 24.5 Q89 59 56 119 Q23 179 23 253 Q23 325 56.5 385 Q90 445 150 479.5 Q210 514 285 514 Q362 514 420 480.5 Q478 447 510 390 Q542 333 542 264 Q542 249 541 238 Q540 227 539 224 L111 224 Q119 155 166.5 112 Q214 69 287 69 Q399 69 456 157 L524 116 Z M451 295 Q445 356 399 397 Q353 438 285 438 Q218 438 171.5 399 Q125 360 113 295 L451 295 Z M285 551 L150 620 L150 695 L285 635 L420 695 L420 620 L285 551 Z " />
<glyph glyph-name="Ecircumflex" unicode="&#xca;" horiz-adv-x="564" d="M524 116 Q445 -10 285 -10 Q208 -10 148.5 24.5 Q89 59 56 119 Q23 179 23 253 Q23 325 56.5 385 Q90 445 150 479.5 Q210 514 285 514 Q362 514 420 480.5 Q478 447 510 390 Q542 333 542 264 Q542 249 541 238 Q540 227 539 224 L111 224 Q119 155 166.5 112 Q214 69 287 69 Q399 69 456 157 L524 116 Z M451 295 Q445 356 399 397 Q353 438 285 438 Q218 438 171.5 399 Q125 360 113 295 L451 295 Z M420 558 L285 618 L150 558 L150 633 L285 702 L420 633 L420 558 Z " />
<glyph glyph-name="Edieresis" unicode="&#xcb;" horiz-adv-x="564" d="M524 116 Q445 -10 285 -10 Q208 -10 148.5 24.5 Q89 59 56 119 Q23 179 23 253 Q23 325 56.5 385 Q90 445 150 479.5 Q210 514 285 514 Q362 514 420 480.5 Q478 447 510 390 Q542 333 542 264 Q542 249 541 238 Q540 227 539 224 L111 224 Q119 155 166.5 112 Q214 69 287 69 Q399 69 456 157 L524 116 Z M451 295 Q445 356 399 397 Q353 438 285 438 Q218 438 171.5 399 Q125 360 113 295 L451 295 Z M165 597 L165 686 L252 686 L252 597 L165 597 Z M319 597 L319 686 L406 686 L406 597 L319 597 Z " />
<glyph glyph-name="Edotaccent" unicode="&#x116;" horiz-adv-x="564" d="M524 116 Q445 -10 285 -10 Q208 -10 148.5 24.5 Q89 59 56 119 Q23 179 23 253 Q23 325 56.5 385 Q90 445 150 479.5 Q210 514 285 514 Q362 514 420 480.5 Q478 447 510 390 Q542 333 542 264 Q542 249 541 238 Q540 227 539 224 L111 224 Q119 155 166.5 112 Q214 69 287 69 Q399 69 456 157 L524 116 Z M451 295 Q445 356 399 397 Q353 438 285 438 Q218 438 171.5 399 Q125 360 113 295 L451 295 Z M242 597 L242 686 L329 686 L329 597 L242 597 Z " />
<glyph glyph-name="Egrave" unicode="&#xc8;" horiz-adv-x="564" d="M524 116 Q445 -10 285 -10 Q208 -10 148.5 24.5 Q89 59 56 119 Q23 179 23 253 Q23 325 56.5 385 Q90 445 150 479.5 Q210 514 285 514 Q362 514 420 480.5 Q478 447 510 390 Q542 333 542 264 Q542 249 541 238 Q540 227 539 224 L111 224 Q119 155 166.5 112 Q214 69 287 69 Q399 69 456 157 L524 116 Z M451 295 Q445 356 399 397 Q353 438 285 438 Q218 438 171.5 399 Q125 360 113 295 L451 295 Z M390 570 L180 627 L180 709 L390 648 L390 570 Z " />
<glyph glyph-name="Emacron" unicode="&#x112;" horiz-adv-x="564" d="M524 116 Q445 -10 285 -10 Q208 -10 148.5 24.5 Q89 59 56 119 Q23 179 23 253 Q23 325 56.5 385 Q90 445 150 479.5 Q210 514 285 514 Q362 514 420 480.5 Q478 447 510 390 Q542 333 542 264 Q542 249 541 238 Q540 227 539 224 L111 224 Q119 155 166.5 112 Q214 69 287 69 Q399 69 456 157 L524 116 Z M451 295 Q445 356 399 397 Q353 438 285 438 Q218 438 171.5 399 Q125 360 113 295 L451 295 Z M154 596 L154 674 L416 674 L416 596 L154 596 Z " />
<glyph glyph-name="Eogonek" unicode="&#x118;" horiz-adv-x="564" d="M476 -129 Q474 -131 465.5 -135.5 Q457 -140 442 -144 Q427 -148 407 -148 Q362 -148 334.5 -125 Q307 -102 307 -65 Q307 -34 326 -7 Q313 -9 285 -9 Q208 -9 148.5 25.5 Q89 60 56 119.5 Q23 179 23 253 Q23 325 56.5 385 Q90 445 150 479.5 Q210 514 285 514 Q362 514 420 480.5 Q478 447 510 390 Q542 333 542 264 Q542 249 541 238 Q540 227 539 224 L111 224 Q119 155 166.5 112 Q214 69 287 69 Q399 69 456 157 L524 116 Q481 47 411 15 Q372 -12 372 -53 Q372 -93 420 -93 Q435 -93 447.5 -90 Q460 -87 467 -84 Q474 -81 476 -80 L476 -129 Z M451 295 Q445 356 399 397 Q353 438 285 438 Q218 438 171.5 399 Q125 360 113 295 L451 295 Z " />
<glyph glyph-name="F" unicode="F" horiz-adv-x="329" d="M268 609 Q184 609 184 526 L184 506 L309 506 L309 428 L184 428 L184 0 L97 0 L97 428 L20 428 L20 506 L97 506 L97 526 Q97 607 143 646 Q189 685 268 685 L308 685 L308 609 L268 609 Z " />
<glyph glyph-name="G" unicode="G" horiz-adv-x="578" d="M456 81 Q456 78 434 58 Q412 38 372.5 21 Q333 4 277 4 Q208 4 149.5 37.5 Q91 71 57 129.5 Q23 188 23 259 Q23 329 57 387.5 Q91 446 149.5 480 Q208 514 277 514 Q332 514 371.5 497.5 Q411 481 433.5 461.5 Q456 442 456 439 L456 506 L543 506 L543 43 Q543 -21 512.5 -73 Q482 -125 424 -155.5 Q366 -186 287 -186 Q126 -186 46 -61 L113 -19 Q170 -109 286 -109 Q367 -109 411.5 -72 Q456 -35 456 37 L456 81 Z M282 433 Q234 433 194 409.5 Q154 386 131 346 Q108 306 108 258 Q108 210 131 170 Q154 130 194 106.5 Q234 83 282 83 Q332 83 372.5 106 Q413 129 436 169 Q459 209 459 258 Q459 307 435.5 347 Q412 387 371.5 410 Q331 433 282 433 Z " />
<glyph glyph-name="Gbreve" unicode="&#x11e;" horiz-adv-x="578" d="M456 81 Q456 78 434 58 Q412 38 372.5 21 Q333 4 277 4 Q208 4 149.5 37.5 Q91 71 57 129.5 Q23 188 23 259 Q23 329 57 387.5 Q91 446 149.5 480 Q208 514 277 514 Q332 514 371.5 497.5 Q411 481 433.5 461.5 Q456 442 456 439 L456 506 L543 506 L543 43 Q543 -21 512.5 -73 Q482 -125 424 -155.5 Q366 -186 287 -186 Q126 -186 46 -61 L113 -19 Q170 -109 286 -109 Q367 -109 411.5 -72 Q456 -35 456 37 L456 81 Z M282 433 Q234 433 194 409.5 Q154 386 131 346 Q108 306 108 258 Q108 210 131 170 Q154 130 194 106.5 Q234 83 282 83 Q332 83 372.5 106 Q413 129 436 169 Q459 209 459 258 Q459 307 435.5 347 Q412 387 371.5 410 Q331 433 282 433 Z M434 622 Q434 620 417 604.5 Q400 589 369 576 Q338 563 295 563 Q252 563 221.5 576 Q191 589 174 604.5 Q157 620 157 622 L157 692 Q157 690 177 676.5 Q197 663 227.5 651 Q258 639 295 639 Q332 639 363 651 Q394 663 414 676.5 Q434 690 434 692 L434 622 Z " />
<glyph glyph-name="Gcircumflex" unicode="&#x11c;" horiz-adv-x="578" d="M456 81 Q456 78 434 58 Q412 38 372.5 21 Q333 4 277 4 Q208 4 149.5 37.5 Q91 71 57 129.5 Q23 188 23 259 Q23 329 57 387.5 Q91 446 149.5 480 Q208 514 277 514 Q332 514 371.5 497.5 Q411 481 433.5 461.5 Q456 442 456 439 L456 506 L543 506 L543 43 Q543 -21 512.5 -73 Q482 -125 424 -155.5 Q366 -186 287 -186 Q126 -186 46 -61 L113 -19 Q170 -109 286 -109 Q367 -109 411.5 -72 Q456 -35 456 37 L456 81 Z M282 433 Q234 433 194 409.5 Q154 386 131 346 Q108 306 108 258 Q108 210 131 170 Q154 130 194 106.5 Q234 83 282 83 Q332 83 372.5 106 Q413 129 436 169 Q459 209 459 258 Q459 307 435.5 347 Q412 387 371.5 410 Q331 433 282 433 Z M430 558 L295 618 L160 558 L160 633 L295 702 L430 633 L430 558 Z " />
<glyph glyph-name="Gcommaaccent" unicode="&#x122;" horiz-adv-x="578" d="M332 663 L332 584 L249 584 L249 650 L276 734 L329 734 L306 663 L332 663 Z M456 81 Q456 78 434 58 Q412 38 372.5 21 Q333 4 277 4 Q208 4 149.5 37.5 Q91 71 57 129.5 Q23 188 23 259 Q23 329 57 387.5 Q91 446 149.5 480 Q208 514 277 514 Q332 514 371.5 497.5 Q411 481 433.5 461.5 Q456 442 456 439 L456 506 L543 506 L543 43 Q543 -21 512.5 -73 Q482 -125 424 -155.5 Q366 -186 287 -186 Q126 -186 46 -61 L113 -19 Q170 -109 286 -109 Q367 -109 411.5 -72 Q456 -35 456 37 L456 81 Z M282 433 Q234 433 194 409.5 Q154 386 131 346 Q108 306 108 258 Q108 210 131 170 Q154 130 194 106.5 Q234 83 282 83 Q332 83 372.5 106 Q413 129 436 169 Q459 209 459 258 Q459 307 435.5 347 Q412 387 371.5 410 Q331 433 282 433 Z " />
<glyph glyph-name="Gdotaccent" unicode="&#x120;" horiz-adv-x="578" d="M456 81 Q456 78 434 58 Q412 38 372.5 21 Q333 4 277 4 Q208 4 149.5 37.5 Q91 71 57 129.5 Q23 188 23 259 Q23 329 57 387.5 Q91 446 149.5 480 Q208 514 277 514 Q332 514 371.5 497.5 Q411 481 433.5 461.5 Q456 442 456 439 L456 506 L543 506 L543 43 Q543 -21 512.5 -73 Q482 -125 424 -155.5 Q366 -186 287 -186 Q126 -186 46 -61 L113 -19 Q170 -109 286 -109 Q367 -109 411.5 -72 Q456 -35 456 37 L456 81 Z M282 433 Q234 433 194 409.5 Q154 386 131 346 Q108 306 108 258 Q108 210 131 170 Q154 130 194 106.5 Q234 83 282 83 Q332 83 372.5 106 Q413 129 436 169 Q459 209 459 258 Q459 307 435.5 347 Q412 387 371.5 410 Q331 433 282 433 Z M252 597 L252 686 L339 686 L339 597 L252 597 Z " />
<glyph glyph-name="H" unicode="H" horiz-adv-x="512" d="M122 442 Q122 445 141 463.5 Q160 482 195 498 Q230 514 281 514 Q370 514 423.5 458.5 Q477 403 477 310 L477 0 L390 0 L390 298 Q390 360 356.5 396.5 Q323 433 265 433 Q200 433 161 393 Q122 353 122 285 L122 0 L35 0 L35 685 L122 685 L122 442 Z " />
<glyph glyph-name="Hbar" unicode="&#x126;" horiz-adv-x="512" d="M122 442 Q122 445 141 463.5 Q160 482 195 498 Q230 514 281 514 Q370 514 423.5 458.5 Q477 403 477 310 L477 0 L390 0 L390 298 Q390 360 356.5 396.5 Q323 433 265 433 Q200 433 161 393 Q122 353 122 285 L122 0 L35 0 L35 546 L0 546 L0 622 L35 622 L35 685 L122 685 L122 622 L272 622 L272 546 L122 546 L122 442 Z " />
<glyph glyph-name="Hcircumflex" unicode="&#x124;" horiz-adv-x="512" d="M457 557 L322 618 L187 557 L187 632 L322 701 L457 632 L457 557 Z M122 442 Q122 445 141 463.5 Q160 482 195 498 Q230 514 281 514 Q370 514 423.5 458.5 Q477 403 477 310 L477 0 L390 0 L390 298 Q390 360 356.5 396.5 Q323 433 265 433 Q200 433 161 393 Q122 353 122 285 L122 0 L35 0 L35 685 L122 685 L122 442 Z " />
<glyph glyph-name="I" unicode="I" horiz-adv-x="158" d="M35 597 L35 685 L123 685 L123 597 L35 597 Z M35 0 L35 506 L123 506 L123 0 L35 0 Z " />
<glyph glyph-name="IJ" unicode="&#x132;" horiz-adv-x="315" d="M35 597 L35 685 L123 685 L123 597 L35 597 Z M193 597 L193 685 L280 685 L280 597 L193 597 Z M35 0 L35 506 L123 506 L123 0 L35 0 Z M280 6 Q280 -87 231.5 -130 Q183 -173 103 -173 L103 -94 Q193 -94 193 7 L193 506 L280 506 L280 6 Z " />
<glyph glyph-name="Iacute" unicode="&#xcd;" horiz-adv-x="158" d="M35 0 L35 506 L123 506 L123 0 L35 0 Z M-26 570 L-26 648 L184 709 L184 627 L-26 570 Z " />
<glyph glyph-name="Ibreve" unicode="&#x12c;" horiz-adv-x="158" d="M35 0 L35 506 L123 506 L123 0 L35 0 Z M218 622 Q218 620 201 604.5 Q184 589 153 576 Q122 563 79 563 Q36 563 5.5 576 Q-25 589 -42 604.5 Q-59 620 -59 622 L-59 692 Q-59 690 -39 676.5 Q-19 663 11.5 651 Q42 639 79 639 Q116 639 147 651 Q178 663 198 676.5 Q218 690 218 692 L218 622 Z " />
<glyph glyph-name="Icircumflex" unicode="&#xce;" horiz-adv-x="158" d="M35 0 L35 506 L123 506 L123 0 L35 0 Z M214 558 L79 618 L-56 558 L-56 633 L79 702 L214 633 L214 558 Z " />
<glyph glyph-name="Idieresis" unicode="&#xcf;" horiz-adv-x="158" d="M35 0 L35 506 L123 506 L123 0 L35 0 Z M-41 597 L-41 686 L46 686 L46 597 L-41 597 Z M113 597 L113 686 L200 686 L200 597 L113 597 Z " />
<glyph glyph-name="Idot" unicode="&#x130;" horiz-adv-x="158" d="M35 0 L35 506 L123 506 L123 0 L35 0 Z M36 597 L36 686 L123 686 L123 597 L36 597 Z " />
<glyph glyph-name="Igrave" unicode="&#xcc;" horiz-adv-x="158" d="M35 0 L35 506 L123 506 L123 0 L35 0 Z M184 570 L-26 627 L-26 709 L184 648 L184 570 Z " />
<glyph glyph-name="Imacron" unicode="&#x12a;" horiz-adv-x="158" d="M35 0 L35 506 L123 506 L123 0 L35 0 Z M-52 596 L-52 674 L210 674 L210 596 L-52 596 Z " />
<glyph glyph-name="Iogonek" unicode="&#x12e;" horiz-adv-x="158" d="M35 597 L35 685 L123 685 L123 597 L35 597 Z M122 0 Q89 -14 71.5 -36.5 Q54 -59 54 -84 Q54 -103 67 -113.5 Q80 -124 102 -124 Q117 -124 129.5 -121 Q142 -118 149 -115 Q156 -112 158 -111 L158 -160 Q156 -162 147.5 -166.5 Q139 -171 124 -175 Q109 -179 89 -179 Q44 -179 16.5 -156 Q-11 -133 -11 -96 Q-11 -63 9.5 -37.5 Q30 -12 61 0 L35 0 L35 506 L123 506 L122 0 Z " />
<glyph glyph-name="Itilde" unicode="&#x128;" horiz-adv-x="158" d="M35 0 L35 506 L123 506 L123 0 L35 0 Z M-66 630 Q-66 631 -54.5 642.5 Q-43 654 -24.5 663.5 Q-6 673 17 673 Q46 673 90 654 Q130 638 151 638 Q169 638 185 645.5 Q201 653 211 660.5 Q221 668 223 671 L223 608 Q223 607 211.5 595.5 Q200 584 181.5 574 Q163 564 140 564 Q112 564 66 583 Q24 600 6 600 Q-12 600 -28 592.5 Q-44 585 -54 577.5 Q-64 570 -66 567 L-66 630 Z " />
<glyph glyph-name="J" unicode="J" horiz-adv-x="158" d="M35 597 L35 685 L123 685 L123 597 L35 597 Z M123 6 Q123 -87 74 -130 Q25 -173 -55 -173 L-55 -94 Q35 -94 35 7 L35 506 L123 506 L123 6 Z " />
<glyph glyph-name="Jcircumflex" unicode="&#x134;" horiz-adv-x="158" d="M123 6 Q123 -87 74 -130 Q25 -173 -55 -173 L-55 -94 Q35 -94 35 7 L35 506 L123 506 L123 6 Z M214 558 L79 618 L-56 558 L-56 633 L79 702 L214 633 L214 558 Z " />
<glyph glyph-name="K" unicode="K" horiz-adv-x="467" d="M337 506 L446 506 L273 310 L450 0 L347 0 L208 241 L123 149 L123 0 L35 0 L35 685 L123 685 L123 260 L337 506 Z " />
<glyph glyph-name="Kcommaaccent" unicode="&#x136;" horiz-adv-x="467" d="M337 506 L446 506 L273 310 L450 0 L347 0 L208 241 L123 149 L123 0 L35 0 L35 685 L123 685 L123 260 L337 506 Z M240 -202 L186 -202 L209 -131 L183 -131 L183 -52 L267 -52 L267 -118 L240 -202 Z " />
<glyph glyph-name="L" unicode="L" horiz-adv-x="158" d="M35 0 L35 685 L123 685 L123 0 L35 0 Z " />
<glyph glyph-name="Lacute" unicode="&#x139;" horiz-adv-x="158" d="M35 0 L35 685 L123 685 L123 0 L35 0 Z M-26 734 L-26 812 L184 873 L184 791 L-26 734 Z " />
<glyph glyph-name="Lcaron" unicode="&#x13d;" horiz-adv-x="273" d="M35 0 L35 685 L123 685 L123 0 L35 0 Z M230 514 L173 514 L198 594 L170 594 L170 685 L258 685 L258 609 L230 514 Z " />
<glyph glyph-name="Lcommaaccent" unicode="&#x13b;" horiz-adv-x="158" d="M35 0 L35 685 L123 685 L123 0 L35 0 Z M94 -202 L40 -202 L63 -131 L37 -131 L37 -52 L121 -52 L121 -118 L94 -202 Z " />
<glyph glyph-name="Ldot" unicode="&#x13f;" horiz-adv-x="287" d="M35 0 L35 685 L123 685 L123 0 L35 0 Z M175 212 L175 306 L262 306 L262 212 L175 212 Z " />
<glyph glyph-name="Lslash" unicode="&#x141;" horiz-adv-x="158" d="M123 382 L123 0 L35 0 L35 333 L2 315 L2 395 L35 414 L35 685 L123 685 L123 462 L155 480 L155 400 L123 382 Z " />
<glyph glyph-name="M" unicode="M" horiz-adv-x="826" d="M122 443 Q122 446 139.5 464 Q157 482 190.5 498 Q224 514 272 514 Q325 514 365 491.5 Q405 469 428 428 Q447 458 489 486 Q531 514 600 514 Q688 514 739.5 460 Q791 406 790 316 L790 0 L704 0 L704 305 Q704 364 673 398.5 Q642 433 589 433 Q529 433 492.5 396 Q456 359 456 296 L456 0 L370 0 L370 305 Q370 364 339 398.5 Q308 433 255 433 Q194 433 158 395 Q122 357 122 292 L122 0 L35 0 L35 506 L122 506 L122 443 Z " />
<glyph glyph-name="N" unicode="N" horiz-adv-x="512" d="M122 442 Q122 445 141 463.5 Q160 482 195 498 Q230 514 281 514 Q370 514 423.5 458.5 Q477 403 477 310 L477 0 L390 0 L390 298 Q390 360 356.5 396.5 Q323 433 265 433 Q200 433 161 393 Q122 353 122 285 L122 0 L35 0 L35 506 L122 506 L122 442 Z " />
<glyph glyph-name="Nacute" unicode="&#x143;" horiz-adv-x="512" d="M122 442 Q122 445 141 463.5 Q160 482 195 498 Q230 514 281 514 Q370 514 423.5 458.5 Q477 403 477 310 L477 0 L390 0 L390 298 Q390 360 356.5 396.5 Q323 433 265 433 Q200 433 161 393 Q122 353 122 285 L122 0 L35 0 L35 506 L122 506 L122 442 Z M159 570 L159 648 L369 709 L369 627 L159 570 Z " />
<glyph glyph-name="Ncaron" unicode="&#x147;" horiz-adv-x="512" d="M122 442 Q122 445 141 463.5 Q160 482 195 498 Q230 514 281 514 Q370 514 423.5 458.5 Q477 403 477 310 L477 0 L390 0 L390 298 Q390 360 356.5 396.5 Q323 433 265 433 Q200 433 161 393 Q122 353 122 285 L122 0 L35 0 L35 506 L122 506 L122 442 Z M263 551 L128 620 L128 695 L263 635 L398 695 L398 620 L263 551 Z " />
<glyph glyph-name="Ncommaaccent" unicode="&#x145;" horiz-adv-x="512" d="M122 442 Q122 445 141 463.5 Q160 482 195 498 Q230 514 281 514 Q370 514 423.5 458.5 Q477 403 477 310 L477 0 L390 0 L390 298 Q390 360 356.5 396.5 Q323 433 265 433 Q200 433 161 393 Q122 353 122 285 L122 0 L35 0 L35 506 L122 506 L122 442 Z M271 -202 L217 -202 L240 -131 L214 -131 L214 -52 L298 -52 L298 -118 L271 -202 Z " />
<glyph glyph-name="Eng" unicode="&#x14a;" horiz-adv-x="512" d="M122 442 Q122 445 141 463.5 Q160 482 195 498 Q230 514 281 514 Q370 514 423.5 458.5 Q477 403 477 310 L477 6 Q477 -87 428.5 -130 Q380 -173 300 -173 L300 -94 Q390 -94 390 7 L390 298 Q390 360 356.5 396.5 Q323 433 265 433 Q200 433 161 393 Q122 353 122 285 L122 0 L35 0 L35 506 L122 506 L122 442 Z " />
<glyph glyph-name="Ntilde" unicode="&#xd1;" horiz-adv-x="512" d="M122 442 Q122 445 141 463.5 Q160 482 195 498 Q230 514 281 514 Q370 514 423.5 458.5 Q477 403 477 310 L477 0 L390 0 L390 298 Q390 360 356.5 396.5 Q323 433 265 433 Q200 433 161 393 Q122 353 122 285 L122 0 L35 0 L35 506 L122 506 L122 442 Z M119 630 Q119 631 130.5 642.5 Q142 654 160.5 663.5 Q179 673 202 673 Q231 673 275 654 Q315 638 336 638 Q354 638 370 645.5 Q386 653 396 660.5 Q406 668 408 671 L408 608 Q408 607 396.5 595.5 Q385 584 366.5 574 Q348 564 325 564 Q297 564 251 583 Q209 600 191 600 Q173 600 157 592.5 Q141 585 131 577.5 Q121 570 119 567 L119 630 Z " />
<glyph glyph-name="O" unicode="O" horiz-adv-x="575" d="M288 514 Q362 514 422.5 479.5 Q483 445 517.5 385 Q552 325 552 253 Q552 180 517.5 120 Q483 60 422.5 25 Q362 -10 288 -10 Q213 -10 152.5 25 Q92 60 57.5 120 Q23 180 23 253 Q23 325 57.5 385 Q92 445 152.5 479.5 Q213 514 288 514 Z M288 434 Q238 434 197 410 Q156 386 133 344.5 Q110 303 110 252 Q110 201 132.5 159.5 Q155 118 195.5 94.5 Q236 71 286 71 Q336 71 377 94.5 Q418 118 441.5 159.5 Q465 201 465 252 Q465 303 442 344.5 Q419 386 378.5 410 Q338 434 288 434 Z " />
<glyph glyph-name="Oacute" unicode="&#xd3;" horiz-adv-x="575" d="M288 514 Q362 514 422.5 479.5 Q483 445 517.5 385 Q552 325 552 253 Q552 180 517.5 120 Q483 60 422.5 25 Q362 -10 288 -10 Q213 -10 152.5 25 Q92 60 57.5 120 Q23 180 23 253 Q23 325 57.5 385 Q92 445 152.5 479.5 Q213 514 288 514 Z M288 434 Q238 434 197 410 Q156 386 133 344.5 Q110 303 110 252 Q110 201 132.5 159.5 Q155 118 195.5 94.5 Q236 71 286 71 Q336 71 377 94.5 Q418 118 441.5 159.5 Q465 201 465 252 Q465 303 442 344.5 Q419 386 378.5 410 Q338 434 288 434 Z M183 570 L183 648 L393 709 L393 627 L183 570 Z " />
<glyph glyph-name="Obreve" unicode="&#x14e;" horiz-adv-x="575" d="M288 514 Q362 514 422.5 479.5 Q483 445 517.5 385 Q552 325 552 253 Q552 180 517.5 120 Q483 60 422.5 25 Q362 -10 288 -10 Q213 -10 152.5 25 Q92 60 57.5 120 Q23 180 23 253 Q23 325 57.5 385 Q92 445 152.5 479.5 Q213 514 288 514 Z M288 434 Q238 434 197 410 Q156 386 133 344.5 Q110 303 110 252 Q110 201 132.5 159.5 Q155 118 195.5 94.5 Q236 71 286 71 Q336 71 377 94.5 Q418 118 441.5 159.5 Q465 201 465 252 Q465 303 442 344.5 Q419 386 378.5 410 Q338 434 288 434 Z M427 622 Q427 620 410 604.5 Q393 589 362 576 Q331 563 288 563 Q245 563 214.5 576 Q184 589 167 604.5 Q150 620 150 622 L150 692 Q150 690 170 676.5 Q190 663 220.5 651 Q251 639 288 639 Q325 639 356 651 Q387 663 407 676.5 Q427 690 427 692 L427 622 Z " />
<glyph glyph-name="Ocircumflex" unicode="&#xd4;" horiz-adv-x="575" d="M288 514 Q362 514 422.5 479.5 Q483 445 517.5 385 Q552 325 552 253 Q552 180 517.5 120 Q483 60 422.5 25 Q362 -10 288 -10 Q213 -10 152.5 25 Q92 60 57.5 120 Q23 180 23 253 Q23 325 57.5 385 Q92 445 152.5 479.5 Q213 514 288 514 Z M288 434 Q238 434 197 410 Q156 386 133 344.5 Q110 303 110 252 Q110 201 132.5 159.5 Q155 118 195.5 94.5 Q236 71 286 71 Q336 71 377 94.5 Q418 118 441.5 159.5 Q465 201 465 252 Q465 303 442 344.5 Q419 386 378.5 410 Q338 434 288 434 Z M423 558 L288 618 L153 558 L153 633 L288 702 L423 633 L423 558 Z " />
<glyph glyph-name="Odieresis" unicode="&#xd6;" horiz-adv-x="575" d="M288 514 Q362 514 422.5 479.5 Q483 445 517.5 385 Q552 325 552 253 Q552 180 517.5 120 Q483 60 422.5 25 Q362 -10 288 -10 Q213 -10 152.5 25 Q92 60 57.5 120 Q23 180 23 253 Q23 325 57.5 385 Q92 445 152.5 479.5 Q213 514 288 514 Z M288 434 Q238 434 197 410 Q156 386 133 344.5 Q110 303 110 252 Q110 201 132.5 159.5 Q155 118 195.5 94.5 Q236 71 286 71 Q336 71 377 94.5 Q418 118 441.5 159.5 Q465 201 465 252 Q465 303 442 344.5 Q419 386 378.5 410 Q338 434 288 434 Z M168 597 L168 686 L255 686 L255 597 L168 597 Z M322 597 L322 686 L409 686 L409 597 L322 597 Z " />
<glyph glyph-name="Ograve" unicode="&#xd2;" horiz-adv-x="575" d="M288 514 Q362 514 422.5 479.5 Q483 445 517.5 385 Q552 325 552 253 Q552 180 517.5 120 Q483 60 422.5 25 Q362 -10 288 -10 Q213 -10 152.5 25 Q92 60 57.5 120 Q23 180 23 253 Q23 325 57.5 385 Q92 445 152.5 479.5 Q213 514 288 514 Z M288 434 Q238 434 197 410 Q156 386 133 344.5 Q110 303 110 252 Q110 201 132.5 159.5 Q155 118 195.5 94.5 Q236 71 286 71 Q336 71 377 94.5 Q418 118 441.5 159.5 Q465 201 465 252 Q465 303 442 344.5 Q419 386 378.5 410 Q338 434 288 434 Z M393 570 L183 627 L183 709 L393 648 L393 570 Z " />
<glyph glyph-name="Ohungarumlaut" unicode="&#x150;" horiz-adv-x="575" d="M288 514 Q362 514 422.5 479.5 Q483 445 517.5 385 Q552 325 552 253 Q552 180 517.5 120 Q483 60 422.5 25 Q362 -10 288 -10 Q213 -10 152.5 25 Q92 60 57.5 120 Q23 180 23 253 Q23 325 57.5 385 Q92 445 152.5 479.5 Q213 514 288 514 Z M288 434 Q238 434 197 410 Q156 386 133 344.5 Q110 303 110 252 Q110 201 132.5 159.5 Q155 118 195.5 94.5 Q236 71 286 71 Q336 71 377 94.5 Q418 118 441.5 159.5 Q465 201 465 252 Q465 303 442 344.5 Q419 386 378.5 410 Q338 434 288 434 Z M189 559 L237 706 L323 706 L271 559 L189 559 Z M320 559 L373 706 L458 706 L401 559 L320 559 Z " />
<glyph glyph-name="Omacron" unicode="&#x14c;" horiz-adv-x="575" d="M288 514 Q362 514 422.5 479.5 Q483 445 517.5 385 Q552 325 552 253 Q552 180 517.5 120 Q483 60 422.5 25 Q362 -10 288 -10 Q213 -10 152.5 25 Q92 60 57.5 120 Q23 180 23 253 Q23 325 57.5 385 Q92 445 152.5 479.5 Q213 514 288 514 Z M288 434 Q238 434 197 410 Q156 386 133 344.5 Q110 303 110 252 Q110 201 132.5 159.5 Q155 118 195.5 94.5 Q236 71 286 71 Q336 71 377 94.5 Q418 118 441.5 159.5 Q465 201 465 252 Q465 303 442 344.5 Q419 386 378.5 410 Q338 434 288 434 Z M157 596 L157 674 L419 674 L419 596 L157 596 Z " />
<glyph glyph-name="Oslash" unicode="&#xd8;" horiz-adv-x="575" d="M465 448 Q506 412 529 361.5 Q552 311 552 253 Q552 180 517.5 120 Q483 60 422.5 25.5 Q362 -9 288 -9 Q229 -9 179 12 L145 -40 L66 -40 L122 45 Q75 81 49 135 Q23 189 23 253 Q23 325 57.5 385 Q92 445 152.5 479.5 Q213 514 288 514 Q354 514 410 486 L450 546 L530 546 L465 448 Z M365 417 Q329 434 288 434 Q238 434 197 410 Q156 386 133 344.5 Q110 303 110 252 Q110 167 167 115 L365 417 Z M224 81 Q251 71 285 71 Q335 71 376.5 94.5 Q418 118 441.5 159.5 Q465 201 465 252 Q465 326 419 377 L224 81 Z " />
<glyph glyph-name="Otilde" unicode="&#xd5;" horiz-adv-x="575" d="M288 514 Q362 514 422.5 479.5 Q483 445 517.5 385 Q552 325 552 253 Q552 180 517.5 120 Q483 60 422.5 25 Q362 -10 288 -10 Q213 -10 152.5 25 Q92 60 57.5 120 Q23 180 23 253 Q23 325 57.5 385 Q92 445 152.5 479.5 Q213 514 288 514 Z M288 434 Q238 434 197 410 Q156 386 133 344.5 Q110 303 110 252 Q110 201 132.5 159.5 Q155 118 195.5 94.5 Q236 71 286 71 Q336 71 377 94.5 Q418 118 441.5 159.5 Q465 201 465 252 Q465 303 442 344.5 Q419 386 378.5 410 Q338 434 288 434 Z M143 630 Q143 631 154.5 642.5 Q166 654 184.5 663.5 Q203 673 226 673 Q255 673 299 654 Q339 638 360 638 Q378 638 394 645.5 Q410 653 420 660.5 Q430 668 432 671 L432 608 Q432 607 420.5 595.5 Q409 584 390.5 574 Q372 564 349 564 Q321 564 275 583 Q233 600 215 600 Q197 600 181 592.5 Q165 585 155 577.5 Q145 570 143 567 L143 630 Z " />
<glyph glyph-name="OE" unicode="&#x152;" horiz-adv-x="1007" d="M967 116 Q888 -10 728 -10 Q654 -10 596.5 22.5 Q539 55 507 111 Q474 55 416.5 22.5 Q359 -10 288 -10 Q212 -10 151.5 25 Q91 60 57 120 Q23 180 23 253 Q23 325 57 385 Q91 445 151.5 479.5 Q212 514 288 514 Q360 514 417.5 481.5 Q475 449 508 392 Q540 448 597.5 481 Q655 514 728 514 Q804 514 862 480.5 Q920 447 952 390 Q984 333 984 264 Q984 249 983 238 Q982 227 981 224 L553 224 Q561 155 609 112 Q657 69 730 69 Q842 69 899 157 L967 116 Z M893 295 Q887 356 841.5 397 Q796 438 728 438 Q660 438 614 399 Q568 360 555 295 L893 295 Z M286 70 Q337 70 378 94 Q419 118 442 159.5 Q465 201 465 252 Q465 304 442 345.5 Q419 387 379 411 Q339 435 288 435 Q237 435 196.5 411 Q156 387 133 345.5 Q110 304 110 252 Q110 200 132.5 158.5 Q155 117 195 93.5 Q235 70 286 70 Z " />
<glyph glyph-name="P" unicode="P" horiz-adv-x="584" d="M123 437 Q123 440 146.5 459.5 Q170 479 210 496 Q250 513 304 513 Q374 513 433 478 Q492 443 527 383.5 Q562 324 562 252 Q562 180 527.5 120.5 Q493 61 433.5 26.5 Q374 -8 304 -8 Q249 -8 208.5 9 Q168 26 145.5 45.5 Q123 65 123 68 L123 -174 L35 -174 L35 506 L123 506 L123 437 Z M300 431 Q250 431 208.5 407 Q167 383 143.5 342 Q120 301 120 252 Q120 202 143.5 161 Q167 120 208 96.5 Q249 73 300 73 Q349 73 389.5 97 Q430 121 453 162 Q476 203 476 252 Q476 301 453 342 Q430 383 389.5 407 Q349 431 300 431 Z " />
<glyph glyph-name="Thorn" unicode="&#xde;" horiz-adv-x="584" d="M123 437 Q123 440 146.5 459.5 Q170 479 210 496 Q250 513 304 513 Q374 513 433 478 Q492 443 527 383.5 Q562 324 562 252 Q562 180 527.5 120.5 Q493 61 433.5 26.5 Q374 -8 304 -8 Q248 -8 208 9 Q168 26 145.5 45.5 Q123 65 123 68 L123 -174 L35 -174 L35 685 L123 685 L123 437 Z M300 431 Q250 431 208.5 407 Q167 383 143.5 342 Q120 301 120 252 Q120 202 143.5 161 Q167 120 208 96.5 Q249 73 300 73 Q349 73 389.5 97 Q430 121 453 162 Q476 203 476 252 Q476 301 453 342 Q430 383 389.5 407 Q349 431 300 431 Z " />
<glyph glyph-name="Q" unicode="Q" horiz-adv-x="584" d="M462 69 Q462 66 439 46 Q416 26 375.5 9 Q335 -8 280 -8 Q210 -8 151 26.5 Q92 61 57.5 120.5 Q23 180 23 252 Q23 324 57.5 383.5 Q92 443 151 478 Q210 513 280 513 Q336 513 376 496 Q416 479 439 459.5 Q462 440 462 437 L462 506 L549 506 L549 -174 L462 -174 L462 69 Z M285 431 Q236 431 195.5 407 Q155 383 132 342 Q109 301 109 252 Q109 203 132 162 Q155 121 195.5 97 Q236 73 285 73 Q335 73 376 96.5 Q417 120 440.5 161 Q464 202 464 252 Q464 301 440.5 342 Q417 383 376 407 Q335 431 285 431 Z " />
<glyph glyph-name="R" unicode="R" horiz-adv-x="307" d="M282 423 Q208 423 165.5 377.5 Q123 332 123 256 L123 0 L35 0 L35 506 L122 506 L122 422 Q122 426 141 449.5 Q160 473 195.5 493 Q231 513 282 513 L282 423 Z " />
<glyph glyph-name="Racute" unicode="&#x154;" horiz-adv-x="307" d="M282 423 Q208 423 165.5 377.5 Q123 332 123 256 L123 0 L35 0 L35 506 L122 506 L122 422 Q122 426 141 449.5 Q160 473 195.5 493 Q231 513 282 513 L282 423 Z M50 570 L50 648 L260 709 L260 627 L50 570 Z " />
<glyph glyph-name="Rcaron" unicode="&#x158;" horiz-adv-x="307" d="M282 423 Q208 423 165.5 377.5 Q123 332 123 256 L123 0 L35 0 L35 506 L122 506 L122 422 Q122 426 141 449.5 Q160 473 195.5 493 Q231 513 282 513 L282 423 Z M154 551 L19 620 L19 695 L154 635 L289 695 L289 620 L154 551 Z " />
<glyph glyph-name="Rcommaaccent" unicode="&#x156;" horiz-adv-x="307" d="M282 423 Q208 423 165.5 377.5 Q123 332 123 256 L123 0 L35 0 L35 506 L122 506 L122 422 Q122 426 141 449.5 Q160 473 195.5 493 Q231 513 282 513 L282 423 Z M94 -202 L40 -202 L63 -131 L37 -131 L37 -52 L121 -52 L121 -118 L94 -202 Z " />
<glyph glyph-name="S" unicode="S" horiz-adv-x="475" d="M116 157 Q120 115 152.5 89 Q185 63 247 62 Q301 62 330 83 Q359 104 359 138 Q359 164 342 178.5 Q325 193 299.5 200 Q274 207 229 214 Q169 224 131 236 Q93 248 66.5 278 Q40 308 40 361 Q40 404 63.5 438.5 Q87 473 131 492.5 Q175 512 232 512 Q321 512 375.5 469 Q430 426 435 354 L346 354 Q343 390 317.5 415 Q292 440 235 440 Q187 440 158.5 422 Q130 404 130 371 Q130 346 147.5 331 Q165 316 191 309 Q217 302 263 294 Q325 283 362 271 Q399 259 426 230.5 Q453 202 453 151 Q453 75 395.5 33 Q338 -9 243 -9 Q147 -9 89 35.5 Q31 80 25 157 L116 157 Z " />
<glyph glyph-name="Sacute" unicode="&#x15a;" horiz-adv-x="475" d="M116 157 Q120 115 152.5 89 Q185 63 247 62 Q301 62 330 83 Q359 104 359 138 Q359 164 342 178.5 Q325 193 299.5 200 Q274 207 229 214 Q169 224 131 236 Q93 248 66.5 278 Q40 308 40 361 Q40 404 63.5 438.5 Q87 473 131 492.5 Q175 512 232 512 Q321 512 375.5 469 Q430 426 435 354 L346 354 Q343 390 317.5 415 Q292 440 235 440 Q187 440 158.5 422 Q130 404 130 371 Q130 346 147.5 331 Q165 316 191 309 Q217 302 263 294 Q325 283 362 271 Q399 259 426 230.5 Q453 202 453 151 Q453 75 395.5 33 Q338 -9 243 -9 Q147 -9 89 35.5 Q31 80 25 157 L116 157 Z M133 570 L133 648 L343 709 L343 627 L133 570 Z " />
<glyph glyph-name="Scaron" unicode="&#x160;" horiz-adv-x="475" d="M116 157 Q120 115 152.5 89 Q185 63 247 62 Q301 62 330 83 Q359 104 359 138 Q359 164 342 178.5 Q325 193 299.5 200 Q274 207 229 214 Q169 224 131 236 Q93 248 66.5 278 Q40 308 40 361 Q40 404 63.5 438.5 Q87 473 131 492.5 Q175 512 232 512 Q321 512 375.5 469 Q430 426 435 354 L346 354 Q343 390 317.5 415 Q292 440 235 440 Q187 440 158.5 422 Q130 404 130 371 Q130 346 147.5 331 Q165 316 191 309 Q217 302 263 294 Q325 283 362 271 Q399 259 426 230.5 Q453 202 453 151 Q453 75 395.5 33 Q338 -9 243 -9 Q147 -9 89 35.5 Q31 80 25 157 L116 157 Z M237 551 L102 620 L102 695 L237 635 L372 695 L372 620 L237 551 Z " />
<glyph glyph-name="Scedilla" unicode="&#x15e;" horiz-adv-x="475" d="M346 354 Q337 440 234 440 Q187 440 158.5 421.5 Q130 403 130 371 Q130 346 147.5 331 Q165 316 191 309 Q217 302 263 294 Q324 283 361.5 271 Q399 259 425.5 230.5 Q452 202 452 150 Q452 79 401.5 38 Q351 -3 266 -8 L246 -46 Q285 -46 310 -68.5 Q335 -91 335 -127 Q335 -163 309 -187.5 Q283 -212 244 -212 Q205 -212 180 -189.5 Q155 -167 151 -129 L207 -129 Q213 -161 245 -161 Q261 -161 271 -151.5 Q281 -142 281 -127 Q281 -113 270.5 -103 Q260 -93 244 -93 L172 -93 L215 -7 Q131 -1 80.5 42.5 Q30 86 25 157 L116 157 Q120 115 152.5 89 Q185 63 247 62 Q301 62 330 83 Q359 104 359 138 Q359 164 342 178.5 Q325 193 299.5 200 Q274 207 229 214 Q169 224 131 236 Q93 248 66.5 278 Q40 308 40 361 Q40 404 63.5 438.5 Q87 473 131 492.5 Q175 512 232 512 Q321 512 375.5 469 Q430 426 435 354 L346 354 Z " />
<glyph glyph-name="Scircumflex" unicode="&#x15c;" horiz-adv-x="475" d="M116 157 Q120 115 152.5 89 Q185 63 247 62 Q301 62 330 83 Q359 104 359 138 Q359 164 342 178.5 Q325 193 299.5 200 Q274 207 229 214 Q169 224 131 236 Q93 248 66.5 278 Q40 308 40 361 Q40 404 63.5 438.5 Q87 473 131 492.5 Q175 512 232 512 Q321 512 375.5 469 Q430 426 435 354 L346 354 Q343 390 317.5 415 Q292 440 235 440 Q187 440 158.5 422 Q130 404 130 371 Q130 346 147.5 331 Q165 316 191 309 Q217 302 263 294 Q325 283 362 271 Q399 259 426 230.5 Q453 202 453 151 Q453 75 395.5 33 Q338 -9 243 -9 Q147 -9 89 35.5 Q31 80 25 157 L116 157 Z M372 558 L237 618 L102 558 L102 633 L237 702 L372 633 L372 558 Z " />
<glyph glyph-name="Scommaaccent" unicode="&#x218;" horiz-adv-x="475" d="M116 157 Q120 115 152.5 89 Q185 63 247 62 Q301 62 330 83 Q359 104 359 138 Q359 164 342 178.5 Q325 193 299.5 200 Q274 207 229 214 Q169 224 131 236 Q93 248 66.5 278 Q40 308 40 361 Q40 404 63.5 438.5 Q87 473 131 492.5 Q175 512 232 512 Q321 512 375.5 469 Q430 426 435 354 L346 354 Q343 390 317.5 415 Q292 440 235 440 Q187 440 158.5 422 Q130 404 130 371 Q130 346 147.5 331 Q165 316 191 309 Q217 302 263 294 Q325 283 362 271 Q399 259 426 230.5 Q453 202 453 151 Q453 75 395.5 33 Q338 -9 243 -9 Q147 -9 89 35.5 Q31 80 25 157 L116 157 Z M262 -202 L208 -202 L231 -131 L205 -131 L205 -52 L289 -52 L289 -118 L262 -202 Z " />
<glyph glyph-name="uni1E9E" unicode="&#x1e9e;" horiz-adv-x="478" d="M35 497 Q35 550 61 593 Q87 636 132 660.5 Q177 685 231 685 Q285 685 328.5 662.5 Q372 640 397 599.5 Q422 559 422 507 Q422 463 404.5 431.5 Q387 400 365 381 Q343 362 343 365 Q343 369 373.5 349 Q404 329 428.5 292 Q453 255 453 199 Q453 141 425.5 96 Q398 51 350 25.5 Q302 0 242 0 L191 0 L191 78 L241 78 Q296 78 331 112.5 Q366 147 366 200 Q366 253 332 286.5 Q298 320 243 319 L191 319 L191 398 L232 398 Q277 398 307.5 429.5 Q338 461 338 505 Q338 550 308 578.5 Q278 607 232 607 Q184 607 152.5 576 Q121 545 121 496 L121 0 L35 0 L35 497 Z " />
<glyph glyph-name="T" unicode="T" horiz-adv-x="341" d="M316 506 L316 428 L182 428 L182 163 Q182 78 268 78 L316 78 L316 0 L267 0 Q188 0 141.5 40.5 Q95 81 95 163 L95 428 L20 428 L20 506 L95 506 L95 645 L182 645 L182 506 L316 506 Z " />
<glyph glyph-name="Tbar" unicode="&#x166;" horiz-adv-x="341" d="M182 319 L316 319 L316 240 L182 240 L182 163 Q182 78 268 78 L316 78 L316 0 L267 0 Q188 0 141.5 40.5 Q95 81 95 163 L95 240 L20 240 L20 319 L95 319 L95 428 L20 428 L20 506 L95 506 L95 645 L182 645 L182 506 L316 506 L316 428 L182 428 L182 319 Z " />
<glyph glyph-name="Tcaron" unicode="&#x164;" horiz-adv-x="341" d="M286 548 L232 548 L255 614 L229 614 L229 685 L313 685 L313 625 L286 548 Z M316 506 L316 428 L182 428 L182 163 Q182 78 268 78 L316 78 L316 0 L267 0 Q188 0 141.5 40.5 Q95 81 95 163 L95 428 L20 428 L20 506 L95 506 L95 645 L182 645 L182 506 L316 506 Z " />
<glyph glyph-name="Tcedilla" unicode="&#x162;" horiz-adv-x="341" d="M181 163 Q181 77 267 77 L315 77 L315 0 L267 0 Q254 0 230 2 L210 -36 Q249 -36 274 -59 Q299 -82 299 -118 Q299 -154 273 -178.5 Q247 -203 208 -203 Q169 -203 144 -180 Q119 -157 115 -120 L171 -120 Q177 -152 209 -152 Q225 -152 235 -142.5 Q245 -133 245 -118 Q245 -103 234.5 -93.5 Q224 -84 208 -84 L136 -84 L185 14 Q95 49 95 163 L95 428 L20 428 L20 506 L95 506 L95 645 L182 645 L182 506 L316 506 L316 428 L181 427 L181 163 Z " />
<glyph glyph-name="uni021A" unicode="&#x21a;" horiz-adv-x="341" d="M316 506 L316 428 L182 428 L182 163 Q182 78 268 78 L316 78 L316 0 L267 0 Q188 0 141.5 40.5 Q95 81 95 163 L95 428 L20 428 L20 506 L95 506 L95 645 L182 645 L182 506 L316 506 Z M225 -193 L171 -193 L194 -122 L168 -122 L168 -43 L252 -43 L252 -109 L225 -193 Z " />
<glyph glyph-name="U" unicode="U" horiz-adv-x="512" d="M390 0 L390 64 Q390 61 371 42 Q352 23 317 7 Q282 -9 231 -9 Q142 -9 88.5 47 Q35 103 35 196 L35 506 L122 506 L122 208 Q122 146 155.5 109.5 Q189 73 247 73 Q312 73 351 113 Q390 153 390 221 L390 506 L477 506 L477 0 L390 0 Z " />
<glyph glyph-name="Uacute" unicode="&#xda;" horiz-adv-x="512" d="M390 0 L390 64 Q390 61 371 42 Q352 23 317 7 Q282 -9 231 -9 Q142 -9 88.5 47 Q35 103 35 196 L35 506 L122 506 L122 208 Q122 146 155.5 109.5 Q189 73 247 73 Q312 73 351 113 Q390 153 390 221 L390 506 L477 506 L477 0 L390 0 Z M152 570 L152 648 L362 709 L362 627 L152 570 Z " />
<glyph glyph-name="Ubreve" unicode="&#x16c;" horiz-adv-x="512" d="M390 0 L390 64 Q390 61 371 42 Q352 23 317 7 Q282 -9 231 -9 Q142 -9 88.5 47 Q35 103 35 196 L35 506 L122 506 L122 208 Q122 146 155.5 109.5 Q189 73 247 73 Q312 73 351 113 Q390 153 390 221 L390 506 L477 506 L477 0 L390 0 Z M395 622 Q395 620 378 604.5 Q361 589 330 576 Q299 563 256 563 Q213 563 182.5 576 Q152 589 135 604.5 Q118 620 118 622 L118 692 Q118 690 138 676.5 Q158 663 188.5 651 Q219 639 256 639 Q293 639 324 651 Q355 663 375 676.5 Q395 690 395 692 L395 622 Z " />
<glyph glyph-name="Ucircumflex" unicode="&#xdb;" horiz-adv-x="512" d="M390 0 L390 64 Q390 61 371 42 Q352 23 317 7 Q282 -9 231 -9 Q142 -9 88.5 47 Q35 103 35 196 L35 506 L122 506 L122 208 Q122 146 155.5 109.5 Q189 73 247 73 Q312 73 351 113 Q390 153 390 221 L390 506 L477 506 L477 0 L390 0 Z M391 558 L256 618 L121 558 L121 633 L256 702 L391 633 L391 558 Z " />
<glyph glyph-name="Udieresis" unicode="&#xdc;" horiz-adv-x="512" d="M390 0 L390 64 Q390 61 371 42 Q352 23 317 7 Q282 -9 231 -9 Q142 -9 88.5 47 Q35 103 35 196 L35 506 L122 506 L122 208 Q122 146 155.5 109.5 Q189 73 247 73 Q312 73 351 113 Q390 153 390 221 L390 506 L477 506 L477 0 L390 0 Z M136 597 L136 686 L223 686 L223 597 L136 597 Z M290 597 L290 686 L377 686 L377 597 L290 597 Z " />
<glyph glyph-name="Ugrave" unicode="&#xd9;" horiz-adv-x="512" d="M390 0 L390 64 Q390 61 371 42 Q352 23 317 7 Q282 -9 231 -9 Q142 -9 88.5 47 Q35 103 35 196 L35 506 L122 506 L122 208 Q122 146 155.5 109.5 Q189 73 247 73 Q312 73 351 113 Q390 153 390 221 L390 506 L477 506 L477 0 L390 0 Z M362 570 L152 627 L152 709 L362 648 L362 570 Z " />
<glyph glyph-name="Uhungarumlaut" unicode="&#x170;" horiz-adv-x="512" d="M390 0 L390 64 Q390 61 371 42 Q352 23 317 7 Q282 -9 231 -9 Q142 -9 88.5 47 Q35 103 35 196 L35 506 L122 506 L122 208 Q122 146 155.5 109.5 Q189 73 247 73 Q312 73 351 113 Q390 153 390 221 L390 506 L477 506 L477 0 L390 0 Z M157 559 L205 706 L291 706 L239 559 L157 559 Z M288 559 L341 706 L426 706 L369 559 L288 559 Z " />
<glyph glyph-name="Umacron" unicode="&#x16a;" horiz-adv-x="512" d="M390 0 L390 64 Q390 61 371 42 Q352 23 317 7 Q282 -9 231 -9 Q142 -9 88.5 47 Q35 103 35 196 L35 506 L122 506 L122 208 Q122 146 155.5 109.5 Q189 73 247 73 Q312 73 351 113 Q390 153 390 221 L390 506 L477 506 L477 0 L390 0 Z M125 596 L125 674 L387 674 L387 596 L125 596 Z " />
<glyph glyph-name="Uogonek" unicode="&#x172;" horiz-adv-x="512" d="M476 0 Q443 -14 425.5 -36.5 Q408 -59 408 -84 Q408 -103 421 -113.5 Q434 -124 456 -124 Q471 -124 483.5 -121 Q496 -118 503 -115 Q510 -112 512 -111 L512 -160 Q510 -162 501.5 -166.5 Q493 -171 478 -175 Q463 -179 443 -179 Q398 -179 370.5 -156 Q343 -133 343 -96 Q343 -63 363.5 -37.5 Q384 -12 415 0 L390 0 L390 64 Q390 61 371 42 Q352 23 317 7 Q282 -9 231 -9 Q142 -9 88.5 47 Q35 103 35 196 L35 506 L122 506 L122 208 Q122 146 155.5 109.5 Q189 73 247 73 Q312 73 351 113 Q390 153 390 221 L390 506 L477 506 L476 0 Z " />
<glyph glyph-name="Uring" unicode="&#x16e;" horiz-adv-x="512" d="M390 0 L390 64 Q390 61 371 42 Q352 23 317 7 Q282 -9 231 -9 Q142 -9 88.5 47 Q35 103 35 196 L35 506 L122 506 L122 208 Q122 146 155.5 109.5 Q189 73 247 73 Q312 73 351 113 Q390 153 390 221 L390 506 L477 506 L477 0 L390 0 Z M257 742 Q298 742 326 715 Q354 688 354 648 Q354 608 326 580.5 Q298 553 257 553 Q216 553 188 580.5 Q160 608 160 648 Q160 688 188 715 Q216 742 257 742 Z M257 692 Q238 692 225.5 679.5 Q213 667 213 648 Q213 629 225.5 616 Q238 603 257 603 Q276 603 288.5 616 Q301 629 301 648 Q301 667 288.5 679.5 Q276 692 257 692 Z " />
<glyph glyph-name="Utilde" unicode="&#x168;" horiz-adv-x="512" d="M390 0 L390 64 Q390 61 371 42 Q352 23 317 7 Q282 -9 231 -9 Q142 -9 88.5 47 Q35 103 35 196 L35 506 L122 506 L122 208 Q122 146 155.5 109.5 Q189 73 247 73 Q312 73 351 113 Q390 153 390 221 L390 506 L477 506 L477 0 L390 0 Z M112 630 Q112 631 123.5 642.5 Q135 654 153.5 663.5 Q172 673 195 673 Q224 673 268 654 Q308 638 329 638 Q347 638 363 645.5 Q379 653 389 660.5 Q399 668 401 671 L401 608 Q401 607 389.5 595.5 Q378 584 359.5 574 Q341 564 318 564 Q290 564 244 583 Q202 600 184 600 Q166 600 150 592.5 Q134 585 124 577.5 Q114 570 112 567 L112 630 Z " />
<glyph glyph-name="V" unicode="V" horiz-adv-x="498" d="M191 0 L13 506 L110 506 L252 87 L393 506 L485 506 L307 0 L191 0 Z " />
<glyph glyph-name="W" unicode="W" horiz-adv-x="758" d="M482 0 L378 370 L267 0 L152 0 L15 506 L107 506 L212 100 L332 506 L430 506 L542 100 L655 506 L743 506 L598 0 L482 0 Z " />
<glyph glyph-name="Wacute" unicode="&#x1e82;" horiz-adv-x="758" d="M482 0 L378 370 L267 0 L152 0 L15 506 L107 506 L212 100 L332 506 L430 506 L542 100 L655 506 L743 506 L598 0 L482 0 Z M275 570 L275 648 L485 709 L485 627 L275 570 Z " />
<glyph glyph-name="Wcircumflex" unicode="&#x174;" horiz-adv-x="758" d="M482 0 L378 370 L267 0 L152 0 L15 506 L107 506 L212 100 L332 506 L430 506 L542 100 L655 506 L743 506 L598 0 L482 0 Z M514 558 L379 618 L244 558 L244 633 L379 702 L514 633 L514 558 Z " />
<glyph glyph-name="Wdieresis" unicode="&#x1e84;" horiz-adv-x="758" d="M482 0 L378 370 L267 0 L152 0 L15 506 L107 506 L212 100 L332 506 L430 506 L542 100 L655 506 L743 506 L598 0 L482 0 Z M259 597 L259 686 L346 686 L346 597 L259 597 Z M413 597 L413 686 L500 686 L500 597 L413 597 Z " />
<glyph glyph-name="Wgrave" unicode="&#x1e80;" horiz-adv-x="758" d="M482 0 L378 370 L267 0 L152 0 L15 506 L107 506 L212 100 L332 506 L430 506 L542 100 L655 506 L743 506 L598 0 L482 0 Z M485 570 L275 627 L275 709 L485 648 L485 570 Z " />
<glyph glyph-name="X" unicode="X" horiz-adv-x="495" d="M483 0 L377 0 L248 194 L118 0 L13 0 L190 259 L23 506 L129 506 L248 326 L367 506 L473 506 L305 261 L483 0 Z " />
<glyph glyph-name="Y" unicode="Y" horiz-adv-x="497" d="M305 14 Q270 -86 216.5 -130 Q163 -174 77 -174 L54 -174 L54 -94 L77 -94 Q125 -94 158 -69.5 Q191 -45 214 9 L12 506 L110 506 L259 123 L393 506 L484 505 L305 14 Z " />
<glyph glyph-name="Yacute" unicode="&#xdd;" horiz-adv-x="497" d="M305 14 Q270 -86 216.5 -130 Q163 -174 77 -174 L54 -174 L54 -94 L77 -94 Q125 -94 158 -69.5 Q191 -45 214 9 L12 506 L110 506 L259 123 L393 506 L484 505 L305 14 Z M145 570 L145 648 L355 709 L355 627 L145 570 Z " />
<glyph glyph-name="Ycircumflex" unicode="&#x176;" horiz-adv-x="497" d="M305 14 Q270 -86 216.5 -130 Q163 -174 77 -174 L54 -174 L54 -94 L77 -94 Q125 -94 158 -69.5 Q191 -45 214 9 L12 506 L110 506 L259 123 L393 506 L484 505 L305 14 Z M385 558 L250 618 L115 558 L115 633 L250 702 L385 633 L385 558 Z " />
<glyph glyph-name="Ydieresis" unicode="&#x178;" horiz-adv-x="497" d="M305 14 Q270 -86 216.5 -130 Q163 -174 77 -174 L54 -174 L54 -94 L77 -94 Q125 -94 158 -69.5 Q191 -45 214 9 L12 506 L110 506 L259 123 L393 506 L484 505 L305 14 Z M130 597 L130 686 L217 686 L217 597 L130 597 Z M284 597 L284 686 L371 686 L371 597 L284 597 Z " />
<glyph glyph-name="Ygrave" unicode="&#x1ef2;" horiz-adv-x="497" d="M305 14 Q270 -86 216.5 -130 Q163 -174 77 -174 L54 -174 L54 -94 L77 -94 Q125 -94 158 -69.5 Q191 -45 214 9 L12 506 L110 506 L259 123 L393 506 L484 505 L305 14 Z M355 570 L145 627 L145 709 L355 648 L355 570 Z " />
<glyph glyph-name="Z" unicode="Z" horiz-adv-x="474" d="M146 78 L446 78 L446 0 L28 0 L28 73 L319 428 L34 428 L34 506 L437 506 L437 433 L146 78 Z " />
<glyph glyph-name="Zacute" unicode="&#x179;" horiz-adv-x="474" d="M146 78 L446 78 L446 0 L28 0 L28 73 L319 428 L34 428 L34 506 L437 506 L437 433 L146 78 Z M134 570 L134 648 L344 709 L344 627 L134 570 Z " />
<glyph glyph-name="Zcaron" unicode="&#x17d;" horiz-adv-x="474" d="M146 78 L446 78 L446 0 L28 0 L28 73 L319 428 L34 428 L34 506 L437 506 L437 433 L146 78 Z M238 551 L103 620 L103 695 L238 635 L373 695 L373 620 L238 551 Z " />
<glyph glyph-name="Zdotaccent" unicode="&#x17b;" horiz-adv-x="474" d="M146 78 L446 78 L446 0 L28 0 L28 73 L319 428 L34 428 L34 506 L437 506 L437 433 L146 78 Z M195 597 L195 686 L282 686 L282 597 L195 597 Z " />
<glyph glyph-name="a" unicode="a" horiz-adv-x="584" d="M462 69 Q462 66 439.5 46 Q417 26 376.5 9 Q336 -8 280 -8 Q210 -8 151 26.5 Q92 61 57.5 120.5 Q23 180 23 252 Q23 324 57.5 383.5 Q92 443 151 478 Q210 513 280 513 Q334 513 374.5 496.5 Q415 480 438.5 460.5 Q462 441 462 438 L462 506 L549 506 L549 0 L462 0 L462 69 Z M285 431 Q236 431 195.5 407 Q155 383 132 342 Q109 301 109 252 Q109 203 132 162 Q155 121 195.5 97 Q236 73 285 73 Q335 73 376 96.5 Q417 120 440.5 161 Q464 202 464 252 Q464 301 440.5 342 Q417 383 376 407 Q335 431 285 431 Z " />
<glyph glyph-name="aacute" unicode="&#xe1;" horiz-adv-x="584" d="M462 69 Q462 66 439.5 46 Q417 26 376.5 9 Q336 -8 280 -8 Q210 -8 151 26.5 Q92 61 57.5 120.5 Q23 180 23 252 Q23 324 57.5 383.5 Q92 443 151 478 Q210 513 280 513 Q334 513 374.5 496.5 Q415 480 438.5 460.5 Q462 441 462 438 L462 506 L549 506 L549 0 L462 0 L462 69 Z M285 431 Q236 431 195.5 407 Q155 383 132 342 Q109 301 109 252 Q109 203 132 162 Q155 121 195.5 97 Q236 73 285 73 Q335 73 376 96.5 Q417 120 440.5 161 Q464 202 464 252 Q464 301 440.5 342 Q417 383 376 407 Q335 431 285 431 Z M188 570 L188 648 L398 709 L398 627 L188 570 Z " />
<glyph glyph-name="abreve" unicode="&#x103;" horiz-adv-x="584" d="M462 69 Q462 66 439.5 46 Q417 26 376.5 9 Q336 -8 280 -8 Q210 -8 151 26.5 Q92 61 57.5 120.5 Q23 180 23 252 Q23 324 57.5 383.5 Q92 443 151 478 Q210 513 280 513 Q334 513 374.5 496.5 Q415 480 438.5 460.5 Q462 441 462 438 L462 506 L549 506 L549 0 L462 0 L462 69 Z M285 431 Q236 431 195.5 407 Q155 383 132 342 Q109 301 109 252 Q109 203 132 162 Q155 121 195.5 97 Q236 73 285 73 Q335 73 376 96.5 Q417 120 440.5 161 Q464 202 464 252 Q464 301 440.5 342 Q417 383 376 407 Q335 431 285 431 Z M431 622 Q431 620 414 604.5 Q397 589 366 576 Q335 563 292 563 Q249 563 218.5 576 Q188 589 171 604.5 Q154 620 154 622 L154 692 Q154 690 174 676.5 Q194 663 224.5 651 Q255 639 292 639 Q329 639 360 651 Q391 663 411 676.5 Q431 690 431 692 L431 622 Z " />
<glyph glyph-name="acircumflex" unicode="&#xe2;" horiz-adv-x="584" d="M462 69 Q462 66 439.5 46 Q417 26 376.5 9 Q336 -8 280 -8 Q210 -8 151 26.5 Q92 61 57.5 120.5 Q23 180 23 252 Q23 324 57.5 383.5 Q92 443 151 478 Q210 513 280 513 Q334 513 374.5 496.5 Q415 480 438.5 460.5 Q462 441 462 438 L462 506 L549 506 L549 0 L462 0 L462 69 Z M285 431 Q236 431 195.5 407 Q155 383 132 342 Q109 301 109 252 Q109 203 132 162 Q155 121 195.5 97 Q236 73 285 73 Q335 73 376 96.5 Q417 120 440.5 161 Q464 202 464 252 Q464 301 440.5 342 Q417 383 376 407 Q335 431 285 431 Z M427 558 L292 618 L157 558 L157 633 L292 702 L427 633 L427 558 Z " />
<glyph glyph-name="adieresis" unicode="&#xe4;" horiz-adv-x="584" d="M462 69 Q462 66 439.5 46 Q417 26 376.5 9 Q336 -8 280 -8 Q210 -8 151 26.5 Q92 61 57.5 120.5 Q23 180 23 252 Q23 324 57.5 383.5 Q92 443 151 478 Q210 513 280 513 Q334 513 374.5 496.5 Q415 480 438.5 460.5 Q462 441 462 438 L462 506 L549 506 L549 0 L462 0 L462 69 Z M285 431 Q236 431 195.5 407 Q155 383 132 342 Q109 301 109 252 Q109 203 132 162 Q155 121 195.5 97 Q236 73 285 73 Q335 73 376 96.5 Q417 120 440.5 161 Q464 202 464 252 Q464 301 440.5 342 Q417 383 376 407 Q335 431 285 431 Z M172 597 L172 686 L259 686 L259 597 L172 597 Z M326 597 L326 686 L413 686 L413 597 L326 597 Z " />
<glyph glyph-name="agrave" unicode="&#xe0;" horiz-adv-x="584" d="M462 69 Q462 66 439.5 46 Q417 26 376.5 9 Q336 -8 280 -8 Q210 -8 151 26.5 Q92 61 57.5 120.5 Q23 180 23 252 Q23 324 57.5 383.5 Q92 443 151 478 Q210 513 280 513 Q334 513 374.5 496.5 Q415 480 438.5 460.5 Q462 441 462 438 L462 506 L549 506 L549 0 L462 0 L462 69 Z M285 431 Q236 431 195.5 407 Q155 383 132 342 Q109 301 109 252 Q109 203 132 162 Q155 121 195.5 97 Q236 73 285 73 Q335 73 376 96.5 Q417 120 440.5 161 Q464 202 464 252 Q464 301 440.5 342 Q417 383 376 407 Q335 431 285 431 Z M398 570 L188 627 L188 709 L398 648 L398 570 Z " />
<glyph glyph-name="amacron" unicode="&#x101;" horiz-adv-x="584" d="M462 69 Q462 66 439.5 46 Q417 26 376.5 9 Q336 -8 280 -8 Q210 -8 151 26.5 Q92 61 57.5 120.5 Q23 180 23 252 Q23 324 57.5 383.5 Q92 443 151 478 Q210 513 280 513 Q334 513 374.5 496.5 Q415 480 438.5 460.5 Q462 441 462 438 L462 506 L549 506 L549 0 L462 0 L462 69 Z M285 431 Q236 431 195.5 407 Q155 383 132 342 Q109 301 109 252 Q109 203 132 162 Q155 121 195.5 97 Q236 73 285 73 Q335 73 376 96.5 Q417 120 440.5 161 Q464 202 464 252 Q464 301 440.5 342 Q417 383 376 407 Q335 431 285 431 Z M161 596 L161 674 L423 674 L423 596 L161 596 Z " />
<glyph glyph-name="aogonek" unicode="&#x105;" horiz-adv-x="584" d="M547 0 Q514 -14 496.5 -36.5 Q479 -59 479 -84 Q479 -103 492 -113.5 Q505 -124 527 -124 Q542 -124 554.5 -121 Q567 -118 574 -115 Q581 -112 583 -111 L583 -160 Q581 -162 572.5 -166.5 Q564 -171 549 -175 Q534 -179 514 -179 Q469 -179 441.5 -156 Q414 -133 414 -96 Q414 -63 434.5 -37.5 Q455 -12 486 0 L462 0 L462 69 Q462 66 439.5 46 Q417 26 376.5 9 Q336 -8 280 -8 Q210 -8 151 26.5 Q92 61 57.5 120.5 Q23 180 23 252 Q23 324 57.5 383.5 Q92 443 151 478 Q210 513 280 513 Q334 513 374.5 496.5 Q415 480 438.5 460.5 Q462 441 462 438 L462 506 L549 506 L549 0 L547 0 Z M284 73 Q335 73 376 96.5 Q417 120 440.5 161 Q464 202 464 252 Q464 301 440.5 342 Q417 383 375.5 407 Q334 431 284 431 Q235 431 194.5 407 Q154 383 131 342 Q108 301 108 252 Q108 203 131 162 Q154 121 194.5 97 Q235 73 284 73 Z " />
<glyph glyph-name="aring" unicode="&#xe5;" horiz-adv-x="584" d="M462 69 Q462 66 439.5 46 Q417 26 376.5 9 Q336 -8 280 -8 Q210 -8 151 26.5 Q92 61 57.5 120.5 Q23 180 23 252 Q23 324 57.5 383.5 Q92 443 151 478 Q210 513 280 513 Q334 513 374.5 496.5 Q415 480 438.5 460.5 Q462 441 462 438 L462 506 L549 506 L549 0 L462 0 L462 69 Z M285 431 Q236 431 195.5 407 Q155 383 132 342 Q109 301 109 252 Q109 203 132 162 Q155 121 195.5 97 Q236 73 285 73 Q335 73 376 96.5 Q417 120 440.5 161 Q464 202 464 252 Q464 301 440.5 342 Q417 383 376 407 Q335 431 285 431 Z M293 742 Q334 742 362 715 Q390 688 390 648 Q390 608 362 580.5 Q334 553 293 553 Q252 553 224 580.5 Q196 608 196 648 Q196 688 224 715 Q252 742 293 742 Z M293 692 Q274 692 261.5 679.5 Q249 667 249 648 Q249 629 261.5 616 Q274 603 293 603 Q312 603 324.5 616 Q337 629 337 648 Q337 667 324.5 679.5 Q312 692 293 692 Z " />
<glyph glyph-name="atilde" unicode="&#xe3;" horiz-adv-x="584" d="M462 69 Q462 66 439.5 46 Q417 26 376.5 9 Q336 -8 280 -8 Q210 -8 151 26.5 Q92 61 57.5 120.5 Q23 180 23 252 Q23 324 57.5 383.5 Q92 443 151 478 Q210 513 280 513 Q334 513 374.5 496.5 Q415 480 438.5 460.5 Q462 441 462 438 L462 506 L549 506 L549 0 L462 0 L462 69 Z M285 431 Q236 431 195.5 407 Q155 383 132 342 Q109 301 109 252 Q109 203 132 162 Q155 121 195.5 97 Q236 73 285 73 Q335 73 376 96.5 Q417 120 440.5 161 Q464 202 464 252 Q464 301 440.5 342 Q417 383 376 407 Q335 431 285 431 Z M148 630 Q148 631 159.5 642.5 Q171 654 189.5 663.5 Q208 673 231 673 Q260 673 304 654 Q344 638 365 638 Q383 638 399 645.5 Q415 653 425 660.5 Q435 668 437 671 L437 608 Q437 607 425.5 595.5 Q414 584 395.5 574 Q377 564 354 564 Q326 564 280 583 Q238 600 220 600 Q202 600 186 592.5 Q170 585 160 577.5 Q150 570 148 567 L148 630 Z " />
<glyph glyph-name="ae" unicode="&#xe6;" horiz-adv-x="1005" d="M550 434 Q571 464 617.5 489 Q664 514 728 514 Q804 514 862 480.5 Q920 447 951.5 390 Q983 333 983 264 Q983 249 982 238 Q981 227 980 224 L552 224 Q561 154 608.5 111.5 Q656 69 729 69 Q840 69 897 157 L966 116 Q885 -10 728 -10 Q665 -10 618 15.5 Q571 41 550 71 L550 0 L463 0 L463 73 Q463 70 440 48.5 Q417 27 377 9 Q337 -9 281 -9 Q208 -9 149 25.5 Q90 60 56.5 119.5 Q23 179 23 252 Q23 325 56.5 385 Q90 445 149 479.5 Q208 514 281 514 Q337 514 377 496.5 Q417 479 440 458.5 Q463 438 463 435 L463 506 L550 506 L550 434 Z M891 295 Q885 356 839.5 397 Q794 438 726 438 Q659 438 613 399 Q567 360 554 295 L891 295 Z M285 71 Q336 71 377 94.5 Q418 118 441.5 159.5 Q465 201 465 252 Q465 303 442 344.5 Q419 386 378.5 409.5 Q338 433 287 433 Q236 433 195.5 409.5 Q155 386 132 344.5 Q109 303 109 252 Q109 200 131.5 159 Q154 118 194 94.5 Q234 71 285 71 Z " />
<glyph glyph-name="b" unicode="b" horiz-adv-x="584" d="M123 437 Q123 440 145.5 459.5 Q168 479 208 496 Q248 513 304 513 Q374 513 433 478 Q492 443 527 383.5 Q562 324 562 252 Q562 180 527.5 120.5 Q493 61 433.5 26.5 Q374 -8 304 -8 Q248 -8 207.5 9 Q167 26 145 46 Q123 66 123 69 L123 0 L35 0 L35 685 L123 685 L123 437 Z M300 431 Q250 431 208.5 407 Q167 383 143.5 342 Q120 301 120 252 Q120 202 143.5 161 Q167 120 208 96.5 Q249 73 300 73 Q349 73 389.5 97 Q430 121 453 162 Q476 203 476 252 Q476 301 453 342 Q430 383 389.5 407 Q349 431 300 431 Z " />
<glyph glyph-name="c" unicode="c" horiz-adv-x="535" d="M517 119 Q438 -10 283 -10 Q208 -10 148.5 25 Q89 60 56 120 Q23 180 23 253 Q23 326 56 385.5 Q89 445 148.5 479.5 Q208 514 283 514 Q440 514 517 385 L449 342 Q421 386 382.5 410 Q344 434 285 434 Q234 434 194.5 410.5 Q155 387 133 346 Q111 305 111 253 Q111 201 133 159.5 Q155 118 194.5 94.5 Q234 71 286 71 Q345 71 383 94.5 Q421 118 449 163 L517 119 Z " />
<glyph glyph-name="cacute" unicode="&#x107;" horiz-adv-x="535" d="M517 119 Q438 -10 283 -10 Q208 -10 148.5 25 Q89 60 56 120 Q23 180 23 253 Q23 326 56 385.5 Q89 445 148.5 479.5 Q208 514 283 514 Q440 514 517 385 L449 342 Q421 386 382.5 410 Q344 434 285 434 Q234 434 194.5 410.5 Q155 387 133 346 Q111 305 111 253 Q111 201 133 159.5 Q155 118 194.5 94.5 Q234 71 286 71 Q345 71 383 94.5 Q421 118 449 163 L517 119 Z M177 570 L177 648 L387 709 L387 627 L177 570 Z " />
<glyph glyph-name="ccaron" unicode="&#x10d;" horiz-adv-x="535" d="M517 119 Q438 -10 283 -10 Q208 -10 148.5 25 Q89 60 56 120 Q23 180 23 253 Q23 326 56 385.5 Q89 445 148.5 479.5 Q208 514 283 514 Q440 514 517 385 L449 342 Q421 386 382.5 410 Q344 434 285 434 Q234 434 194.5 410.5 Q155 387 133 346 Q111 305 111 253 Q111 201 133 159.5 Q155 118 194.5 94.5 Q234 71 286 71 Q345 71 383 94.5 Q421 118 449 163 L517 119 Z M281 551 L146 620 L146 695 L281 635 L416 695 L416 620 L281 551 Z " />
<glyph glyph-name="ccedilla" unicode="&#xe7;" horiz-adv-x="535" d="M448 342 Q421 386 382.5 410 Q344 434 285 434 Q233 434 193.5 410.5 Q154 387 132.5 346 Q111 305 111 253 Q111 201 133 159.5 Q155 118 194.5 94.5 Q234 71 285 71 Q345 71 383 94.5 Q421 118 448 163 L517 119 Q444 -1 303 -9 L284 -45 Q323 -45 348 -68 Q373 -91 373 -127 Q373 -163 347 -187.5 Q321 -212 282 -212 Q243 -212 218 -189 Q193 -166 189 -129 L245 -129 Q251 -161 283 -161 Q299 -161 309 -151.5 Q319 -142 319 -127 Q319 -112 308.5 -102.5 Q298 -93 282 -93 L210 -93 L252 -8 Q185 -1 133 35 Q81 71 52 128 Q23 185 23 253 Q23 326 56 385.5 Q89 445 148.5 479.5 Q208 514 283 514 Q440 514 517 385 L448 342 Z " />
<glyph glyph-name="ccircumflex" unicode="&#x109;" horiz-adv-x="535" d="M517 119 Q438 -10 283 -10 Q208 -10 148.5 25 Q89 60 56 120 Q23 180 23 253 Q23 326 56 385.5 Q89 445 148.5 479.5 Q208 514 283 514 Q440 514 517 385 L449 342 Q421 386 382.5 410 Q344 434 285 434 Q234 434 194.5 410.5 Q155 387 133 346 Q111 305 111 253 Q111 201 133 159.5 Q155 118 194.5 94.5 Q234 71 286 71 Q345 71 383 94.5 Q421 118 449 163 L517 119 Z M416 558 L281 618 L146 558 L146 633 L281 702 L416 633 L416 558 Z " />
<glyph glyph-name="cdotaccent" unicode="&#x10b;" horiz-adv-x="535" d="M517 119 Q438 -10 283 -10 Q208 -10 148.5 25 Q89 60 56 120 Q23 180 23 253 Q23 326 56 385.5 Q89 445 148.5 479.5 Q208 514 283 514 Q440 514 517 385 L449 342 Q421 386 382.5 410 Q344 434 285 434 Q234 434 194.5 410.5 Q155 387 133 346 Q111 305 111 253 Q111 201 133 159.5 Q155 118 194.5 94.5 Q234 71 286 71 Q345 71 383 94.5 Q421 118 449 163 L517 119 Z M238 597 L238 686 L325 686 L325 597 L238 597 Z " />
<glyph glyph-name="d" unicode="d" horiz-adv-x="584" d="M462 0 L462 69 Q462 66 439 46 Q416 26 375.5 9 Q335 -8 280 -8 Q210 -8 151 26.5 Q92 61 57.5 120.5 Q23 180 23 252 Q23 324 57.5 383.5 Q92 443 151 478 Q210 513 280 513 Q335 513 375.5 496 Q416 479 439 459.5 Q462 440 462 437 L462 685 L549 685 L549 0 L462 0 Z M285 431 Q236 431 195.5 407 Q155 383 132 342 Q109 301 109 252 Q109 203 132 162 Q155 121 195.5 97 Q236 73 285 73 Q335 73 376 96.5 Q417 120 440.5 161 Q464 202 464 252 Q464 301 440.5 342 Q417 383 376 407 Q335 431 285 431 Z " />
<glyph glyph-name="eth" unicode="&#xf0;" horiz-adv-x="569" d="M509 388 Q547 323 547 251 Q547 180 511.5 120.5 Q476 61 415.5 26 Q355 -9 283 -9 Q210 -9 150.5 25 Q91 59 57 118 Q23 177 23 250 Q23 323 56.5 382.5 Q90 442 149 476 Q208 510 281 510 Q299 510 315.5 507 Q332 504 342 500.5 Q352 497 355 496 L318 559 L226 542 L226 607 L285 617 L247 685 L340 685 L370 633 L475 653 L475 588 L403 575 L509 388 Z M284 70 Q334 70 374.5 93.5 Q415 117 437.5 158 Q460 199 460 250 Q460 301 437.5 342 Q415 383 375 406 Q335 429 285 429 Q235 429 194.5 406 Q154 383 131 342 Q108 301 108 250 Q108 199 130.5 158 Q153 117 193.5 93.5 Q234 70 284 70 Z " />
<glyph glyph-name="dcaron" unicode="&#x10f;" horiz-adv-x="697" d="M462 0 L462 69 Q462 66 439 46 Q416 26 375.5 9 Q335 -8 280 -8 Q210 -8 151 26.5 Q92 61 57.5 120.5 Q23 180 23 252 Q23 324 57.5 383.5 Q92 443 151 478 Q210 513 280 513 Q335 513 375.5 496 Q416 479 439 459.5 Q462 440 462 437 L462 685 L549 685 L549 0 L462 0 Z M656 514 L599 514 L624 594 L596 594 L596 685 L684 685 L684 609 L656 514 Z M285 431 Q236 431 195.5 407 Q155 383 132 342 Q109 301 109 252 Q109 203 132 162 Q155 121 195.5 97 Q236 73 285 73 Q335 73 376 96.5 Q417 120 440.5 161 Q464 202 464 252 Q464 301 440.5 342 Q417 383 376 407 Q335 431 285 431 Z " />
<glyph glyph-name="dslash" unicode="&#x111;" horiz-adv-x="585" d="M549 546 L549 0 L462 0 L462 69 Q462 66 439 46 Q416 26 375.5 9 Q335 -8 280 -8 Q210 -8 151 26.5 Q92 61 57.5 120.5 Q23 180 23 252 Q23 324 57.5 383.5 Q92 443 151 478 Q210 513 280 513 Q335 513 375.5 496 Q416 479 439 459.5 Q462 440 462 437 L462 546 L319 546 L319 622 L462 622 L462 685 L549 685 L549 622 L591 622 L591 546 L549 546 Z M285 73 Q335 73 376 96.5 Q417 120 440.5 161 Q464 202 464 252 Q464 301 440.5 342 Q417 383 376 407 Q335 431 285 431 Q236 431 195.5 407 Q155 383 132 342 Q109 301 109 252 Q109 203 132 162 Q155 121 195.5 97 Q236 73 285 73 Z " />
<glyph glyph-name="e" unicode="e" horiz-adv-x="564" d="M524 116 Q445 -10 285 -10 Q208 -10 148.5 24.5 Q89 59 56 119 Q23 179 23 253 Q23 325 56.5 385 Q90 445 150 479.5 Q210 514 285 514 Q362 514 420 480.5 Q478 447 510 390 Q542 333 542 264 Q542 249 541 238 Q540 227 539 224 L111 224 Q119 155 166.5 112 Q214 69 287 69 Q399 69 456 157 L524 116 Z M451 295 Q445 356 399 397 Q353 438 285 438 Q218 438 171.5 399 Q125 360 113 295 L451 295 Z " />
<glyph glyph-name="eacute" unicode="&#xe9;" horiz-adv-x="564" d="M524 116 Q445 -10 285 -10 Q208 -10 148.5 24.5 Q89 59 56 119 Q23 179 23 253 Q23 325 56.5 385 Q90 445 150 479.5 Q210 514 285 514 Q362 514 420 480.5 Q478 447 510 390 Q542 333 542 264 Q542 249 541 238 Q540 227 539 224 L111 224 Q119 155 166.5 112 Q214 69 287 69 Q399 69 456 157 L524 116 Z M451 295 Q445 356 399 397 Q353 438 285 438 Q218 438 171.5 399 Q125 360 113 295 L451 295 Z M180 570 L180 648 L390 709 L390 627 L180 570 Z " />
<glyph glyph-name="ebreve" unicode="&#x115;" horiz-adv-x="564" d="M524 116 Q445 -10 285 -10 Q208 -10 148.5 24.5 Q89 59 56 119 Q23 179 23 253 Q23 325 56.5 385 Q90 445 150 479.5 Q210 514 285 514 Q362 514 420 480.5 Q478 447 510 390 Q542 333 542 264 Q542 249 541 238 Q540 227 539 224 L111 224 Q119 155 166.5 112 Q214 69 287 69 Q399 69 456 157 L524 116 Z M451 295 Q445 356 399 397 Q353 438 285 438 Q218 438 171.5 399 Q125 360 113 295 L451 295 Z M424 622 Q424 620 407 604.5 Q390 589 359 576 Q328 563 285 563 Q242 563 211.5 576 Q181 589 164 604.5 Q147 620 147 622 L147 692 Q147 690 167 676.5 Q187 663 217.5 651 Q248 639 285 639 Q322 639 353 651 Q384 663 404 676.5 Q424 690 424 692 L424 622 Z " />
<glyph glyph-name="ecaron" unicode="&#x11b;" horiz-adv-x="564" d="M524 116 Q445 -10 285 -10 Q208 -10 148.5 24.5 Q89 59 56 119 Q23 179 23 253 Q23 325 56.5 385 Q90 445 150 479.5 Q210 514 285 514 Q362 514 420 480.5 Q478 447 510 390 Q542 333 542 264 Q542 249 541 238 Q540 227 539 224 L111 224 Q119 155 166.5 112 Q214 69 287 69 Q399 69 456 157 L524 116 Z M451 295 Q445 356 399 397 Q353 438 285 438 Q218 438 171.5 399 Q125 360 113 295 L451 295 Z M285 551 L150 620 L150 695 L285 635 L420 695 L420 620 L285 551 Z " />
<glyph glyph-name="ecircumflex" unicode="&#xea;" horiz-adv-x="564" d="M524 116 Q445 -10 285 -10 Q208 -10 148.5 24.5 Q89 59 56 119 Q23 179 23 253 Q23 325 56.5 385 Q90 445 150 479.5 Q210 514 285 514 Q362 514 420 480.5 Q478 447 510 390 Q542 333 542 264 Q542 249 541 238 Q540 227 539 224 L111 224 Q119 155 166.5 112 Q214 69 287 69 Q399 69 456 157 L524 116 Z M451 295 Q445 356 399 397 Q353 438 285 438 Q218 438 171.5 399 Q125 360 113 295 L451 295 Z M420 558 L285 618 L150 558 L150 633 L285 702 L420 633 L420 558 Z " />
<glyph glyph-name="edieresis" unicode="&#xeb;" horiz-adv-x="564" d="M524 116 Q445 -10 285 -10 Q208 -10 148.5 24.5 Q89 59 56 119 Q23 179 23 253 Q23 325 56.5 385 Q90 445 150 479.5 Q210 514 285 514 Q362 514 420 480.5 Q478 447 510 390 Q542 333 542 264 Q542 249 541 238 Q540 227 539 224 L111 224 Q119 155 166.5 112 Q214 69 287 69 Q399 69 456 157 L524 116 Z M451 295 Q445 356 399 397 Q353 438 285 438 Q218 438 171.5 399 Q125 360 113 295 L451 295 Z M165 597 L165 686 L252 686 L252 597 L165 597 Z M319 597 L319 686 L406 686 L406 597 L319 597 Z " />
<glyph glyph-name="edotaccent" unicode="&#x117;" horiz-adv-x="564" d="M524 116 Q445 -10 285 -10 Q208 -10 148.5 24.5 Q89 59 56 119 Q23 179 23 253 Q23 325 56.5 385 Q90 445 150 479.5 Q210 514 285 514 Q362 514 420 480.5 Q478 447 510 390 Q542 333 542 264 Q542 249 541 238 Q540 227 539 224 L111 224 Q119 155 166.5 112 Q214 69 287 69 Q399 69 456 157 L524 116 Z M451 295 Q445 356 399 397 Q353 438 285 438 Q218 438 171.5 399 Q125 360 113 295 L451 295 Z M242 597 L242 686 L329 686 L329 597 L242 597 Z " />
<glyph glyph-name="egrave" unicode="&#xe8;" horiz-adv-x="564" d="M524 116 Q445 -10 285 -10 Q208 -10 148.5 24.5 Q89 59 56 119 Q23 179 23 253 Q23 325 56.5 385 Q90 445 150 479.5 Q210 514 285 514 Q362 514 420 480.5 Q478 447 510 390 Q542 333 542 264 Q542 249 541 238 Q540 227 539 224 L111 224 Q119 155 166.5 112 Q214 69 287 69 Q399 69 456 157 L524 116 Z M451 295 Q445 356 399 397 Q353 438 285 438 Q218 438 171.5 399 Q125 360 113 295 L451 295 Z M390 570 L180 627 L180 709 L390 648 L390 570 Z " />
<glyph glyph-name="emacron" unicode="&#x113;" horiz-adv-x="564" d="M524 116 Q445 -10 285 -10 Q208 -10 148.5 24.5 Q89 59 56 119 Q23 179 23 253 Q23 325 56.5 385 Q90 445 150 479.5 Q210 514 285 514 Q362 514 420 480.5 Q478 447 510 390 Q542 333 542 264 Q542 249 541 238 Q540 227 539 224 L111 224 Q119 155 166.5 112 Q214 69 287 69 Q399 69 456 157 L524 116 Z M451 295 Q445 356 399 397 Q353 438 285 438 Q218 438 171.5 399 Q125 360 113 295 L451 295 Z M154 596 L154 674 L416 674 L416 596 L154 596 Z " />
<glyph glyph-name="eogonek" unicode="&#x119;" horiz-adv-x="564" d="M476 -129 Q474 -131 465.5 -135.5 Q457 -140 442 -144 Q427 -148 407 -148 Q362 -148 334.5 -125 Q307 -102 307 -65 Q307 -34 326 -7 Q313 -9 285 -9 Q208 -9 148.5 25.5 Q89 60 56 119.5 Q23 179 23 253 Q23 325 56.5 385 Q90 445 150 479.5 Q210 514 285 514 Q362 514 420 480.5 Q478 447 510 390 Q542 333 542 264 Q542 249 541 238 Q540 227 539 224 L111 224 Q119 155 166.5 112 Q214 69 287 69 Q399 69 456 157 L524 116 Q481 47 411 15 Q372 -12 372 -53 Q372 -93 420 -93 Q435 -93 447.5 -90 Q460 -87 467 -84 Q474 -81 476 -80 L476 -129 Z M451 295 Q445 356 399 397 Q353 438 285 438 Q218 438 171.5 399 Q125 360 113 295 L451 295 Z " />
<glyph glyph-name="f" unicode="f" horiz-adv-x="329" d="M268 609 Q184 609 184 526 L184 506 L309 506 L309 428 L184 428 L184 0 L97 0 L97 428 L20 428 L20 506 L97 506 L97 526 Q97 607 143 646 Q189 685 268 685 L308 685 L308 609 L268 609 Z " />
<glyph glyph-name="g" unicode="g" horiz-adv-x="578" d="M456 81 Q456 78 434 58 Q412 38 372.5 21 Q333 4 277 4 Q208 4 149.5 37.5 Q91 71 57 129.5 Q23 188 23 259 Q23 329 57 387.5 Q91 446 149.5 480 Q208 514 277 514 Q332 514 371.5 497.5 Q411 481 433.5 461.5 Q456 442 456 439 L456 506 L543 506 L543 43 Q543 -21 512.5 -73 Q482 -125 424 -155.5 Q366 -186 287 -186 Q126 -186 46 -61 L113 -19 Q170 -109 286 -109 Q367 -109 411.5 -72 Q456 -35 456 37 L456 81 Z M282 433 Q234 433 194 409.5 Q154 386 131 346 Q108 306 108 258 Q108 210 131 170 Q154 130 194 106.5 Q234 83 282 83 Q332 83 372.5 106 Q413 129 436 169 Q459 209 459 258 Q459 307 435.5 347 Q412 387 371.5 410 Q331 433 282 433 Z " />
<glyph glyph-name="gbreve" unicode="&#x11f;" horiz-adv-x="578" d="M456 81 Q456 78 434 58 Q412 38 372.5 21 Q333 4 277 4 Q208 4 149.5 37.5 Q91 71 57 129.5 Q23 188 23 259 Q23 329 57 387.5 Q91 446 149.5 480 Q208 514 277 514 Q332 514 371.5 497.5 Q411 481 433.5 461.5 Q456 442 456 439 L456 506 L543 506 L543 43 Q543 -21 512.5 -73 Q482 -125 424 -155.5 Q366 -186 287 -186 Q126 -186 46 -61 L113 -19 Q170 -109 286 -109 Q367 -109 411.5 -72 Q456 -35 456 37 L456 81 Z M282 433 Q234 433 194 409.5 Q154 386 131 346 Q108 306 108 258 Q108 210 131 170 Q154 130 194 106.5 Q234 83 282 83 Q332 83 372.5 106 Q413 129 436 169 Q459 209 459 258 Q459 307 435.5 347 Q412 387 371.5 410 Q331 433 282 433 Z M434 622 Q434 620 417 604.5 Q400 589 369 576 Q338 563 295 563 Q252 563 221.5 576 Q191 589 174 604.5 Q157 620 157 622 L157 692 Q157 690 177 676.5 Q197 663 227.5 651 Q258 639 295 639 Q332 639 363 651 Q394 663 414 676.5 Q434 690 434 692 L434 622 Z " />
<glyph glyph-name="gcircumflex" unicode="&#x11d;" horiz-adv-x="578" d="M456 81 Q456 78 434 58 Q412 38 372.5 21 Q333 4 277 4 Q208 4 149.5 37.5 Q91 71 57 129.5 Q23 188 23 259 Q23 329 57 387.5 Q91 446 149.5 480 Q208 514 277 514 Q332 514 371.5 497.5 Q411 481 433.5 461.5 Q456 442 456 439 L456 506 L543 506 L543 43 Q543 -21 512.5 -73 Q482 -125 424 -155.5 Q366 -186 287 -186 Q126 -186 46 -61 L113 -19 Q170 -109 286 -109 Q367 -109 411.5 -72 Q456 -35 456 37 L456 81 Z M282 433 Q234 433 194 409.5 Q154 386 131 346 Q108 306 108 258 Q108 210 131 170 Q154 130 194 106.5 Q234 83 282 83 Q332 83 372.5 106 Q413 129 436 169 Q459 209 459 258 Q459 307 435.5 347 Q412 387 371.5 410 Q331 433 282 433 Z M430 558 L295 618 L160 558 L160 633 L295 702 L430 633 L430 558 Z " />
<glyph glyph-name="gcommaaccent" unicode="&#x123;" horiz-adv-x="578" d="M332 662 L332 583 L249 583 L249 650 L276 733 L329 733 L306 662 L332 662 Z M456 81 Q456 78 434 58 Q412 38 372.5 21 Q333 4 277 4 Q208 4 149.5 37.5 Q91 71 57 129.5 Q23 188 23 259 Q23 329 57 387.5 Q91 446 149.5 480 Q208 514 277 514 Q332 514 371.5 497.5 Q411 481 433.5 461.5 Q456 442 456 439 L456 506 L543 506 L543 43 Q543 -21 512.5 -73 Q482 -125 424 -155.5 Q366 -186 287 -186 Q126 -186 46 -61 L113 -19 Q170 -109 286 -109 Q367 -109 411.5 -72 Q456 -35 456 37 L456 81 Z M282 433 Q234 433 194 409.5 Q154 386 131 346 Q108 306 108 258 Q108 210 131 170 Q154 130 194 106.5 Q234 83 282 83 Q332 83 372.5 106 Q413 129 436 169 Q459 209 459 258 Q459 307 435.5 347 Q412 387 371.5 410 Q331 433 282 433 Z " />
<glyph glyph-name="gdotaccent" unicode="&#x121;" horiz-adv-x="578" d="M456 81 Q456 78 434 58 Q412 38 372.5 21 Q333 4 277 4 Q208 4 149.5 37.5 Q91 71 57 129.5 Q23 188 23 259 Q23 329 57 387.5 Q91 446 149.5 480 Q208 514 277 514 Q332 514 371.5 497.5 Q411 481 433.5 461.5 Q456 442 456 439 L456 506 L543 506 L543 43 Q543 -21 512.5 -73 Q482 -125 424 -155.5 Q366 -186 287 -186 Q126 -186 46 -61 L113 -19 Q170 -109 286 -109 Q367 -109 411.5 -72 Q456 -35 456 37 L456 81 Z M282 433 Q234 433 194 409.5 Q154 386 131 346 Q108 306 108 258 Q108 210 131 170 Q154 130 194 106.5 Q234 83 282 83 Q332 83 372.5 106 Q413 129 436 169 Q459 209 459 258 Q459 307 435.5 347 Q412 387 371.5 410 Q331 433 282 433 Z M252 597 L252 686 L339 686 L339 597 L252 597 Z " />
<glyph glyph-name="h" unicode="h" horiz-adv-x="512" d="M122 442 Q122 445 141 463.5 Q160 482 195 498 Q230 514 281 514 Q370 514 423.5 458.5 Q477 403 477 310 L477 0 L390 0 L390 298 Q390 360 356.5 396.5 Q323 433 265 433 Q200 433 161 393 Q122 353 122 285 L122 0 L35 0 L35 685 L122 685 L122 442 Z " />
<glyph glyph-name="hbar" unicode="&#x127;" horiz-adv-x="512" d="M122 442 Q122 445 141 463.5 Q160 482 195 498 Q230 514 281 514 Q370 514 423.5 458.5 Q477 403 477 310 L477 0 L390 0 L390 298 Q390 360 356.5 396.5 Q323 433 265 433 Q200 433 161 393 Q122 353 122 285 L122 0 L35 0 L35 546 L0 546 L0 622 L35 622 L35 685 L122 685 L122 622 L272 622 L272 546 L122 546 L122 442 Z " />
<glyph glyph-name="hcircumflex" unicode="&#x125;" horiz-adv-x="512" d="M457 557 L322 618 L187 557 L187 632 L322 701 L457 632 L457 557 Z M122 442 Q122 445 141 463.5 Q160 482 195 498 Q230 514 281 514 Q370 514 423.5 458.5 Q477 403 477 310 L477 0 L390 0 L390 298 Q390 360 356.5 396.5 Q323 433 265 433 Q200 433 161 393 Q122 353 122 285 L122 0 L35 0 L35 685 L122 685 L122 442 Z " />
<glyph glyph-name="i" unicode="i" horiz-adv-x="158" d="M35 597 L35 685 L123 685 L123 597 L35 597 Z M35 0 L35 506 L123 506 L123 0 L35 0 Z " />
<glyph glyph-name="dotlessi" unicode="&#x131;" horiz-adv-x="158" d="M35 0 L35 506 L123 506 L123 0 L35 0 Z " />
<glyph glyph-name="iacute" unicode="&#xed;" horiz-adv-x="158" d="M35 0 L35 506 L123 506 L123 0 L35 0 Z M-26 570 L-26 648 L184 709 L184 627 L-26 570 Z " />
<glyph glyph-name="ibreve" unicode="&#x12d;" horiz-adv-x="158" d="M35 0 L35 506 L123 506 L123 0 L35 0 Z M218 622 Q218 620 201 604.5 Q184 589 153 576 Q122 563 79 563 Q36 563 5.5 576 Q-25 589 -42 604.5 Q-59 620 -59 622 L-59 692 Q-59 690 -39 676.5 Q-19 663 11.5 651 Q42 639 79 639 Q116 639 147 651 Q178 663 198 676.5 Q218 690 218 692 L218 622 Z " />
<glyph glyph-name="icircumflex" unicode="&#xee;" horiz-adv-x="158" d="M35 0 L35 506 L123 506 L123 0 L35 0 Z M214 558 L79 618 L-56 558 L-56 633 L79 702 L214 633 L214 558 Z " />
<glyph glyph-name="idieresis" unicode="&#xef;" horiz-adv-x="158" d="M35 0 L35 506 L123 506 L123 0 L35 0 Z M-41 597 L-41 686 L46 686 L46 597 L-41 597 Z M113 597 L113 686 L200 686 L200 597 L113 597 Z " />
<glyph glyph-name="igrave" unicode="&#xec;" horiz-adv-x="158" d="M35 0 L35 506 L123 506 L123 0 L35 0 Z M184 570 L-26 627 L-26 709 L184 648 L184 570 Z " />
<glyph glyph-name="ij" unicode="&#x133;" horiz-adv-x="315" d="M35 597 L35 685 L123 685 L123 597 L35 597 Z M193 597 L193 685 L280 685 L280 597 L193 597 Z M35 0 L35 506 L123 506 L123 0 L35 0 Z M280 6 Q280 -87 231.5 -130 Q183 -173 103 -173 L103 -94 Q193 -94 193 7 L193 506 L280 506 L280 6 Z " />
<glyph glyph-name="imacron" unicode="&#x12b;" horiz-adv-x="158" d="M35 0 L35 506 L123 506 L123 0 L35 0 Z M-52 596 L-52 674 L210 674 L210 596 L-52 596 Z " />
<glyph glyph-name="iogonek" unicode="&#x12f;" horiz-adv-x="158" d="M35 597 L35 685 L123 685 L123 597 L35 597 Z M131 0 Q98 -14 80.5 -36 Q63 -58 63 -84 Q63 -103 75.5 -113.5 Q88 -124 111 -124 Q126 -124 138 -121 Q150 -118 157 -115 Q164 -112 166 -111 L166 -160 Q164 -162 156 -166.5 Q148 -171 133 -175 Q118 -179 98 -179 Q53 -179 25 -156 Q-3 -133 -3 -96 Q-3 -63 17.5 -37.5 Q38 -12 69 0 L35 0 L35 506 L123 506 L123 15 L131 0 Z " />
<glyph glyph-name="itilde" unicode="&#x129;" horiz-adv-x="158" d="M35 0 L35 506 L123 506 L123 0 L35 0 Z M-66 630 Q-66 631 -54.5 642.5 Q-43 654 -24.5 663.5 Q-6 673 17 673 Q46 673 90 654 Q130 638 151 638 Q169 638 185 645.5 Q201 653 211 660.5 Q221 668 223 671 L223 608 Q223 607 211.5 595.5 Q200 584 181.5 574 Q163 564 140 564 Q112 564 66 583 Q24 600 6 600 Q-12 600 -28 592.5 Q-44 585 -54 577.5 Q-64 570 -66 567 L-66 630 Z " />
<glyph glyph-name="j" unicode="j" horiz-adv-x="158" d="M35 597 L35 685 L123 685 L123 597 L35 597 Z M123 6 Q123 -87 74 -130 Q25 -173 -55 -173 L-55 -94 Q35 -94 35 7 L35 506 L123 506 L123 6 Z " />
<glyph glyph-name="dotlessj" unicode="&#x237;" horiz-adv-x="158" d="M123 6 Q123 -87 74 -130 Q25 -173 -55 -173 L-55 -94 Q35 -94 35 7 L35 506 L123 506 L123 6 Z " />
<glyph glyph-name="jcircumflex" unicode="&#x135;" horiz-adv-x="158" d="M123 6 Q123 -87 74 -130 Q25 -173 -55 -173 L-55 -94 Q35 -94 35 7 L35 506 L123 506 L123 6 Z M214 558 L79 618 L-56 558 L-56 633 L79 702 L214 633 L214 558 Z " />
<glyph glyph-name="k" unicode="k" horiz-adv-x="467" d="M337 506 L446 506 L273 310 L450 0 L347 0 L208 241 L123 149 L123 0 L35 0 L35 685 L123 685 L123 260 L337 506 Z " />
<glyph glyph-name="kcommaaccent" unicode="&#x137;" horiz-adv-x="467" d="M337 506 L446 506 L273 310 L450 0 L347 0 L208 241 L123 149 L123 0 L35 0 L35 685 L123 685 L123 260 L337 506 Z M240 -202 L186 -202 L209 -131 L183 -131 L183 -52 L267 -52 L267 -118 L240 -202 Z " />
<glyph glyph-name="kgreenlandic" unicode="&#x138;" horiz-adv-x="467" d="M450 0 L347 0 L208 239 L123 147 L123 0 L35 0 L35 506 L123 506 L123 258 L337 506 L446 506 L273 307 L450 0 Z " />
<glyph glyph-name="l" unicode="l" horiz-adv-x="158" d="M35 0 L35 685 L123 685 L123 0 L35 0 Z " />
<glyph glyph-name="lacute" unicode="&#x13a;" horiz-adv-x="158" d="M35 0 L35 685 L123 685 L123 0 L35 0 Z M-26 734 L-26 812 L184 873 L184 791 L-26 734 Z " />
<glyph glyph-name="lcaron" unicode="&#x13e;" horiz-adv-x="276" d="M35 0 L35 685 L123 685 L123 0 L35 0 Z M230 514 L173 514 L198 594 L170 594 L170 685 L258 685 L258 609 L230 514 Z " />
<glyph glyph-name="lcommaaccent" unicode="&#x13c;" horiz-adv-x="158" d="M35 0 L35 685 L123 685 L123 0 L35 0 Z M94 -202 L40 -202 L63 -131 L37 -131 L37 -52 L121 -52 L121 -118 L94 -202 Z " />
<glyph glyph-name="ldot" unicode="&#x140;" horiz-adv-x="272" d="M35 0 L35 685 L123 685 L123 0 L35 0 Z M165 226 L165 321 L252 321 L252 226 L165 226 Z " />
<glyph glyph-name="lslash" unicode="&#x142;" horiz-adv-x="158" d="M123 381 L123 0 L35 0 L35 333 L2 315 L2 395 L35 413 L35 685 L123 685 L123 462 L156 480 L156 400 L123 381 Z " />
<glyph glyph-name="m" unicode="m" horiz-adv-x="826" d="M122 443 Q122 446 139.5 464 Q157 482 190.5 498 Q224 514 272 514 Q325 514 365 491.5 Q405 469 428 428 Q447 458 489 486 Q531 514 600 514 Q688 514 739.5 460 Q791 406 790 316 L790 0 L704 0 L704 305 Q704 364 673 398.5 Q642 433 589 433 Q529 433 492.5 396 Q456 359 456 296 L456 0 L370 0 L370 305 Q370 364 339 398.5 Q308 433 255 433 Q194 433 158 395 Q122 357 122 292 L122 0 L35 0 L35 506 L122 506 L122 443 Z " />
<glyph glyph-name="n" unicode="n" horiz-adv-x="512" d="M122 442 Q122 445 141 463.5 Q160 482 195 498 Q230 514 281 514 Q370 514 423.5 458.5 Q477 403 477 310 L477 0 L390 0 L390 298 Q390 360 356.5 396.5 Q323 433 265 433 Q200 433 161 393 Q122 353 122 285 L122 0 L35 0 L35 506 L122 506 L122 442 Z " />
<glyph glyph-name="nacute" unicode="&#x144;" horiz-adv-x="512" d="M122 442 Q122 445 141 463.5 Q160 482 195 498 Q230 514 281 514 Q370 514 423.5 458.5 Q477 403 477 310 L477 0 L390 0 L390 298 Q390 360 356.5 396.5 Q323 433 265 433 Q200 433 161 393 Q122 353 122 285 L122 0 L35 0 L35 506 L122 506 L122 442 Z M159 570 L159 648 L369 709 L369 627 L159 570 Z " />
<glyph glyph-name="napostrophe" unicode="&#x149;" horiz-adv-x="554" d="M64 535 L11 535 L34 606 L8 606 L8 685 L91 685 L91 619 L64 535 Z M164 442 Q164 445 183 463.5 Q202 482 237.5 498 Q273 514 323 514 Q412 514 465.5 458.5 Q519 403 519 310 L519 0 L432 0 L432 298 Q432 360 398.5 396.5 Q365 433 307 433 Q242 433 203.5 393.5 Q165 354 165 285 L165 0 L78 0 L78 506 L164 506 L164 442 Z " />
<glyph glyph-name="ncaron" unicode="&#x148;" horiz-adv-x="512" d="M122 442 Q122 445 141 463.5 Q160 482 195 498 Q230 514 281 514 Q370 514 423.5 458.5 Q477 403 477 310 L477 0 L390 0 L390 298 Q390 360 356.5 396.5 Q323 433 265 433 Q200 433 161 393 Q122 353 122 285 L122 0 L35 0 L35 506 L122 506 L122 442 Z M263 551 L128 620 L128 695 L263 635 L398 695 L398 620 L263 551 Z " />
<glyph glyph-name="ncommaaccent" unicode="&#x146;" horiz-adv-x="512" d="M122 442 Q122 445 141 463.5 Q160 482 195 498 Q230 514 281 514 Q370 514 423.5 458.5 Q477 403 477 310 L477 0 L390 0 L390 298 Q390 360 356.5 396.5 Q323 433 265 433 Q200 433 161 393 Q122 353 122 285 L122 0 L35 0 L35 506 L122 506 L122 442 Z M271 -202 L217 -202 L240 -131 L214 -131 L214 -52 L298 -52 L298 -118 L271 -202 Z " />
<glyph glyph-name="eng" unicode="&#x14b;" horiz-adv-x="512" d="M122 442 Q122 445 141 463.5 Q160 482 195 498 Q230 514 281 514 Q370 514 423.5 458.5 Q477 403 477 310 L477 6 Q477 -87 428.5 -130 Q380 -173 300 -173 L300 -94 Q390 -94 390 7 L390 298 Q390 360 356.5 396.5 Q323 433 265 433 Q200 433 161 393 Q122 353 122 285 L122 0 L35 0 L35 506 L122 506 L122 442 Z " />
<glyph glyph-name="ntilde" unicode="&#xf1;" horiz-adv-x="512" d="M122 442 Q122 445 141 463.5 Q160 482 195 498 Q230 514 281 514 Q370 514 423.5 458.5 Q477 403 477 310 L477 0 L390 0 L390 298 Q390 360 356.5 396.5 Q323 433 265 433 Q200 433 161 393 Q122 353 122 285 L122 0 L35 0 L35 506 L122 506 L122 442 Z M119 630 Q119 631 130.5 642.5 Q142 654 160.5 663.5 Q179 673 202 673 Q231 673 275 654 Q315 638 336 638 Q354 638 370 645.5 Q386 653 396 660.5 Q406 668 408 671 L408 608 Q408 607 396.5 595.5 Q385 584 366.5 574 Q348 564 325 564 Q297 564 251 583 Q209 600 191 600 Q173 600 157 592.5 Q141 585 131 577.5 Q121 570 119 567 L119 630 Z " />
<glyph glyph-name="o" unicode="o" horiz-adv-x="575" d="M288 514 Q362 514 422.5 479.5 Q483 445 517.5 385 Q552 325 552 253 Q552 180 517.5 120 Q483 60 422.5 25 Q362 -10 288 -10 Q213 -10 152.5 25 Q92 60 57.5 120 Q23 180 23 253 Q23 325 57.5 385 Q92 445 152.5 479.5 Q213 514 288 514 Z M288 434 Q238 434 197 410 Q156 386 133 344.5 Q110 303 110 252 Q110 201 132.5 159.5 Q155 118 195.5 94.5 Q236 71 286 71 Q336 71 377 94.5 Q418 118 441.5 159.5 Q465 201 465 252 Q465 303 442 344.5 Q419 386 378.5 410 Q338 434 288 434 Z " />
<glyph glyph-name="oacute" unicode="&#xf3;" horiz-adv-x="575" d="M288 514 Q362 514 422.5 479.5 Q483 445 517.5 385 Q552 325 552 253 Q552 180 517.5 120 Q483 60 422.5 25 Q362 -10 288 -10 Q213 -10 152.5 25 Q92 60 57.5 120 Q23 180 23 253 Q23 325 57.5 385 Q92 445 152.5 479.5 Q213 514 288 514 Z M288 434 Q238 434 197 410 Q156 386 133 344.5 Q110 303 110 252 Q110 201 132.5 159.5 Q155 118 195.5 94.5 Q236 71 286 71 Q336 71 377 94.5 Q418 118 441.5 159.5 Q465 201 465 252 Q465 303 442 344.5 Q419 386 378.5 410 Q338 434 288 434 Z M183 570 L183 648 L393 709 L393 627 L183 570 Z " />
<glyph glyph-name="obreve" unicode="&#x14f;" horiz-adv-x="575" d="M288 514 Q362 514 422.5 479.5 Q483 445 517.5 385 Q552 325 552 253 Q552 180 517.5 120 Q483 60 422.5 25 Q362 -10 288 -10 Q213 -10 152.5 25 Q92 60 57.5 120 Q23 180 23 253 Q23 325 57.5 385 Q92 445 152.5 479.5 Q213 514 288 514 Z M288 434 Q238 434 197 410 Q156 386 133 344.5 Q110 303 110 252 Q110 201 132.5 159.5 Q155 118 195.5 94.5 Q236 71 286 71 Q336 71 377 94.5 Q418 118 441.5 159.5 Q465 201 465 252 Q465 303 442 344.5 Q419 386 378.5 410 Q338 434 288 434 Z M427 622 Q427 620 410 604.5 Q393 589 362 576 Q331 563 288 563 Q245 563 214.5 576 Q184 589 167 604.5 Q150 620 150 622 L150 692 Q150 690 170 676.5 Q190 663 220.5 651 Q251 639 288 639 Q325 639 356 651 Q387 663 407 676.5 Q427 690 427 692 L427 622 Z " />
<glyph glyph-name="ocircumflex" unicode="&#xf4;" horiz-adv-x="575" d="M288 514 Q362 514 422.5 479.5 Q483 445 517.5 385 Q552 325 552 253 Q552 180 517.5 120 Q483 60 422.5 25 Q362 -10 288 -10 Q213 -10 152.5 25 Q92 60 57.5 120 Q23 180 23 253 Q23 325 57.5 385 Q92 445 152.5 479.5 Q213 514 288 514 Z M288 434 Q238 434 197 410 Q156 386 133 344.5 Q110 303 110 252 Q110 201 132.5 159.5 Q155 118 195.5 94.5 Q236 71 286 71 Q336 71 377 94.5 Q418 118 441.5 159.5 Q465 201 465 252 Q465 303 442 344.5 Q419 386 378.5 410 Q338 434 288 434 Z M423 558 L288 618 L153 558 L153 633 L288 702 L423 633 L423 558 Z " />
<glyph glyph-name="odieresis" unicode="&#xf6;" horiz-adv-x="575" d="M288 514 Q362 514 422.5 479.5 Q483 445 517.5 385 Q552 325 552 253 Q552 180 517.5 120 Q483 60 422.5 25 Q362 -10 288 -10 Q213 -10 152.5 25 Q92 60 57.5 120 Q23 180 23 253 Q23 325 57.5 385 Q92 445 152.5 479.5 Q213 514 288 514 Z M288 434 Q238 434 197 410 Q156 386 133 344.5 Q110 303 110 252 Q110 201 132.5 159.5 Q155 118 195.5 94.5 Q236 71 286 71 Q336 71 377 94.5 Q418 118 441.5 159.5 Q465 201 465 252 Q465 303 442 344.5 Q419 386 378.5 410 Q338 434 288 434 Z M168 597 L168 686 L255 686 L255 597 L168 597 Z M322 597 L322 686 L409 686 L409 597 L322 597 Z " />
<glyph glyph-name="ograve" unicode="&#xf2;" horiz-adv-x="575" d="M288 514 Q362 514 422.5 479.5 Q483 445 517.5 385 Q552 325 552 253 Q552 180 517.5 120 Q483 60 422.5 25 Q362 -10 288 -10 Q213 -10 152.5 25 Q92 60 57.5 120 Q23 180 23 253 Q23 325 57.5 385 Q92 445 152.5 479.5 Q213 514 288 514 Z M288 434 Q238 434 197 410 Q156 386 133 344.5 Q110 303 110 252 Q110 201 132.5 159.5 Q155 118 195.5 94.5 Q236 71 286 71 Q336 71 377 94.5 Q418 118 441.5 159.5 Q465 201 465 252 Q465 303 442 344.5 Q419 386 378.5 410 Q338 434 288 434 Z M393 570 L183 627 L183 709 L393 648 L393 570 Z " />
<glyph glyph-name="ohungarumlaut" unicode="&#x151;" horiz-adv-x="575" d="M288 514 Q362 514 422.5 479.5 Q483 445 517.5 385 Q552 325 552 253 Q552 180 517.5 120 Q483 60 422.5 25 Q362 -10 288 -10 Q213 -10 152.5 25 Q92 60 57.5 120 Q23 180 23 253 Q23 325 57.5 385 Q92 445 152.5 479.5 Q213 514 288 514 Z M288 434 Q238 434 197 410 Q156 386 133 344.5 Q110 303 110 252 Q110 201 132.5 159.5 Q155 118 195.5 94.5 Q236 71 286 71 Q336 71 377 94.5 Q418 118 441.5 159.5 Q465 201 465 252 Q465 303 442 344.5 Q419 386 378.5 410 Q338 434 288 434 Z M189 559 L237 706 L323 706 L271 559 L189 559 Z M320 559 L373 706 L458 706 L401 559 L320 559 Z " />
<glyph glyph-name="omacron" unicode="&#x14d;" horiz-adv-x="575" d="M288 514 Q362 514 422.5 479.5 Q483 445 517.5 385 Q552 325 552 253 Q552 180 517.5 120 Q483 60 422.5 25 Q362 -10 288 -10 Q213 -10 152.5 25 Q92 60 57.5 120 Q23 180 23 253 Q23 325 57.5 385 Q92 445 152.5 479.5 Q213 514 288 514 Z M288 434 Q238 434 197 410 Q156 386 133 344.5 Q110 303 110 252 Q110 201 132.5 159.5 Q155 118 195.5 94.5 Q236 71 286 71 Q336 71 377 94.5 Q418 118 441.5 159.5 Q465 201 465 252 Q465 303 442 344.5 Q419 386 378.5 410 Q338 434 288 434 Z M157 596 L157 674 L419 674 L419 596 L157 596 Z " />
<glyph glyph-name="oslash" unicode="&#xf8;" horiz-adv-x="575" d="M465 448 Q506 412 529 361.5 Q552 311 552 253 Q552 180 517.5 120 Q483 60 422.5 25.5 Q362 -9 288 -9 Q229 -9 179 12 L145 -40 L66 -40 L122 45 Q75 81 49 135 Q23 189 23 253 Q23 325 57.5 385 Q92 445 152.5 479.5 Q213 514 288 514 Q354 514 410 486 L450 546 L530 546 L465 448 Z M365 417 Q329 434 288 434 Q238 434 197 410 Q156 386 133 344.5 Q110 303 110 252 Q110 167 167 115 L365 417 Z M224 81 Q251 71 285 71 Q335 71 376.5 94.5 Q418 118 441.5 159.5 Q465 201 465 252 Q465 326 419 377 L224 81 Z " />
<glyph glyph-name="otilde" unicode="&#xf5;" horiz-adv-x="575" d="M288 514 Q362 514 422.5 479.5 Q483 445 517.5 385 Q552 325 552 253 Q552 180 517.5 120 Q483 60 422.5 25 Q362 -10 288 -10 Q213 -10 152.5 25 Q92 60 57.5 120 Q23 180 23 253 Q23 325 57.5 385 Q92 445 152.5 479.5 Q213 514 288 514 Z M288 434 Q238 434 197 410 Q156 386 133 344.5 Q110 303 110 252 Q110 201 132.5 159.5 Q155 118 195.5 94.5 Q236 71 286 71 Q336 71 377 94.5 Q418 118 441.5 159.5 Q465 201 465 252 Q465 303 442 344.5 Q419 386 378.5 410 Q338 434 288 434 Z M143 630 Q143 631 154.5 642.5 Q166 654 184.5 663.5 Q203 673 226 673 Q255 673 299 654 Q339 638 360 638 Q378 638 394 645.5 Q410 653 420 660.5 Q430 668 432 671 L432 608 Q432 607 420.5 595.5 Q409 584 390.5 574 Q372 564 349 564 Q321 564 275 583 Q233 600 215 600 Q197 600 181 592.5 Q165 585 155 577.5 Q145 570 143 567 L143 630 Z " />
<glyph glyph-name="oe" unicode="&#x153;" horiz-adv-x="1007" d="M967 116 Q888 -10 728 -10 Q654 -10 596.5 22.5 Q539 55 507 111 Q474 55 416.5 22.5 Q359 -10 288 -10 Q212 -10 151.5 25 Q91 60 57 120 Q23 180 23 253 Q23 325 57 385 Q91 445 151.5 479.5 Q212 514 288 514 Q360 514 417.5 481.5 Q475 449 508 392 Q540 448 597.5 481 Q655 514 728 514 Q804 514 862 480.5 Q920 447 952 390 Q984 333 984 264 Q984 249 983 238 Q982 227 981 224 L553 224 Q561 155 609 112 Q657 69 730 69 Q842 69 899 157 L967 116 Z M893 295 Q887 356 841.5 397 Q796 438 728 438 Q660 438 614 399 Q568 360 555 295 L893 295 Z M286 70 Q337 70 378 94 Q419 118 442 159.5 Q465 201 465 252 Q465 304 442 345.5 Q419 387 379 411 Q339 435 288 435 Q237 435 196.5 411 Q156 387 133 345.5 Q110 304 110 252 Q110 200 132.5 158.5 Q155 117 195 93.5 Q235 70 286 70 Z " />
<glyph glyph-name="p" unicode="p" horiz-adv-x="584" d="M123 437 Q123 440 146.5 459.5 Q170 479 210 496 Q250 513 304 513 Q374 513 433 478 Q492 443 527 383.5 Q562 324 562 252 Q562 180 527.5 120.5 Q493 61 433.5 26.5 Q374 -8 304 -8 Q249 -8 208.5 9 Q168 26 145.5 45.5 Q123 65 123 68 L123 -174 L35 -174 L35 506 L123 506 L123 437 Z M300 431 Q250 431 208.5 407 Q167 383 143.5 342 Q120 301 120 252 Q120 202 143.5 161 Q167 120 208 96.5 Q249 73 300 73 Q349 73 389.5 97 Q430 121 453 162 Q476 203 476 252 Q476 301 453 342 Q430 383 389.5 407 Q349 431 300 431 Z " />
<glyph glyph-name="thorn" unicode="&#xfe;" horiz-adv-x="584" d="M123 437 Q123 440 146.5 459.5 Q170 479 210 496 Q250 513 304 513 Q374 513 433 478 Q492 443 527 383.5 Q562 324 562 252 Q562 180 527.5 120.5 Q493 61 433.5 26.5 Q374 -8 304 -8 Q248 -8 208 9 Q168 26 145.5 45.5 Q123 65 123 68 L123 -174 L35 -174 L35 685 L123 685 L123 437 Z M300 431 Q250 431 208.5 407 Q167 383 143.5 342 Q120 301 120 252 Q120 202 143.5 161 Q167 120 208 96.5 Q249 73 300 73 Q349 73 389.5 97 Q430 121 453 162 Q476 203 476 252 Q476 301 453 342 Q430 383 389.5 407 Q349 431 300 431 Z " />
<glyph glyph-name="q" unicode="q" horiz-adv-x="584" d="M462 69 Q462 66 439 46 Q416 26 375.5 9 Q335 -8 280 -8 Q210 -8 151 26.5 Q92 61 57.5 120.5 Q23 180 23 252 Q23 324 57.5 383.5 Q92 443 151 478 Q210 513 280 513 Q336 513 376 496 Q416 479 439 459.5 Q462 440 462 437 L462 506 L549 506 L549 -174 L462 -174 L462 69 Z M285 431 Q236 431 195.5 407 Q155 383 132 342 Q109 301 109 252 Q109 203 132 162 Q155 121 195.5 97 Q236 73 285 73 Q335 73 376 96.5 Q417 120 440.5 161 Q464 202 464 252 Q464 301 440.5 342 Q417 383 376 407 Q335 431 285 431 Z " />
<glyph glyph-name="r" unicode="r" horiz-adv-x="307" d="M282 423 Q208 423 165.5 377.5 Q123 332 123 256 L123 0 L35 0 L35 506 L122 506 L122 422 Q122 426 141 449.5 Q160 473 195.5 493 Q231 513 282 513 L282 423 Z " />
<glyph glyph-name="racute" unicode="&#x155;" horiz-adv-x="307" d="M282 423 Q208 423 165.5 377.5 Q123 332 123 256 L123 0 L35 0 L35 506 L122 506 L122 422 Q122 426 141 449.5 Q160 473 195.5 493 Q231 513 282 513 L282 423 Z M50 570 L50 648 L260 709 L260 627 L50 570 Z " />
<glyph glyph-name="rcaron" unicode="&#x159;" horiz-adv-x="307" d="M282 423 Q208 423 165.5 377.5 Q123 332 123 256 L123 0 L35 0 L35 506 L122 506 L122 422 Q122 426 141 449.5 Q160 473 195.5 493 Q231 513 282 513 L282 423 Z M154 551 L19 620 L19 695 L154 635 L289 695 L289 620 L154 551 Z " />
<glyph glyph-name="rcommaaccent" unicode="&#x157;" horiz-adv-x="307" d="M282 423 Q208 423 165.5 377.5 Q123 332 123 256 L123 0 L35 0 L35 506 L122 506 L122 422 Q122 426 141 449.5 Q160 473 195.5 493 Q231 513 282 513 L282 423 Z M94 -202 L40 -202 L63 -131 L37 -131 L37 -52 L121 -52 L121 -118 L94 -202 Z " />
<glyph glyph-name="s" unicode="s" horiz-adv-x="475" d="M116 157 Q120 115 152.5 89 Q185 63 247 62 Q301 62 330 83 Q359 104 359 138 Q359 164 342 178.5 Q325 193 299.5 200 Q274 207 229 214 Q169 224 131 236 Q93 248 66.5 278 Q40 308 40 361 Q40 404 63.5 438.5 Q87 473 131 492.5 Q175 512 232 512 Q321 512 375.5 469 Q430 426 435 354 L346 354 Q343 390 317.5 415 Q292 440 235 440 Q187 440 158.5 422 Q130 404 130 371 Q130 346 147.5 331 Q165 316 191 309 Q217 302 263 294 Q325 283 362 271 Q399 259 426 230.5 Q453 202 453 151 Q453 75 395.5 33 Q338 -9 243 -9 Q147 -9 89 35.5 Q31 80 25 157 L116 157 Z " />
<glyph glyph-name="sacute" unicode="&#x15b;" horiz-adv-x="475" d="M116 157 Q120 115 152.5 89 Q185 63 247 62 Q301 62 330 83 Q359 104 359 138 Q359 164 342 178.5 Q325 193 299.5 200 Q274 207 229 214 Q169 224 131 236 Q93 248 66.5 278 Q40 308 40 361 Q40 404 63.5 438.5 Q87 473 131 492.5 Q175 512 232 512 Q321 512 375.5 469 Q430 426 435 354 L346 354 Q343 390 317.5 415 Q292 440 235 440 Q187 440 158.5 422 Q130 404 130 371 Q130 346 147.5 331 Q165 316 191 309 Q217 302 263 294 Q325 283 362 271 Q399 259 426 230.5 Q453 202 453 151 Q453 75 395.5 33 Q338 -9 243 -9 Q147 -9 89 35.5 Q31 80 25 157 L116 157 Z M133 570 L133 648 L343 709 L343 627 L133 570 Z " />
<glyph glyph-name="scaron" unicode="&#x161;" horiz-adv-x="475" d="M116 157 Q120 115 152.5 89 Q185 63 247 62 Q301 62 330 83 Q359 104 359 138 Q359 164 342 178.5 Q325 193 299.5 200 Q274 207 229 214 Q169 224 131 236 Q93 248 66.5 278 Q40 308 40 361 Q40 404 63.5 438.5 Q87 473 131 492.5 Q175 512 232 512 Q321 512 375.5 469 Q430 426 435 354 L346 354 Q343 390 317.5 415 Q292 440 235 440 Q187 440 158.5 422 Q130 404 130 371 Q130 346 147.5 331 Q165 316 191 309 Q217 302 263 294 Q325 283 362 271 Q399 259 426 230.5 Q453 202 453 151 Q453 75 395.5 33 Q338 -9 243 -9 Q147 -9 89 35.5 Q31 80 25 157 L116 157 Z M237 551 L102 620 L102 695 L237 635 L372 695 L372 620 L237 551 Z " />
<glyph glyph-name="scedilla" unicode="&#x15f;" horiz-adv-x="475" d="M346 354 Q337 440 234 440 Q187 440 158.5 421.5 Q130 403 130 371 Q130 346 147.5 331 Q165 316 191 309 Q217 302 263 294 Q324 283 361.5 271 Q399 259 425.5 230.5 Q452 202 452 150 Q452 79 401.5 38 Q351 -3 266 -8 L246 -46 Q285 -46 310 -68.5 Q335 -91 335 -127 Q335 -163 309 -187.5 Q283 -212 244 -212 Q205 -212 180 -189.5 Q155 -167 151 -129 L207 -129 Q213 -161 245 -161 Q261 -161 271 -151.5 Q281 -142 281 -127 Q281 -113 270.5 -103 Q260 -93 244 -93 L172 -93 L215 -7 Q131 -1 80.5 42.5 Q30 86 25 157 L116 157 Q120 115 152.5 89 Q185 63 247 62 Q301 62 330 83 Q359 104 359 138 Q359 164 342 178.5 Q325 193 299.5 200 Q274 207 229 214 Q169 224 131 236 Q93 248 66.5 278 Q40 308 40 361 Q40 404 63.5 438.5 Q87 473 131 492.5 Q175 512 232 512 Q321 512 375.5 469 Q430 426 435 354 L346 354 Z " />
<glyph glyph-name="scircumflex" unicode="&#x15d;" horiz-adv-x="475" d="M116 157 Q120 115 152.5 89 Q185 63 247 62 Q301 62 330 83 Q359 104 359 138 Q359 164 342 178.5 Q325 193 299.5 200 Q274 207 229 214 Q169 224 131 236 Q93 248 66.5 278 Q40 308 40 361 Q40 404 63.5 438.5 Q87 473 131 492.5 Q175 512 232 512 Q321 512 375.5 469 Q430 426 435 354 L346 354 Q343 390 317.5 415 Q292 440 235 440 Q187 440 158.5 422 Q130 404 130 371 Q130 346 147.5 331 Q165 316 191 309 Q217 302 263 294 Q325 283 362 271 Q399 259 426 230.5 Q453 202 453 151 Q453 75 395.5 33 Q338 -9 243 -9 Q147 -9 89 35.5 Q31 80 25 157 L116 157 Z M372 558 L237 618 L102 558 L102 633 L237 702 L372 633 L372 558 Z " />
<glyph glyph-name="scommaaccent" unicode="&#x219;" horiz-adv-x="475" d="M116 157 Q120 115 152.5 89 Q185 63 247 62 Q301 62 330 83 Q359 104 359 138 Q359 164 342 178.5 Q325 193 299.5 200 Q274 207 229 214 Q169 224 131 236 Q93 248 66.5 278 Q40 308 40 361 Q40 404 63.5 438.5 Q87 473 131 492.5 Q175 512 232 512 Q321 512 375.5 469 Q430 426 435 354 L346 354 Q343 390 317.5 415 Q292 440 235 440 Q187 440 158.5 422 Q130 404 130 371 Q130 346 147.5 331 Q165 316 191 309 Q217 302 263 294 Q325 283 362 271 Q399 259 426 230.5 Q453 202 453 151 Q453 75 395.5 33 Q338 -9 243 -9 Q147 -9 89 35.5 Q31 80 25 157 L116 157 Z M262 -202 L208 -202 L231 -131 L205 -131 L205 -52 L289 -52 L289 -118 L262 -202 Z " />
<glyph glyph-name="germandbls" unicode="&#xdf;" horiz-adv-x="478" d="M35 497 Q35 550 61 593 Q87 636 132 660.5 Q177 685 231 685 Q285 685 328.5 662.5 Q372 640 397 599.5 Q422 559 422 507 Q422 463 404.5 431.5 Q387 400 365 381 Q343 362 343 365 Q343 369 373.5 349 Q404 329 428.5 292 Q453 255 453 199 Q453 141 425.5 96 Q398 51 350 25.5 Q302 0 242 0 L191 0 L191 78 L241 78 Q296 78 331 112.5 Q366 147 366 200 Q366 253 332 286.5 Q298 320 243 319 L191 319 L191 398 L232 398 Q277 398 307.5 429.5 Q338 461 338 505 Q338 550 308 578.5 Q278 607 232 607 Q184 607 152.5 576 Q121 545 121 496 L121 0 L35 0 L35 497 Z " />
<glyph glyph-name="schwa" unicode="&#x259;" horiz-adv-x="564" d="M40 389 Q119 514 279 514 Q356 514 415.5 479.5 Q475 445 508 385.5 Q541 326 541 252 Q541 180 507.5 120 Q474 60 414 25 Q354 -10 279 -10 Q203 -10 144.5 23.5 Q86 57 54 114.5 Q22 172 22 241 Q22 256 23 267 Q24 278 25 281 L453 281 Q445 350 397.5 393 Q350 436 277 436 Q166 436 109 348 L40 389 Z M113 209 Q119 149 165 107.5 Q211 66 279 66 Q346 66 392.5 105 Q439 144 451 210 L113 209 Z " />
<glyph glyph-name="t" unicode="t" horiz-adv-x="341" d="M316 506 L316 428 L182 428 L182 163 Q182 78 268 78 L316 78 L316 0 L267 0 Q188 0 141.5 40.5 Q95 81 95 163 L95 428 L20 428 L20 506 L95 506 L95 645 L182 645 L182 506 L316 506 Z " />
<glyph glyph-name="tbar" unicode="&#x167;" horiz-adv-x="341" d="M182 319 L316 319 L316 240 L182 240 L182 163 Q182 78 268 78 L316 78 L316 0 L267 0 Q188 0 141.5 40.5 Q95 81 95 163 L95 240 L20 240 L20 319 L95 319 L95 428 L20 428 L20 506 L95 506 L95 645 L182 645 L182 506 L316 506 L316 428 L182 428 L182 319 Z " />
<glyph glyph-name="tcaron" unicode="&#x165;" horiz-adv-x="341" d="M286 548 L232 548 L255 614 L229 614 L229 685 L313 685 L313 625 L286 548 Z M316 506 L316 428 L182 428 L182 163 Q182 78 268 78 L316 78 L316 0 L267 0 Q188 0 141.5 40.5 Q95 81 95 163 L95 428 L20 428 L20 506 L95 506 L95 645 L182 645 L182 506 L316 506 Z " />
<glyph glyph-name="tcedilla" unicode="&#x163;" horiz-adv-x="341" d="M181 163 Q181 77 267 77 L315 77 L315 0 L267 0 Q254 0 230 2 L210 -36 Q249 -36 274 -59 Q299 -82 299 -118 Q299 -154 273 -178.5 Q247 -203 208 -203 Q169 -203 144 -180 Q119 -157 115 -120 L171 -120 Q177 -152 209 -152 Q225 -152 235 -142.5 Q245 -133 245 -118 Q245 -103 234.5 -93.5 Q224 -84 208 -84 L136 -84 L185 14 Q95 49 95 163 L95 428 L20 428 L20 506 L95 506 L95 645 L182 645 L182 506 L316 506 L316 428 L181 427 L181 163 Z " />
<glyph glyph-name="uni021B" unicode="&#x21b;" horiz-adv-x="341" d="M316 506 L316 428 L182 428 L182 163 Q182 78 268 78 L316 78 L316 0 L267 0 Q188 0 141.5 40.5 Q95 81 95 163 L95 428 L20 428 L20 506 L95 506 L95 645 L182 645 L182 506 L316 506 Z M225 -193 L171 -193 L194 -122 L168 -122 L168 -43 L252 -43 L252 -109 L225 -193 Z " />
<glyph glyph-name="u" unicode="u" horiz-adv-x="512" d="M390 0 L390 64 Q390 61 371 42 Q352 23 317 7 Q282 -9 231 -9 Q142 -9 88.5 47 Q35 103 35 196 L35 506 L122 506 L122 208 Q122 146 155.5 109.5 Q189 73 247 73 Q312 73 351 113 Q390 153 390 221 L390 506 L477 506 L477 0 L390 0 Z " />
<glyph glyph-name="uacute" unicode="&#xfa;" horiz-adv-x="512" d="M390 0 L390 64 Q390 61 371 42 Q352 23 317 7 Q282 -9 231 -9 Q142 -9 88.5 47 Q35 103 35 196 L35 506 L122 506 L122 208 Q122 146 155.5 109.5 Q189 73 247 73 Q312 73 351 113 Q390 153 390 221 L390 506 L477 506 L477 0 L390 0 Z M152 570 L152 648 L362 709 L362 627 L152 570 Z " />
<glyph glyph-name="ubreve" unicode="&#x16d;" horiz-adv-x="512" d="M390 0 L390 64 Q390 61 371 42 Q352 23 317 7 Q282 -9 231 -9 Q142 -9 88.5 47 Q35 103 35 196 L35 506 L122 506 L122 208 Q122 146 155.5 109.5 Q189 73 247 73 Q312 73 351 113 Q390 153 390 221 L390 506 L477 506 L477 0 L390 0 Z M395 622 Q395 620 378 604.5 Q361 589 330 576 Q299 563 256 563 Q213 563 182.5 576 Q152 589 135 604.5 Q118 620 118 622 L118 692 Q118 690 138 676.5 Q158 663 188.5 651 Q219 639 256 639 Q293 639 324 651 Q355 663 375 676.5 Q395 690 395 692 L395 622 Z " />
<glyph glyph-name="ucircumflex" unicode="&#xfb;" horiz-adv-x="512" d="M390 0 L390 64 Q390 61 371 42 Q352 23 317 7 Q282 -9 231 -9 Q142 -9 88.5 47 Q35 103 35 196 L35 506 L122 506 L122 208 Q122 146 155.5 109.5 Q189 73 247 73 Q312 73 351 113 Q390 153 390 221 L390 506 L477 506 L477 0 L390 0 Z M391 558 L256 618 L121 558 L121 633 L256 702 L391 633 L391 558 Z " />
<glyph glyph-name="udieresis" unicode="&#xfc;" horiz-adv-x="512" d="M390 0 L390 64 Q390 61 371 42 Q352 23 317 7 Q282 -9 231 -9 Q142 -9 88.5 47 Q35 103 35 196 L35 506 L122 506 L122 208 Q122 146 155.5 109.5 Q189 73 247 73 Q312 73 351 113 Q390 153 390 221 L390 506 L477 506 L477 0 L390 0 Z M136 597 L136 686 L223 686 L223 597 L136 597 Z M290 597 L290 686 L377 686 L377 597 L290 597 Z " />
<glyph glyph-name="ugrave" unicode="&#xf9;" horiz-adv-x="512" d="M390 0 L390 64 Q390 61 371 42 Q352 23 317 7 Q282 -9 231 -9 Q142 -9 88.5 47 Q35 103 35 196 L35 506 L122 506 L122 208 Q122 146 155.5 109.5 Q189 73 247 73 Q312 73 351 113 Q390 153 390 221 L390 506 L477 506 L477 0 L390 0 Z M362 570 L152 627 L152 709 L362 648 L362 570 Z " />
<glyph glyph-name="uhungarumlaut" unicode="&#x171;" horiz-adv-x="512" d="M390 0 L390 64 Q390 61 371 42 Q352 23 317 7 Q282 -9 231 -9 Q142 -9 88.5 47 Q35 103 35 196 L35 506 L122 506 L122 208 Q122 146 155.5 109.5 Q189 73 247 73 Q312 73 351 113 Q390 153 390 221 L390 506 L477 506 L477 0 L390 0 Z M157 559 L205 706 L291 706 L239 559 L157 559 Z M288 559 L341 706 L426 706 L369 559 L288 559 Z " />
<glyph glyph-name="umacron" unicode="&#x16b;" horiz-adv-x="512" d="M390 0 L390 64 Q390 61 371 42 Q352 23 317 7 Q282 -9 231 -9 Q142 -9 88.5 47 Q35 103 35 196 L35 506 L122 506 L122 208 Q122 146 155.5 109.5 Q189 73 247 73 Q312 73 351 113 Q390 153 390 221 L390 506 L477 506 L477 0 L390 0 Z M125 596 L125 674 L387 674 L387 596 L125 596 Z " />
<glyph glyph-name="uogonek" unicode="&#x173;" horiz-adv-x="512" d="M476 0 Q443 -14 425.5 -36.5 Q408 -59 408 -84 Q408 -103 421 -113.5 Q434 -124 456 -124 Q471 -124 483.5 -121 Q496 -118 503 -115 Q510 -112 512 -111 L512 -160 Q510 -162 501.5 -166.5 Q493 -171 478 -175 Q463 -179 443 -179 Q398 -179 370.5 -156 Q343 -133 343 -96 Q343 -63 363.5 -37.5 Q384 -12 415 0 L390 0 L390 64 Q390 61 371 42 Q352 23 317 7 Q282 -9 231 -9 Q142 -9 88.5 47 Q35 103 35 196 L35 506 L122 506 L122 208 Q122 146 155.5 109.5 Q189 73 247 73 Q312 73 351 113 Q390 153 390 221 L390 506 L477 506 L476 0 Z " />
<glyph glyph-name="uring" unicode="&#x16f;" horiz-adv-x="512" d="M390 0 L390 64 Q390 61 371 42 Q352 23 317 7 Q282 -9 231 -9 Q142 -9 88.5 47 Q35 103 35 196 L35 506 L122 506 L122 208 Q122 146 155.5 109.5 Q189 73 247 73 Q312 73 351 113 Q390 153 390 221 L390 506 L477 506 L477 0 L390 0 Z M257 742 Q298 742 326 715 Q354 688 354 648 Q354 608 326 580.5 Q298 553 257 553 Q216 553 188 580.5 Q160 608 160 648 Q160 688 188 715 Q216 742 257 742 Z M257 692 Q238 692 225.5 679.5 Q213 667 213 648 Q213 629 225.5 616 Q238 603 257 603 Q276 603 288.5 616 Q301 629 301 648 Q301 667 288.5 679.5 Q276 692 257 692 Z " />
<glyph glyph-name="utilde" unicode="&#x169;" horiz-adv-x="512" d="M390 0 L390 64 Q390 61 371 42 Q352 23 317 7 Q282 -9 231 -9 Q142 -9 88.5 47 Q35 103 35 196 L35 506 L122 506 L122 208 Q122 146 155.5 109.5 Q189 73 247 73 Q312 73 351 113 Q390 153 390 221 L390 506 L477 506 L477 0 L390 0 Z M112 630 Q112 631 123.5 642.5 Q135 654 153.5 663.5 Q172 673 195 673 Q224 673 268 654 Q308 638 329 638 Q347 638 363 645.5 Q379 653 389 660.5 Q399 668 401 671 L401 608 Q401 607 389.5 595.5 Q378 584 359.5 574 Q341 564 318 564 Q290 564 244 583 Q202 600 184 600 Q166 600 150 592.5 Q134 585 124 577.5 Q114 570 112 567 L112 630 Z " />
<glyph glyph-name="v" unicode="v" horiz-adv-x="498" d="M191 0 L13 506 L110 506 L252 87 L393 506 L485 506 L307 0 L191 0 Z " />
<glyph glyph-name="w" unicode="w" horiz-adv-x="758" d="M482 0 L378 370 L267 0 L152 0 L15 506 L107 506 L212 100 L332 506 L430 506 L542 100 L655 506 L743 506 L598 0 L482 0 Z " />
<glyph glyph-name="wacute" unicode="&#x1e83;" horiz-adv-x="758" d="M482 0 L378 370 L267 0 L152 0 L15 506 L107 506 L212 100 L332 506 L430 506 L542 100 L655 506 L743 506 L598 0 L482 0 Z M275 570 L275 648 L485 709 L485 627 L275 570 Z " />
<glyph glyph-name="wcircumflex" unicode="&#x175;" horiz-adv-x="758" d="M482 0 L378 370 L267 0 L152 0 L15 506 L107 506 L212 100 L332 506 L430 506 L542 100 L655 506 L743 506 L598 0 L482 0 Z M514 558 L379 618 L244 558 L244 633 L379 702 L514 633 L514 558 Z " />
<glyph glyph-name="wdieresis" unicode="&#x1e85;" horiz-adv-x="758" d="M482 0 L378 370 L267 0 L152 0 L15 506 L107 506 L212 100 L332 506 L430 506 L542 100 L655 506 L743 506 L598 0 L482 0 Z M259 597 L259 686 L346 686 L346 597 L259 597 Z M413 597 L413 686 L500 686 L500 597 L413 597 Z " />
<glyph glyph-name="wgrave" unicode="&#x1e81;" horiz-adv-x="758" d="M482 0 L378 370 L267 0 L152 0 L15 506 L107 506 L212 100 L332 506 L430 506 L542 100 L655 506 L743 506 L598 0 L482 0 Z M485 570 L275 627 L275 709 L485 648 L485 570 Z " />
<glyph glyph-name="x" unicode="x" horiz-adv-x="495" d="M483 0 L377 0 L248 194 L118 0 L13 0 L190 259 L23 506 L129 506 L248 326 L367 506 L473 506 L305 261 L483 0 Z " />
<glyph glyph-name="y" unicode="y" horiz-adv-x="497" d="M305 14 Q270 -86 216.5 -130 Q163 -174 77 -174 L54 -174 L54 -94 L77 -94 Q125 -94 158 -69.5 Q191 -45 214 9 L12 506 L110 506 L259 123 L393 506 L484 505 L305 14 Z " />
<glyph glyph-name="yacute" unicode="&#xfd;" horiz-adv-x="497" d="M305 14 Q270 -86 216.5 -130 Q163 -174 77 -174 L54 -174 L54 -94 L77 -94 Q125 -94 158 -69.5 Q191 -45 214 9 L12 506 L110 506 L259 123 L393 506 L484 505 L305 14 Z M145 570 L145 648 L355 709 L355 627 L145 570 Z " />
<glyph glyph-name="ycircumflex" unicode="&#x177;" horiz-adv-x="497" d="M305 14 Q270 -86 216.5 -130 Q163 -174 77 -174 L54 -174 L54 -94 L77 -94 Q125 -94 158 -69.5 Q191 -45 214 9 L12 506 L110 506 L259 123 L393 506 L484 505 L305 14 Z M385 558 L250 618 L115 558 L115 633 L250 702 L385 633 L385 558 Z " />
<glyph glyph-name="ydieresis" unicode="&#xff;" horiz-adv-x="497" d="M305 14 Q270 -86 216.5 -130 Q163 -174 77 -174 L54 -174 L54 -94 L77 -94 Q125 -94 158 -69.5 Q191 -45 214 9 L12 506 L110 506 L259 123 L393 506 L484 505 L305 14 Z M130 597 L130 686 L217 686 L217 597 L130 597 Z M284 597 L284 686 L371 686 L371 597 L284 597 Z " />
<glyph glyph-name="ygrave" unicode="&#x1ef3;" horiz-adv-x="497" d="M305 14 Q270 -86 216.5 -130 Q163 -174 77 -174 L54 -174 L54 -94 L77 -94 Q125 -94 158 -69.5 Q191 -45 214 9 L12 506 L110 506 L259 123 L393 506 L484 505 L305 14 Z M355 570 L145 627 L145 709 L355 648 L355 570 Z " />
<glyph glyph-name="z" unicode="z" horiz-adv-x="474" d="M146 78 L446 78 L446 0 L28 0 L28 73 L319 428 L34 428 L34 506 L437 506 L437 433 L146 78 Z " />
<glyph glyph-name="zacute" unicode="&#x17a;" horiz-adv-x="474" d="M146 78 L446 78 L446 0 L28 0 L28 73 L319 428 L34 428 L34 506 L437 506 L437 433 L146 78 Z M134 570 L134 648 L344 709 L344 627 L134 570 Z " />
<glyph glyph-name="zcaron" unicode="&#x17e;" horiz-adv-x="474" d="M146 78 L446 78 L446 0 L28 0 L28 73 L319 428 L34 428 L34 506 L437 506 L437 433 L146 78 Z M238 551 L103 620 L103 695 L238 635 L373 695 L373 620 L238 551 Z " />
<glyph glyph-name="zdotaccent" unicode="&#x17c;" horiz-adv-x="474" d="M146 78 L446 78 L446 0 L28 0 L28 73 L319 428 L34 428 L34 506 L437 506 L437 433 L146 78 Z M195 597 L195 686 L282 686 L282 597 L195 597 Z " />
<glyph glyph-name="ordfeminine" unicode="&#xaa;" horiz-adv-x="392" d="M289 395 Q277 381 249.5 369.5 Q222 358 192 358 Q145 358 106.5 379.5 Q68 401 46.5 438.5 Q25 476 25 523 Q25 570 46.5 608 Q68 646 106.5 667.5 Q145 689 192 689 Q224 689 250.5 677.5 Q277 666 289 652 L289 685 L364 685 L364 362 L289 362 L289 395 Z M196 621 Q154 621 127 593.5 Q100 566 100 523 Q100 480 126.5 452.5 Q153 425 195 425 Q238 425 265 452.5 Q292 480 292 523 Q292 566 265 593.5 Q238 621 196 621 Z " />
<glyph glyph-name="ordmasculine" unicode="&#xba;" horiz-adv-x="391" d="M195 691 Q244 691 283 669 Q322 647 344 608.5 Q366 570 366 523 Q366 477 344 438.5 Q322 400 283 378 Q244 356 195 356 Q146 356 107.5 378 Q69 400 47 438.5 Q25 477 25 523 Q25 570 47 608.5 Q69 647 107.5 669 Q146 691 195 691 Z M195 622 Q153 622 126.5 594 Q100 566 100 523 Q100 481 126 453 Q152 425 194 425 Q236 425 263.5 453 Q291 481 291 523 Q291 566 264 594 Q237 622 195 622 Z " />
<glyph glyph-name="zero" unicode="0" horiz-adv-x="512" d="M33 416 Q33 476 61.5 526 Q90 576 141 604.5 Q192 633 256 633 Q320 633 371 604.5 Q422 576 450.5 526 Q479 476 479 416 L479 208 Q479 147 450.5 97 Q422 47 371 18.5 Q320 -10 256 -10 Q192 -10 141 18.5 Q90 47 61.5 97 Q33 147 33 208 L33 416 Z M395 416 Q395 476 355.5 515 Q316 554 256 554 Q196 554 156.5 515 Q117 476 117 416 L117 208 Q117 147 156.5 108 Q196 69 256 69 Q316 69 355.5 108 Q395 147 395 208 L395 416 Z " />
<glyph glyph-name="one" unicode="1" horiz-adv-x="224" d="M102 0 L102 545 L28 545 L28 626 L189 626 L189 0 L102 0 Z " />
<glyph glyph-name="two" unicode="2" horiz-adv-x="485" d="M25 506 Q104 634 246 634 Q308 634 355 608.5 Q402 583 428 539 Q454 495 454 442 Q454 372 423 324 Q392 276 329 224 L156 76 L457 76 L457 0 L34 0 L34 78 L275 282 Q324 323 345.5 356 Q367 389 367 440 Q367 491 333.5 522.5 Q300 554 245 554 Q191 554 156.5 531 Q122 508 95 463 L25 506 Z " />
<glyph glyph-name="three" unicode="3" horiz-adv-x="497" d="M279 413 Q366 405 417.5 351.5 Q469 298 469 213 Q469 151 440.5 100.5 Q412 50 360.5 21 Q309 -8 242 -8 Q95 -8 23 121 L95 164 Q120 120 154 96 Q188 72 242 72 Q306 72 345 110.5 Q384 149 384 211 Q384 273 346.5 307.5 Q309 342 243 342 Q197 342 161 318 L122 376 L314 549 L59 549 L59 627 L435 627 L434 552 L279 413 Z " />
<glyph glyph-name="four" unicode="4" horiz-adv-x="508" d="M484 214 L484 136 L414 136 L414 0 L329 0 L329 136 L24 136 L24 214 L316 628 L414 628 L414 214 L484 214 Z M329 214 L329 508 L122 214 L329 214 Z " />
<glyph glyph-name="five" unicode="5" horiz-adv-x="497" d="M168 546 L135 380 Q135 381 152 392 Q169 403 196.5 412.5 Q224 422 257 422 Q321 422 369 396 Q417 370 443.5 323 Q470 276 470 214 Q470 152 441.5 101 Q413 50 361.5 21 Q310 -8 243 -8 Q96 -8 24 121 L95 163 Q121 119 155.5 95.5 Q190 72 243 72 Q307 72 346 110.5 Q385 149 385 212 Q385 275 348 310.5 Q311 346 246 346 Q195 346 166 323 Q137 300 116 269 L43 294 L107 627 L425 627 L425 546 L168 546 Z " />
<glyph glyph-name="six" unicode="6" horiz-adv-x="505" d="M197 422 Q202 424 221.5 428.5 Q241 433 263 433 Q325 433 374.5 404.5 Q424 376 452 326 Q480 276 480 214 Q480 153 450.5 101.5 Q421 50 369.5 20.5 Q318 -9 254 -9 Q189 -9 137.5 20 Q86 49 57 100.5 Q28 152 28 215 Q28 291 68 356 L230 627 L323 627 L197 422 Z M254 357 Q192 357 151 315.5 Q110 274 110 212 Q110 150 151 109 Q192 68 254 68 Q316 68 357 109 Q398 150 398 212 Q398 274 357 315.5 Q316 357 254 357 Z " />
<glyph glyph-name="seven" unicode="7" horiz-adv-x="454" d="M182 0 L90 0 L340 544 L23 544 L23 625 L432 625 L432 547 L182 0 Z " />
<glyph glyph-name="eight" unicode="8" horiz-adv-x="486" d="M353 348 Q398 323 425 281 Q452 239 452 188 Q452 133 424.5 88 Q397 43 348.5 16.5 Q300 -10 241 -10 Q182 -10 133.5 15.5 Q85 41 57.5 86 Q30 131 30 188 Q30 239 57 281 Q84 323 129 348 Q67 394 67 471 Q67 517 89.5 554 Q112 591 152 612 Q192 633 241 633 Q291 633 331 611.5 Q371 590 393.5 553 Q416 516 416 471 Q416 393 353 348 Z M241 564 Q200 564 173 537.5 Q146 511 146 471 Q146 432 173 406 Q200 380 241 380 Q283 380 309.5 406 Q336 432 336 471 Q336 511 309 537.5 Q282 564 241 564 Z M241 62 Q297 62 333.5 97 Q370 132 370 187 Q370 239 333 274 Q296 309 241 309 Q186 309 149 274 Q112 239 112 187 Q112 132 148.5 97 Q185 62 241 62 Z " />
<glyph glyph-name="nine" unicode="9" horiz-adv-x="505" d="M308 203 Q303 201 283.5 196.5 Q264 192 242 192 Q180 192 130.5 220.5 Q81 249 53 299.5 Q25 350 25 412 Q25 473 54.5 524 Q84 575 135.5 604.5 Q187 634 251 634 Q316 634 367.5 605.5 Q419 577 448 526.5 Q477 476 477 412 Q477 336 437 269 L275 0 L182 0 L308 203 Z M251 557 Q189 557 148 516 Q107 475 107 413 Q107 351 148 309.5 Q189 268 251 268 Q313 268 354 309.5 Q395 351 395 413 Q395 475 354 516 Q313 557 251 557 Z " />
<glyph glyph-name="fraction" unicode="&#x2044;" horiz-adv-x="20" d="M-173 0 L107 630 L193 630 L-87 0 L-173 0 Z " />
<glyph glyph-name="uni215F" unicode="&#x215f;" horiz-adv-x="344" d="M108 0 L388 630 L474 630 L194 0 L108 0 Z M89 260 L89 565 L45 565 L45 630 L162 630 L162 260 L89 260 Z " />
<glyph glyph-name="onehalf" unicode="&#xbd;" horiz-adv-x="686" d="M111 0 L391 630 L477 630 L197 0 L111 0 Z M89 260 L89 565 L45 565 L45 630 L162 630 L162 260 L89 260 Z M375 290 Q427 377 520 377 Q580 377 617 343 Q654 309 654 259 Q654 219 634 190 Q614 161 576 132 L492 63 L656 63 L656 0 L384 0 L384 59 L531 179 Q558 202 569.5 218 Q581 234 581 258 Q581 282 564 297 Q547 312 519 312 Q488 312 468.5 297.5 Q449 283 433 256 L375 290 Z " />
<glyph glyph-name="uni2153" unicode="&#x2153;" horiz-adv-x="701" d="M116 0 L396 630 L483 630 L203 0 L116 0 Z M89 260 L89 565 L45 565 L45 630 L162 630 L162 260 L89 260 Z M567 243 Q616 235 643.5 204.5 Q671 174 671 126 Q671 68 631 31 Q591 -6 527 -6 Q431 -6 385 75 L447 106 Q475 56 527 56 Q560 56 580 75 Q600 94 600 124 Q600 155 580.5 172.5 Q561 190 528 190 Q515 190 503.5 186 Q492 182 485.5 177.5 Q479 173 477 172 L444 216 L556 311 L411 311 L411 372 L651 372 L651 316 L567 243 Z " />
<glyph glyph-name="uni2154" unicode="&#x2154;" horiz-adv-x="777" d="M26 550 Q78 636 172 636 Q232 636 269 602.5 Q306 569 306 519 Q306 479 286 450.5 Q266 422 228 391 L144 322 L307 322 L307 260 L35 260 L35 318 L182 439 Q208 460 220 476.5 Q232 493 232 518 Q232 541 215 556.5 Q198 572 170 572 Q139 572 120 558 Q101 544 84 516 L26 550 Z M217 0 L497 630 L584 630 L304 0 L217 0 Z M650 243 Q699 235 726.5 204.5 Q754 174 754 126 Q754 68 714 31 Q674 -6 610 -6 Q514 -6 468 75 L530 106 Q558 56 610 56 Q643 56 663 75 Q683 94 683 124 Q683 155 663.5 172.5 Q644 190 611 190 Q599 190 587.5 186 Q576 182 569 177.5 Q562 173 560 172 L527 216 L639 311 L494 311 L494 372 L734 372 L734 316 L650 243 Z " />
<glyph glyph-name="onequarter" unicode="&#xbc;" horiz-adv-x="674" d="M122 0 L402 630 L489 630 L209 0 L122 0 Z M89 260 L89 565 L45 565 L45 630 L162 630 L162 260 L89 260 Z M644 137 L644 74 L602 74 L602 0 L531 0 L531 74 L350 74 L350 133 L526 371 L602 371 L602 137 L644 137 Z M531 137 L531 270 L432 137 L531 137 Z " />
<glyph glyph-name="threequarters" unicode="&#xbe;" horiz-adv-x="751" d="M210 501 Q259 493 286.5 463 Q314 433 314 385 Q314 327 274 290 Q234 253 170 253 Q74 253 28 334 L90 365 Q118 315 170 315 Q203 315 223 334 Q243 353 243 383 Q243 414 223.5 431 Q204 448 171 448 Q158 448 146.5 444 Q135 440 128.5 435.5 Q122 431 120 430 L87 475 L199 570 L54 570 L54 630 L294 630 L294 574 L210 501 Z M207 0 L487 630 L573 630 L293 0 L207 0 Z M721 137 L721 74 L679 74 L679 0 L608 0 L608 74 L427 74 L427 133 L603 371 L679 371 L679 137 L721 137 Z M608 137 L608 270 L509 137 L608 137 Z " />
<glyph glyph-name="uni2155" unicode="&#x2155;" horiz-adv-x="698" d="M118 0 L398 630 L484 630 L204 0 L118 0 Z M89 260 L89 565 L45 565 L45 630 L162 630 L162 260 L89 260 Z M485 310 L469 233 Q499 250 535 250 Q597 250 632.5 217 Q668 184 668 127 Q668 69 628 32 Q588 -5 523 -5 Q429 -5 381 76 L443 107 Q470 57 523 57 Q556 57 576.5 76.5 Q597 96 597 127 Q597 158 577.5 175.5 Q558 193 525 193 Q499 193 484.5 181.5 Q470 170 455 152 L392 169 L433 372 L643 372 L643 310 L485 310 Z " />
<glyph glyph-name="uni2156" unicode="&#x2156;" horiz-adv-x="783" d="M26 550 Q78 636 172 636 Q232 636 269 602.5 Q306 569 306 519 Q306 479 286 450.5 Q266 422 228 391 L144 322 L307 322 L307 260 L35 260 L35 318 L182 439 Q208 460 220 476.5 Q232 493 232 518 Q232 541 215 556.5 Q198 572 170 572 Q139 572 120 558 Q101 544 84 516 L26 550 Z M218 0 L498 630 L585 630 L305 0 L218 0 Z M579 310 L562 233 Q596 250 629 250 Q690 250 725.5 217 Q761 184 761 127 Q761 69 721 32 Q681 -5 617 -5 Q521 -5 475 76 L536 107 Q563 57 617 57 Q650 57 670 76.5 Q690 96 690 127 Q690 158 671 175.5 Q652 193 619 193 Q592 193 577.5 181.5 Q563 170 548 152 L485 169 L526 372 L736 372 L736 310 L579 310 Z " />
<glyph glyph-name="uni2157" unicode="&#x2157;" horiz-adv-x="773" d="M210 501 Q259 493 286.5 463 Q314 433 314 385 Q314 327 274 290 Q234 253 170 253 Q74 253 28 334 L90 365 Q118 315 170 315 Q203 315 223 334 Q243 353 243 383 Q243 414 223.5 431 Q204 448 171 448 Q159 448 147.5 444 Q136 440 129 435.5 Q122 431 120 430 L87 475 L199 570 L54 570 L54 630 L294 630 L294 574 L210 501 Z M207 0 L487 630 L573 630 L293 0 L207 0 Z M569 310 L552 233 Q586 250 619 250 Q680 250 715.5 217 Q751 184 751 127 Q751 69 711 32 Q671 -5 607 -5 Q511 -5 465 76 L526 107 Q553 57 607 57 Q640 57 660 76.5 Q680 96 680 127 Q680 158 661 175.5 Q642 193 609 193 Q582 193 567.5 181.5 Q553 170 538 152 L475 169 L516 372 L726 372 L726 310 L569 310 Z " />
<glyph glyph-name="uni2158" unicode="&#x2158;" horiz-adv-x="781" d="M322 396 L322 334 L280 334 L280 260 L209 260 L209 334 L28 334 L28 393 L204 630 L280 630 L280 396 L322 396 Z M217 0 L497 630 L583 630 L303 0 L217 0 Z M209 396 L209 530 L110 396 L209 396 Z M577 310 L560 233 Q594 250 627 250 Q688 250 723.5 217 Q759 184 759 127 Q759 69 719 32 Q679 -5 615 -5 Q519 -5 473 76 L534 107 Q561 57 615 57 Q648 57 668 76.5 Q688 96 688 127 Q688 158 669 175.5 Q650 193 617 193 Q590 193 575.5 181.5 Q561 170 546 152 L483 169 L524 372 L734 372 L734 310 L577 310 Z " />
<glyph glyph-name="uni2159" unicode="&#x2159;" horiz-adv-x="689" d="M121 0 L401 630 L488 630 L208 0 L121 0 Z M89 260 L89 565 L45 565 L45 630 L162 630 L162 260 L89 260 Z M500 253 Q509 256 520 256 Q581 256 620 219.5 Q659 183 659 126 Q659 89 640 59 Q621 29 588 11.5 Q555 -6 514 -6 Q451 -6 410 32 Q369 70 369 128 Q369 174 397 217 L499 370 L581 370 L500 253 Z M514 196 Q482 196 461 176 Q440 156 440 125 Q440 95 461 75 Q482 55 514 55 Q546 55 567.5 75 Q589 95 589 125 Q589 156 567.5 176 Q546 196 514 196 Z " />
<glyph glyph-name="uni215A" unicode="&#x215a;" horiz-adv-x="767" d="M221 0 L501 630 L588 630 L308 0 L221 0 Z M133 568 L116 491 Q150 508 183 508 Q244 508 279.5 475 Q315 442 315 385 Q315 327 275 290 Q235 253 171 253 Q75 253 29 334 L90 365 Q117 315 171 315 Q204 315 224 334.5 Q244 354 244 385 Q244 416 225 433.5 Q206 451 173 451 Q146 451 131.5 439.5 Q117 428 102 410 L39 427 L80 630 L290 630 L290 568 L133 568 Z M581 253 Q590 256 601 256 Q662 256 700.5 219 Q739 182 739 126 Q739 89 720.5 59 Q702 29 669 11.5 Q636 -6 595 -6 Q531 -6 490 32 Q449 70 449 128 Q449 174 477 217 L580 370 L661 370 L581 253 Z M595 196 Q562 196 541 176 Q520 156 520 125 Q520 95 541 75 Q562 55 595 55 Q627 55 648.5 75 Q670 95 670 125 Q670 156 648.5 176 Q627 196 595 196 Z " />
<glyph glyph-name="oneeighth" unicode="&#x215b;" horiz-adv-x="687" d="M115 0 L395 630 L482 630 L202 0 L115 0 Z M89 260 L89 565 L45 565 L45 630 L162 630 L162 260 L89 260 Z M519 375 Q573 375 608.5 346 Q644 317 644 271 Q644 245 631.5 226 Q619 207 605 198 Q623 189 640 166.5 Q657 144 657 111 Q657 60 618 27 Q579 -6 519 -6 Q459 -6 419.5 27 Q380 60 380 111 Q380 143 397.5 166 Q415 189 434 198 Q394 223 394 271 Q394 316 429.5 345.5 Q465 375 519 375 Z M519 314 Q496 314 481 301.5 Q466 289 466 269 Q466 251 480.5 237.5 Q495 224 517 224 Q540 224 555.5 237.5 Q571 251 571 269 Q571 289 556.5 301.5 Q542 314 519 314 Z M519 167 Q489 167 470.5 151.5 Q452 136 452 112 Q452 88 471 72.5 Q490 57 519 57 Q547 57 566 72.5 Q585 88 585 112 Q585 135 566 151 Q547 167 519 167 Z " />
<glyph glyph-name="threeeighths" unicode="&#x215c;" horiz-adv-x="765" d="M210 501 Q259 493 286.5 463 Q314 433 314 385 Q314 327 274 290 Q234 253 170 253 Q74 253 28 334 L90 365 Q118 315 170 315 Q203 315 223 334 Q243 353 243 383 Q243 414 223.5 431 Q204 448 171 448 Q158 448 147 444 Q136 440 129.5 436 Q123 432 121 431 L87 475 L199 570 L54 570 L54 630 L294 630 L294 574 L210 501 Z M207 0 L487 630 L573 630 L293 0 L207 0 Z M596 375 Q650 375 685.5 346 Q721 317 721 271 Q721 245 708.5 226 Q696 207 682 198 Q700 189 717 166.5 Q734 144 734 111 Q734 60 695 27 Q656 -6 596 -6 Q536 -6 496.5 27 Q457 60 457 111 Q457 143 474.5 166 Q492 189 511 198 Q471 223 471 271 Q471 316 506.5 345.5 Q542 375 596 375 Z M596 314 Q573 314 558 301.5 Q543 289 543 269 Q543 251 557.5 237.5 Q572 224 594 224 Q617 224 632.5 237.5 Q648 251 648 269 Q648 289 633.5 301.5 Q619 314 596 314 Z M596 167 Q566 167 547.5 151.5 Q529 136 529 112 Q529 88 548 72.5 Q567 57 596 57 Q624 57 643 72.5 Q662 88 662 112 Q662 135 643 151 Q624 167 596 167 Z " />
<glyph glyph-name="fiveeighths" unicode="&#x215d;" horiz-adv-x="765" d="M133 568 L116 491 Q152 509 183 509 Q244 509 279.5 476 Q315 443 315 386 Q315 328 275 291 Q235 254 171 254 Q75 254 29 334 L90 365 Q118 315 171 315 Q204 315 224 335 Q244 355 244 385 Q244 417 225 434 Q206 451 173 451 Q133 451 102 410 L39 428 L80 630 L290 630 L290 568 L133 568 Z M207 0 L487 630 L573 630 L293 0 L207 0 Z M596 375 Q650 375 685.5 346 Q721 317 721 271 Q721 245 708.5 226 Q696 207 682 198 Q700 189 717 166.5 Q734 144 734 111 Q734 60 695 27 Q656 -6 596 -6 Q536 -6 496.5 27 Q457 60 457 111 Q457 143 474.5 166 Q492 189 511 198 Q471 223 471 271 Q471 316 506.5 345.5 Q542 375 596 375 Z M596 314 Q573 314 558 301.5 Q543 289 543 269 Q543 251 557.5 237.5 Q572 224 594 224 Q617 224 632.5 237.5 Q648 251 648 269 Q648 289 633.5 301.5 Q619 314 596 314 Z M596 167 Q566 167 547.5 151.5 Q529 136 529 112 Q529 88 548 72.5 Q567 57 596 57 Q624 57 643 72.5 Q662 88 662 112 Q662 135 643 151 Q624 167 596 167 Z " />
<glyph glyph-name="seveneighths" unicode="&#x215e;" horiz-adv-x="735" d="M167 0 L447 630 L533 630 L253 0 L167 0 Z M144 260 L67 260 L216 564 L33 564 L33 629 L297 629 L297 574 L144 260 Z M566 375 Q620 375 655.5 346 Q691 317 691 271 Q691 245 678.5 226 Q666 207 652 198 Q670 189 687 166.5 Q704 144 704 111 Q704 60 665 27 Q626 -6 566 -6 Q506 -6 466.5 27 Q427 60 427 111 Q427 143 444.5 166 Q462 189 481 198 Q441 223 441 271 Q441 316 476.5 345.5 Q512 375 566 375 Z M566 314 Q543 314 528 301.5 Q513 289 513 269 Q513 251 527.5 237.5 Q542 224 564 224 Q587 224 602.5 237.5 Q618 251 618 269 Q618 289 603.5 301.5 Q589 314 566 314 Z M566 167 Q536 167 517.5 151.5 Q499 136 499 112 Q499 88 518 72.5 Q537 57 566 57 Q594 57 613 72.5 Q632 88 632 112 Q632 135 613 151 Q594 167 566 167 Z " />
<glyph glyph-name="onesuperior" unicode="&#xb9;" horiz-adv-x="157" d="M64 288 L64 593 L20 593 L20 658 L137 658 L137 288 L64 288 Z " />
<glyph glyph-name="twosuperior" unicode="&#xb2;" horiz-adv-x="320" d="M19 576 Q71 663 164 663 Q224 663 261 629 Q298 595 298 545 Q298 505 278 476 Q258 447 220 418 L136 349 L300 349 L300 286 L28 286 L28 345 L175 465 Q202 488 213.5 504 Q225 520 225 544 Q225 568 208 583 Q191 598 163 598 Q132 598 112.5 583.5 Q93 569 77 542 L19 576 Z " />
<glyph glyph-name="threesuperior" unicode="&#xb3;" horiz-adv-x="326" d="M202 529 Q251 521 279 490.5 Q307 460 307 412 Q307 355 267 318 Q227 281 162 281 Q67 281 20 361 L82 392 Q110 342 162 342 Q195 342 215.5 361 Q236 380 236 410 Q236 441 216.5 458.5 Q197 476 163 476 Q151 476 139.5 472 Q128 468 121.5 463.5 Q115 459 113 458 L80 502 L191 597 L47 597 L47 658 L287 658 L287 602 L202 529 Z " />
<glyph glyph-name="asterisk" unicode="&#x2a;" horiz-adv-x="350" d="M292 638 L321 587 L233 533 L321 480 L292 428 L205 481 L205 381 L145 381 L145 480 L58 428 L29 480 L116 533 L29 587 L58 638 L145 586 L145 685 L205 685 L205 586 L292 638 Z " />
<glyph glyph-name="backslash" unicode="&#x5c;" horiz-adv-x="298" d="M194 0 L14 685 L104 685 L284 0 L194 0 Z " />
<glyph glyph-name="bullet" unicode="&#x2022;" horiz-adv-x="286" d="M143 398 Q191 398 223.5 366 Q256 334 256 286 Q256 238 223.5 206 Q191 174 143 174 Q95 174 62.5 206 Q30 238 30 286 Q30 334 62.5 366 Q95 398 143 398 Z " />
<glyph glyph-name="colon" unicode="&#x3a;" horiz-adv-x="160" d="M35 411 L35 506 L125 506 L125 411 L35 411 Z M35 0 L35 95 L125 95 L125 0 L35 0 Z " />
<glyph glyph-name="comma" unicode="&#x2c;" horiz-adv-x="160" d="M97 -83 L39 -83 L64 0 L36 0 L36 95 L126 95 L126 16 L97 -83 Z " />
<glyph glyph-name="ellipsis" unicode="&#x2026;" horiz-adv-x="480" d="M35 0 L35 95 L125 95 L125 0 L35 0 Z M195 0 L195 95 L285 95 L285 0 L195 0 Z M355 0 L355 95 L445 95 L445 0 L355 0 Z " />
<glyph glyph-name="exclam" unicode="&#x21;" horiz-adv-x="172" d="M43 173 L43 685 L130 685 L130 173 L43 173 Z M43 0 L43 92 L130 92 L130 0 L43 0 Z " />
<glyph glyph-name="exclamdown" unicode="&#xa1;" horiz-adv-x="172" d="M43 593 L43 685 L130 685 L130 593 L43 593 Z M43 0 L43 512 L130 512 L130 0 L43 0 Z " />
<glyph glyph-name="numbersign" unicode="&#x23;" horiz-adv-x="537" d="M507 479 L507 399 L416 399 L402 233 L507 233 L507 153 L397 153 L384 0 L305 0 L318 153 L190 153 L177 0 L98 0 L111 153 L30 153 L30 233 L116 233 L130 399 L30 399 L30 479 L135 479 L149 632 L228 632 L214 479 L342 479 L356 632 L434 632 L421 479 L507 479 Z M195 233 L323 233 L337 399 L209 399 L195 233 Z " />
<glyph glyph-name="period" unicode="&#x2e;" horiz-adv-x="160" d="M35 0 L35 95 L125 95 L125 0 L35 0 Z " />
<glyph glyph-name="periodcentered" unicode="&#xb7;" horiz-adv-x="160" d="M35 237 L35 332 L125 332 L125 237 L35 237 Z " />
<glyph glyph-name="question" unicode="&#x3f;" horiz-adv-x="476" d="M15 506 Q27 589 85.5 641 Q144 693 237 693 Q301 693 349.5 666 Q398 639 424.5 592 Q451 545 451 487 Q451 399 396.5 345.5 Q342 292 260 279 L260 173 L173 173 L173 347 Q367 347 367 486 Q367 543 331 578 Q295 613 236 613 Q179 613 145.5 583.5 Q112 554 102 506 L15 506 Z M173 0 L173 92 L260 92 L260 0 L173 0 Z " />
<glyph glyph-name="questiondown" unicode="&#xbf;" horiz-adv-x="463" d="M211 593 L211 685 L298 685 L298 593 L211 593 Z M298 338 Q104 338 104 199 Q104 142 140 107 Q176 72 235 72 Q292 72 325.5 101.5 Q359 131 369 180 L456 180 Q444 97 385.5 44.5 Q327 -8 234 -8 Q170 -8 121.5 19 Q73 46 46.5 93 Q20 140 20 198 Q20 286 74.5 340 Q129 394 211 406 L211 511 L298 511 L298 338 Z " />
<glyph glyph-name="quotedbl" unicode="&#x22;" horiz-adv-x="283" d="M46 506 L35 685 L126 685 L114 506 L46 506 Z M167 506 L157 685 L248 685 L236 506 L167 506 Z " />
<glyph glyph-name="quotesingle" unicode="&#x27;" horiz-adv-x="160" d="M44 506 L34 685 L126 685 L114 506 L44 506 Z " />
<glyph glyph-name="semicolon" unicode="&#x3b;" horiz-adv-x="160" d="M35 411 L35 506 L125 506 L125 411 L35 411 Z M97 -83 L39 -83 L64 0 L36 0 L36 95 L126 95 L126 16 L97 -83 Z " />
<glyph glyph-name="slash" unicode="&#x2f;" horiz-adv-x="298" d="M14 0 L194 685 L284 685 L104 0 L14 0 Z " />
<glyph glyph-name="underscore" unicode="&#x5f;" horiz-adv-x="500" d="M-1 -147 L-1 -65 L501 -65 L501 -147 L-1 -147 Z " />
<glyph glyph-name="braceleft" unicode="&#x7b;" horiz-adv-x="301" d="M242 608 Q194 608 168 587 Q142 566 142 528 Q142 493 168 439 Q182 408 188.5 388.5 Q195 369 195 345 Q195 318 184.5 300 Q174 282 160.5 271.5 Q147 261 147 263 Q147 265 160.5 254.5 Q174 244 184.5 226 Q195 208 195 181 Q195 157 188.5 137.5 Q182 118 168 87 Q142 33 142 -2 Q142 -40 168 -60.5 Q194 -81 242 -81 L276 -81 L276 -159 L221 -159 Q145 -159 99 -120 Q53 -81 53 -16 Q53 15 61.5 39.5 Q70 64 86 95 Q100 123 106 139 Q112 155 112 173 Q112 229 45 229 L30 229 L30 297 L45 297 Q112 297 112 353 Q112 371 106 386 Q100 401 86 431 Q70 462 61.5 486.5 Q53 511 53 542 Q53 607 99 646.5 Q145 686 221 686 L276 686 L276 608 L242 608 Z " />
<glyph glyph-name="braceright" unicode="&#x7d;" horiz-adv-x="301" d="M80 686 Q156 686 202 646.5 Q248 607 248 542 Q248 511 239.5 486.5 Q231 462 215 431 Q189 381 189 353 Q189 297 256 297 L271 297 L271 229 L256 229 Q189 229 189 173 Q189 143 215 95 Q231 64 239.5 39.5 Q248 15 248 -16 Q248 -81 202 -120 Q156 -159 80 -159 L25 -159 L25 -81 L59 -81 Q107 -81 133 -60.5 Q159 -40 159 -2 Q159 35 132 87 Q106 145 106 181 Q106 208 116.5 226 Q127 244 140.5 254.5 Q154 265 154 263 Q154 261 140.5 271.5 Q127 282 116.5 300 Q106 318 106 345 Q106 381 132 439 Q159 491 159 528 Q159 566 133 587 Q107 608 59 608 L25 608 L25 686 L80 686 Z " />
<glyph glyph-name="bracketleft" unicode="&#x5b;" horiz-adv-x="265" d="M127 606 L127 -79 L240 -79 L240 -160 L40 -160 L40 685 L240 685 L240 606 L127 606 Z " />
<glyph glyph-name="bracketright" unicode="&#x5d;" horiz-adv-x="265" d="M25 -160 L25 -79 L138 -79 L138 606 L25 606 L25 685 L225 685 L225 -160 L25 -160 Z " />
<glyph glyph-name="parenleft" unicode="&#x28;" horiz-adv-x="283" d="M244 654 Q181 582 147.5 479 Q114 376 114 265 Q114 153 147 51 Q180 -51 244 -126 L177 -167 Q105 -87 65 27 Q25 141 25 265 Q25 388 65.5 502.5 Q106 617 176 696 L244 654 Z " />
<glyph glyph-name="parenright" unicode="&#x29;" horiz-adv-x="283" d="M107 696 Q177 617 217.5 502.5 Q258 388 258 265 Q258 141 218 27 Q178 -87 106 -167 L39 -126 Q103 -51 136 51 Q169 153 169 265 Q169 376 135.5 479 Q102 582 39 654 L107 696 Z " />
<glyph glyph-name="emdash" unicode="&#x2014;" horiz-adv-x="829" d="M25 245 L25 327 L804 327 L804 245 L25 245 Z " />
<glyph glyph-name="endash" unicode="&#x2013;" horiz-adv-x="440" d="M25 245 L25 327 L415 327 L415 245 L25 245 Z " />
<glyph glyph-name="figuredash" unicode="&#x2012;" horiz-adv-x="440" d="M25 245 L25 327 L415 327 L415 245 L25 245 Z " />
<glyph glyph-name="hyphen" unicode="&#x2d;" horiz-adv-x="353" d="M36 244 L36 326 L317 326 L317 244 L36 244 Z " />
<glyph glyph-name="guillemotleft" unicode="&#xab;" horiz-adv-x="445" d="M242 74 L157 74 L30 286 L157 501 L242 501 L116 286 L242 74 Z M402 74 L317 74 L189 286 L317 501 L402 501 L274 286 L402 74 Z " />
<glyph glyph-name="guillemotright" unicode="&#xbb;" horiz-adv-x="432" d="M116 74 L30 74 L158 286 L30 501 L116 501 L244 286 L116 74 Z M276 74 L190 74 L317 286 L190 501 L276 501 L402 286 L276 74 Z " />
<glyph glyph-name="guilsinglleft" unicode="&#x2039;" horiz-adv-x="277" d="M247 74 L158 74 L30 286 L158 501 L247 501 L119 286 L247 74 Z " />
<glyph glyph-name="guilsinglright" unicode="&#x203a;" horiz-adv-x="277" d="M119 74 L30 74 L158 286 L30 501 L119 501 L247 286 L119 74 Z " />
<glyph glyph-name="quotedblbase" unicode="&#x201e;" horiz-adv-x="280" d="M93 -83 L38 -83 L62 0 L35 0 L35 95 L122 95 L122 16 L93 -83 Z M216 -83 L161 -83 L185 0 L158 0 L158 95 L245 95 L245 16 L216 -83 Z " />
<glyph glyph-name="quotedblleft" unicode="&#x201c;" horiz-adv-x="282" d="M122 603 L122 508 L35 508 L35 587 L64 685 L119 685 L94 603 L122 603 Z M245 603 L245 508 L158 508 L158 587 L187 685 L242 685 L217 603 L245 603 Z " />
<glyph glyph-name="quotedblright" unicode="&#x201d;" horiz-adv-x="280" d="M93 508 L38 508 L62 590 L35 590 L35 685 L122 685 L122 606 L93 508 Z M216 508 L161 508 L185 590 L158 590 L158 685 L245 685 L245 606 L216 508 Z " />
<glyph glyph-name="quoteleft" unicode="&#x2018;" horiz-adv-x="160" d="M126 603 L126 508 L36 508 L36 587 L65 685 L123 685 L98 603 L126 603 Z " />
<glyph glyph-name="quoteright" unicode="&#x2019;" horiz-adv-x="160" d="M97 508 L39 508 L64 590 L36 590 L36 685 L126 685 L126 606 L97 508 Z " />
<glyph glyph-name="quotesinglbase" unicode="&#x201a;" horiz-adv-x="160" d="M97 -83 L39 -83 L64 0 L36 0 L36 95 L126 95 L126 16 L97 -83 Z " />
<glyph glyph-name="uni00A0" unicode="&#xa0;" horiz-adv-x="310" d="" />
<glyph glyph-name="florin" unicode="&#x192;" horiz-adv-x="334" d="M271 609 Q187 609 187 526 L187 506 L311 506 L311 428 L187 428 L187 7 Q187 -85 138 -129.5 Q89 -174 10 -174 L10 -94 Q100 -94 100 8 L100 428 L23 428 L23 506 L100 506 L100 526 Q100 607 145.5 646 Q191 685 270 685 L311 685 L311 609 L271 609 Z " />
<glyph glyph-name="Euro" unicode="&#x20ac;" horiz-adv-x="531" d="M196 191 Q196 138 227 105.5 Q258 73 311 73 Q384 73 424 136 L496 94 Q434 -8 310 -8 Q249 -8 204 18 Q159 44 135 88.5 Q111 133 111 188 L111 209 L29 209 L29 282 L111 282 L111 349 L29 349 L29 422 L111 422 L111 443 Q111 498 135 542.5 Q159 587 204 613 Q249 639 310 639 Q434 639 496 538 L424 495 Q384 559 311 559 Q258 559 227 526 Q196 493 196 440 L196 422 L363 422 L363 349 L196 349 L196 282 L363 282 L363 209 L196 209 L196 191 Z " />
<glyph glyph-name="cent" unicode="&#xa2;" horiz-adv-x="523" d="M317 73 Q399 83 449 163 L517 119 Q448 6 317 -8 L317 -84 L249 -84 L249 -8 Q182 0 130.5 36 Q79 72 51 129 Q23 186 23 253 Q23 320 51 376 Q79 432 130.5 468 Q182 504 249 512 L249 594 L317 594 L317 512 Q447 500 517 385 L448 342 Q401 420 317 432 L317 73 Z M249 430 Q186 418 148.5 369.5 Q111 321 111 253 Q111 184 148.5 135 Q186 86 249 74 L249 430 Z " />
<glyph glyph-name="dollar" unicode="&#x24;" horiz-adv-x="491" d="M285 346 Q342 331 378 314.5 Q414 298 438.5 263 Q463 228 463 169 Q463 94 414.5 47 Q366 0 285 -9 L285 -85 L216 -85 L216 -9 Q131 -1 82 46 Q33 93 27 171 L114 171 Q119 129 144.5 100.5 Q170 72 216 63 L216 282 Q164 296 129 314 Q94 332 70.5 367 Q47 402 47 459 Q47 529 93 576 Q139 623 216 631 L216 720 L285 720 L285 631 Q364 622 408.5 576.5 Q453 531 458 460 L371 460 Q365 542 285 558 L285 346 Z M216 558 Q178 550 156.5 525.5 Q135 501 135 464 Q135 426 156 403 Q177 380 216 366 L216 558 Z M285 62 Q329 69 352.5 94.5 Q376 120 376 161 Q376 203 352.5 225.5 Q329 248 285 262 L285 62 Z " />
<glyph glyph-name="sterling" unicode="&#xa3;" horiz-adv-x="522" d="M201 125 Q236 118 281 98 Q347 72 383 72 Q412 72 437.5 83 Q463 94 480 107 Q497 120 497 121 L497 40 Q497 38 480 25 Q463 12 434 0.5 Q405 -11 367 -11 Q318 -11 248 19 Q243 21 222.5 29.5 Q202 38 183.5 42 Q165 46 148 46 Q119 46 93.5 35 Q68 24 51 11 Q34 -2 34 -3 L34 79 Q36 81 46 89 Q56 97 74 106.5 Q92 116 116 122 L116 252 L34 252 L34 332 L116 332 L116 444 Q116 499 139.5 543.5 Q163 588 208 613.5 Q253 639 314 639 Q438 639 499 538 L427 496 Q386 559 315 559 Q262 559 231.5 526.5 Q201 494 201 441 L201 332 L367 332 L367 252 L201 252 L201 125 Z " />
<glyph glyph-name="yen" unicode="&#xa5;" horiz-adv-x="472" d="M443 340 L443 268 L281 268 L281 208 L443 208 L443 136 L281 136 L281 0 L194 0 L194 136 L31 136 L31 208 L194 208 L194 268 L31 268 L31 340 L172 340 L11 625 L107 625 L238 380 L367 625 L462 625 L303 340 L443 340 Z " />
<glyph glyph-name="approxequal" unicode="&#x2248;" horiz-adv-x="440" d="M415 357 Q415 355 400 340.5 Q385 326 360 313.5 Q335 301 303 301 Q267 301 206 324 Q154 345 123 345 Q99 345 77 335.5 Q55 326 41.5 315.5 Q28 305 25 302 L25 376 Q25 378 40.5 392.5 Q56 407 81 419.5 Q106 432 138 432 Q177 432 235 408 Q289 388 318 388 Q342 388 364 397.5 Q386 407 399 417.5 Q412 428 415 431 L415 357 Z M415 191 Q415 189 400 174.5 Q385 160 360 148 Q335 136 303 136 Q262 136 206 159 Q175 171 159 175.5 Q143 180 123 180 Q99 180 77 170.5 Q55 161 41.5 150.5 Q28 140 25 137 L25 211 Q25 213 40.5 227.5 Q56 242 81 254 Q106 266 138 266 Q174 266 235 243 Q287 222 318 222 Q342 222 364 231.5 Q386 241 399 251.5 Q412 262 415 265 L415 191 Z " />
<glyph glyph-name="asciitilde" unicode="&#x7e;" horiz-adv-x="440" d="M415 276 Q415 274 400 259.5 Q385 245 360 232.5 Q335 220 303 220 Q267 220 206 243 Q154 264 123 264 Q99 264 77 254.5 Q55 245 41.5 234.5 Q28 224 25 221 L25 298 Q25 300 40.5 314.5 Q56 329 81 341.5 Q106 354 138 354 Q177 354 235 330 Q289 310 318 310 Q342 310 364 319.5 Q386 329 399 339.5 Q412 350 415 353 L415 276 Z " />
<glyph glyph-name="divide" unicode="&#xf7;" horiz-adv-x="440" d="M176 400 L176 489 L263 489 L263 400 L176 400 Z M25 245 L25 327 L415 327 L415 245 L25 245 Z M176 80 L176 169 L263 169 L263 80 L176 80 Z " />
<glyph glyph-name="equal" unicode="&#x3d;" horiz-adv-x="440" d="M25 324 L25 409 L415 409 L415 324 L25 324 Z M25 159 L25 244 L415 244 L415 159 L25 159 Z " />
<glyph glyph-name="greater" unicode="&#x3e;" horiz-adv-x="440" d="M415 246 L25 83 L25 173 L312 285 L25 397 L25 487 L415 325 L415 246 Z " />
<glyph glyph-name="greaterequal" unicode="&#x2265;" horiz-adv-x="440" d="M415 314 L25 156 L25 245 L312 353 L25 462 L25 550 L415 393 L415 314 Z M25 0 L25 82 L415 82 L415 0 L25 0 Z " />
<glyph glyph-name="integral" unicode="&#x222b;" horiz-adv-x="305" d="M280 605 Q187 605 187 505 L187 7 Q187 -85 138 -129.5 Q89 -174 10 -174 L10 -94 Q100 -94 100 8 L100 506 Q100 599 149 642 Q198 685 280 685 L280 605 Z " />
<glyph glyph-name="less" unicode="&#x3c;" horiz-adv-x="440" d="M129 285 L415 173 L415 83 L25 246 L25 325 L415 487 L415 397 L129 285 Z " />
<glyph glyph-name="lessequal" unicode="&#x2264;" horiz-adv-x="440" d="M129 353 L415 245 L415 156 L25 314 L25 393 L415 550 L415 462 L129 353 Z M25 0 L25 82 L415 82 L415 0 L25 0 Z " />
<glyph glyph-name="logicalnot" unicode="&#xac;" horiz-adv-x="440" d="M331 147 L331 324 L25 324 L25 409 L415 409 L415 147 L331 147 Z " />
<glyph glyph-name="minus" unicode="&#x2212;" horiz-adv-x="440" d="M25 245 L25 327 L415 327 L415 245 L25 245 Z " />
<glyph glyph-name="multiply" unicode="&#xd7;" horiz-adv-x="430" d="M275 286 L394 162 L334 101 L216 223 L97 101 L37 162 L156 286 L37 409 L98 470 L216 348 L332 470 L394 409 L275 286 Z " />
<glyph glyph-name="notequal" unicode="&#x2260;" horiz-adv-x="440" d="M415 409 L415 324 L268 324 L246 245 L415 245 L415 160 L224 160 L193 39 L121 39 L152 160 L25 160 L25 245 L174 245 L196 324 L25 324 L25 409 L218 409 L251 531 L323 531 L290 409 L415 409 Z " />
<glyph glyph-name="percent" unicode="&#x25;" horiz-adv-x="748" d="M31 506 Q31 560 70 597 Q109 634 167 634 Q225 634 264 597 Q303 560 303 506 L303 390 Q303 354 285 324.5 Q267 295 236 277.5 Q205 260 167 260 Q129 260 98 277.5 Q67 295 49 324.5 Q31 354 31 390 L31 506 Z M192 0 L472 630 L558 630 L278 0 L192 0 Z M231 506 Q231 533 212.5 550.5 Q194 568 167 568 Q140 568 122 550.5 Q104 533 104 506 L104 390 Q104 362 122 344.5 Q140 327 167 327 Q194 327 212.5 345 Q231 363 231 390 L231 506 Z M445 239 Q445 293 484 330.5 Q523 368 581 368 Q639 368 678 330.5 Q717 293 717 239 L717 123 Q717 87 699 57.5 Q681 28 650 10.5 Q619 -7 581 -7 Q543 -7 512 10.5 Q481 28 463 57.5 Q445 87 445 123 L445 239 Z M645 239 Q645 266 626.5 284 Q608 302 581 302 Q554 302 535.5 284 Q517 266 517 239 L517 123 Q517 96 535.5 78 Q554 60 581 60 Q608 60 626.5 78 Q645 96 645 123 L645 239 Z " />
<glyph glyph-name="perthousand" unicode="&#x2030;" horiz-adv-x="1071" d="M31 506 Q31 560 70 597 Q109 634 167 634 Q225 634 264 597 Q303 560 303 506 L303 390 Q303 354 285 324.5 Q267 295 236 277.5 Q205 260 167 260 Q129 260 98 277.5 Q67 295 49 324.5 Q31 354 31 390 L31 506 Z M191 0 L471 630 L557 630 L277 0 L191 0 Z M231 506 Q231 533 212.5 550.5 Q194 568 167 568 Q140 568 122 550.5 Q104 533 104 506 L104 390 Q104 362 122 344.5 Q140 327 167 327 Q194 327 212.5 345 Q231 363 231 390 L231 506 Z M445 240 Q445 294 484 331 Q523 368 581 368 Q639 368 678 331 Q717 294 717 240 L717 124 Q717 88 699 58.5 Q681 29 650 11.5 Q619 -6 581 -6 Q543 -6 512 11.5 Q481 29 463 58.5 Q445 88 445 124 L445 240 Z M768 240 Q768 294 807 331 Q846 368 904 368 Q962 368 1001 331 Q1040 294 1040 240 L1040 124 Q1040 88 1022 58.5 Q1004 29 973 11.5 Q942 -6 904 -6 Q866 -6 835 11.5 Q804 29 786 58.5 Q768 88 768 124 L768 240 Z M645 240 Q645 267 626.5 284.5 Q608 302 581 302 Q554 302 535.5 284.5 Q517 267 517 240 L517 124 Q517 97 535.5 79 Q554 61 581 61 Q608 61 626.5 79 Q645 97 645 124 L645 240 Z M968 240 Q968 267 949.5 284.5 Q931 302 904 302 Q877 302 858.5 284.5 Q840 267 840 240 L840 124 Q840 97 858.5 79 Q877 61 904 61 Q931 61 949.5 79 Q968 97 968 124 L968 240 Z " />
<glyph glyph-name="plus" unicode="&#x2b;" horiz-adv-x="440" d="M415 327 L415 245 L261 245 L261 85 L177 85 L177 245 L25 245 L25 327 L177 327 L177 484 L261 484 L261 327 L415 327 Z " />
<glyph glyph-name="plusminus" unicode="&#xb1;" horiz-adv-x="440" d="M415 396 L415 315 L261 315 L261 155 L178 155 L178 315 L25 315 L25 396 L178 396 L178 554 L261 554 L261 396 L415 396 Z M25 0 L25 82 L415 82 L415 0 L25 0 Z " />
<glyph glyph-name="ampersand" unicode="&#x26;" horiz-adv-x="644" d="M446 55 Q363 -10 251 -10 Q154 -10 95.5 37.5 Q37 85 37 167 Q37 233 72 270.5 Q107 308 169 333 Q112 401 112 466 Q112 514 134.5 552 Q157 590 196.5 611 Q236 632 287 632 Q360 632 406.5 590.5 Q453 549 453 483 Q453 413 413.5 375 Q374 337 303 308 L445 172 Q509 263 518 392 L603 392 Q598 319 573.5 245.5 Q549 172 505 114 L624 0 L500 0 L446 55 Z M199 469 Q199 414 249 361 Q307 382 338 407 Q369 432 369 477 Q369 513 346 534 Q323 555 286 555 Q248 555 223.5 531.5 Q199 508 199 469 Z M224 277 Q179 257 154.5 232.5 Q130 208 130 168 Q130 121 163.5 94 Q197 67 255 67 Q330 67 388 112 L224 277 Z " />
<glyph glyph-name="apple" unicode="&#xf8ff;" horiz-adv-x="5000" d="M2976 0 L2976 36 Q2906 -9 2825 -9 Q2754 -9 2693.5 25.5 Q2633 60 2597 120 Q2561 180 2561 252 Q2561 324 2597 384.5 Q2633 445 2693.5 480.5 Q2754 516 2825 516 Q2906 516 2976 471 L2976 681 L3103 681 L3103 0 L2976 0 Z M3165 559 L3165 681 L3288 681 L3288 559 L3165 559 Z M3753 0 L3753 36 Q3696 -9 3605 -9 Q3533 -9 3472 25.5 Q3411 60 3375 120 Q3339 180 3339 252 Q3339 324 3375 384.5 Q3411 445 3472 480.5 Q3533 516 3605 516 Q3692 516 3753 471 L3753 681 L3879 681 L3879 0 L3753 0 Z M4915 624 Q4936 624 4951 609 Q4966 594 4966 572 Q4966 550 4951 535 Q4936 520 4915 520 Q4894 520 4879 535 Q4864 550 4864 572 Q4864 594 4879 609 Q4894 624 4915 624 Z M4915 617 Q4897 617 4884.5 604 Q4872 591 4872 572 Q4872 553 4884.5 540 Q4897 527 4915 527 Q4933 527 4945.5 540 Q4958 553 4958 572 Q4958 591 4945.5 604 Q4933 617 4915 617 Z M4920 597 Q4936 597 4936 583 Q4936 572 4923 570 L4937 545 L4928 545 L4914 569 L4907 569 L4907 545 L4899 545 L4899 597 L4920 597 Z M4907 575 L4917 575 Q4928 575 4928 583 Q4928 590 4919 590 L4907 590 L4907 575 Z M2392 36 Q2325 -9 2238 -9 Q2169 -9 2109 25.5 Q2049 60 2013.5 120 Q1978 180 1978 252 Q1978 324 2013.5 384.5 Q2049 445 2109 480.5 Q2169 516 2238 516 Q2325 516 2392 471 L2392 511 L2518 511 L2518 0 L2392 0 L2392 36 Z M4333 36 Q4269 -9 4188 -9 Q4115 -9 4054 25.5 Q3993 60 3957 120 Q3921 180 3921 252 Q3921 324 3957 384.5 Q3993 445 4054.5 480.5 Q4116 516 4188 516 Q4269 516 4333 471 L4333 511 L4460 511 L4460 0 L4333 0 L4333 36 Z M4643 162 Q4643 132 4667 109 Q4691 86 4746 85 Q4787 85 4808.5 101 Q4830 117 4830 139 Q4830 165 4804 175 Q4778 185 4720 194 Q4657 204 4618 216 Q4579 228 4550 260.5 Q4521 293 4521 352 Q4521 398 4547 435 Q4573 472 4620.5 494 Q4668 516 4730 516 Q4825 516 4883 470 Q4941 424 4947 348 L4819 348 Q4817 379 4801.5 398.5 Q4786 418 4736 418 Q4657 418 4652 372 Q4652 348 4679.5 336.5 Q4707 325 4765 315 Q4828 303 4868.5 290 Q4909 277 4938.5 246 Q4968 215 4968 162 Q4968 75 4904 33 Q4840 -9 4738 -9 Q4671 -9 4620 13 Q4569 35 4541 73.5 Q4513 112 4511 162 L4643 162 Z M0 402 L0 511 L1803 511 L1803 402 L0 402 Z M3165 0 L3165 511 L3288 511 L3288 0 L3165 0 Z M2242 399 Q2205 399 2172 378.5 Q2139 358 2119 324.5 Q2099 291 2099 252 Q2099 213 2119 179 Q2139 145 2172 125 Q2205 105 2242 105 Q2282 105 2316.5 125 Q2351 145 2371.5 179 Q2392 213 2392 252 Q2392 291 2371.5 325 Q2351 359 2316.5 379 Q2282 399 2242 399 Z M2829 399 Q2788 399 2755 379 Q2722 359 2703 325 Q2684 291 2684 252 Q2684 212 2703 178.5 Q2722 145 2755 125 Q2788 105 2829 105 Q2868 105 2902 125 Q2936 145 2956 179 Q2976 213 2976 252 Q2976 291 2956 325 Q2936 359 2902 379 Q2868 399 2829 399 Z M3609 399 Q3570 399 3536.5 379 Q3503 359 3483 325 Q3463 291 3463 252 Q3463 213 3483 179 Q3503 145 3536.5 125 Q3570 105 3609 105 Q3649 105 3682 125 Q3715 145 3734 178.5 Q3753 212 3753 252 Q3753 291 3734 325 Q3715 359 3682 379 Q3649 399 3609 399 Z M4193 399 Q4154 399 4120 379 Q4086 359 4065.5 325 Q4045 291 4045 252 Q4045 213 4065.5 179 Q4086 145 4120 125 Q4154 105 4193 105 Q4230 105 4262 125 Q4294 145 4313.5 179 Q4333 213 4333 252 Q4333 291 4313.5 325 Q4294 359 4262 379 Q4230 399 4193 399 Z M0 198 L0 307 L1803 307 L1803 198 L0 198 Z M0 0 L0 104 L1803 104 L1803 0 L0 0 Z " />
<glyph glyph-name="asciicircum" unicode="&#x5e;" horiz-adv-x="440" d="M322 90 L220 366 L120 90 L26 90 L179 480 L263 480 L415 90 L322 90 Z " />
<glyph glyph-name="at" unicode="&#x40;" horiz-adv-x="853" d="M685 -43 Q636 -78 571 -96 Q506 -114 436 -114 Q323 -114 230 -61.5 Q137 -9 83.5 81 Q30 171 30 279 Q30 392 81.5 485 Q133 578 226.5 632 Q320 686 440 686 Q561 686 648 636 Q735 586 779 504.5 Q823 423 823 328 Q823 252 795 194 Q767 136 718.5 104.5 Q670 73 610 73 L552 73 L552 128 Q536 104 498 84.5 Q460 65 412 65 Q352 65 304 92.5 Q256 120 228.5 168.5 Q201 217 201 277 Q201 336 228.5 384.5 Q256 433 304 461 Q352 489 412 489 Q460 489 498 470 Q536 451 551 428 L551 482 L630 482 L630 140 Q661 140 690 162.5 Q719 185 737.5 227.5 Q756 270 756 327 Q756 402 720.5 469 Q685 536 613.5 578 Q542 620 440 620 Q340 620 263 574.5 Q186 529 144 451.5 Q102 374 102 280 Q102 189 145.5 114.5 Q189 40 265.5 -3 Q342 -46 436 -46 Q564 -46 652 15 L685 -43 Z M416 414 Q358 414 320 375 Q282 336 282 277 Q282 216 319 177 Q356 138 415 138 Q453 138 484.5 156.5 Q516 175 534 206.5 Q552 238 552 277 Q552 335 513 374.5 Q474 414 416 414 Z " />
<glyph glyph-name="bar" unicode="&#x7c;" horiz-adv-x="159" d="M36 -143 L36 685 L123 685 L123 -143 L36 -143 Z " />
<glyph glyph-name="brokenbar" unicode="&#xa6;" horiz-adv-x="159" d="M36 361 L36 685 L123 685 L123 361 L36 361 Z M36 -143 L36 180 L123 180 L123 -143 L36 -143 Z " />
<glyph glyph-name="copyright" unicode="&#xa9;" horiz-adv-x="627" d="M314 695 Q396 695 463 656.5 Q530 618 568.5 551.5 Q607 485 607 403 Q607 321 568.5 254 Q530 187 463 149 Q396 111 314 111 Q232 111 164.5 149 Q97 187 58.5 254 Q20 321 20 403 Q20 485 58.5 551.5 Q97 618 164.5 656.5 Q232 695 314 695 Z M314 642 Q247 642 193 610.5 Q139 579 108.5 524 Q78 469 78 403 Q78 336 108.5 281.5 Q139 227 193 195.5 Q247 164 314 164 Q381 164 435 195.5 Q489 227 519.5 281.5 Q550 336 550 403 Q550 469 519.5 524 Q489 579 435 610.5 Q381 642 314 642 Z M456 326 Q411 249 318 249 Q274 249 238 269.5 Q202 290 181.5 325 Q161 360 161 403 Q161 446 181.5 481 Q202 516 238 536.5 Q274 557 318 557 Q411 557 456 480 L396 445 Q369 492 317 492 Q278 492 254 466.5 Q230 441 230 403 Q230 365 254 339.5 Q278 314 317 314 Q367 314 396 360 L456 326 Z " />
<glyph glyph-name="dagger" unicode="&#x2020;" horiz-adv-x="406" d="M382 447 L382 366 L246 366 L246 -143 L160 -143 L160 366 L24 366 L24 447 L160 447 L160 630 L246 630 L246 447 L382 447 Z " />
<glyph glyph-name="daggerdbl" unicode="&#x2021;" horiz-adv-x="406" d="M382 445 L382 364 L246 364 L246 132 L382 132 L382 51 L246 51 L246 -143 L160 -143 L160 51 L24 51 L24 132 L160 132 L160 364 L24 364 L24 445 L160 445 L160 630 L246 630 L246 445 L382 445 Z " />
<glyph glyph-name="degree" unicode="&#xb0;" horiz-adv-x="372" d="M186 691 Q231 691 266.5 670.5 Q302 650 322 614.5 Q342 579 342 537 Q342 495 322 459.5 Q302 424 266.5 403.5 Q231 383 186 383 Q142 383 106.5 403.5 Q71 424 50.5 459.5 Q30 495 30 537 Q30 579 50.5 614.5 Q71 650 106.5 670.5 Q142 691 186 691 Z M186 622 Q151 622 127.5 598 Q104 574 104 537 Q104 500 127 475.5 Q150 451 185 451 Q220 451 243.5 475.5 Q267 500 267 537 Q267 574 244 598 Q221 622 186 622 Z " />
<glyph glyph-name="paragraph" unicode="&#xb6;" horiz-adv-x="457" d="M244 0 L244 247 Q182 247 130.5 275 Q79 303 49.5 353 Q20 403 20 467 Q20 529 50 578.5 Q80 628 131 656.5 Q182 685 244 685 L307 685 L307 0 L244 0 Z M362 0 L362 685 L424 685 L424 0 L362 0 Z " />
<glyph glyph-name="registered" unicode="&#xae;" horiz-adv-x="627" d="M314 695 Q396 695 463 656.5 Q530 618 568.5 551.5 Q607 485 607 403 Q607 321 568.5 254 Q530 187 463 149 Q396 111 314 111 Q232 111 164.5 149 Q97 187 58.5 254 Q20 321 20 403 Q20 485 58.5 551.5 Q97 618 164.5 656.5 Q232 695 314 695 Z M314 642 Q247 642 193 610.5 Q139 579 108.5 524 Q78 469 78 403 Q78 336 108.5 281.5 Q139 227 193 195.5 Q247 164 314 164 Q381 164 435 195.5 Q489 227 519.5 281.5 Q550 336 550 403 Q550 469 519.5 524 Q489 579 435 610.5 Q381 642 314 642 Z M410 477 Q351 477 328 458 Q305 439 305 392 L305 245 L237 245 L237 544 L305 544 L305 501 Q340 546 410 547 L410 477 Z " />
<glyph glyph-name="section" unicode="&#xa7;" horiz-adv-x="485" d="M353 488 Q345 567 241 567 Q193 567 165.5 548.5 Q138 530 138 499 Q138 475 155.5 461 Q173 447 199 440 Q225 433 271 426 Q331 416 368.5 405 Q406 394 432.5 367 Q459 340 459 291 Q459 216 387 180 Q433 149 433 88 Q433 24 381 -15 Q329 -54 242 -54 Q153 -54 101.5 -13.5 Q50 27 45 95 L131 95 Q135 61 161 38 Q187 15 243 15 Q290 15 318 34 Q346 53 346 83 Q346 108 328.5 122 Q311 136 285.5 143 Q260 150 213 158 Q154 167 116 178.5 Q78 190 51.5 217.5 Q25 245 25 294 Q25 367 98 403 Q52 434 52 495 Q52 558 103.5 597 Q155 636 242 636 Q332 636 383.5 595.5 Q435 555 440 488 L353 488 Z M108 304 Q108 276 126.5 260.5 Q145 245 172 237.5 Q199 230 247 222 Q289 215 322 207 Q347 217 361.5 235.5 Q376 254 376 277 Q376 304 357.5 320 Q339 336 312 344 Q285 352 237 360 Q198 366 163 375 Q137 365 122.5 346 Q108 327 108 304 Z " />
<glyph glyph-name="trademark" unicode="&#x2122;" horiz-adv-x="877" d="M248 590 L248 518 L155 518 L155 358 Q155 323 172 310 Q189 297 221 297 L248 297 L248 225 L214 225 Q149 225 113 257 Q77 289 77 355 L77 518 L25 518 L25 590 L77 590 L77 686 L155 686 L155 590 L248 590 Z M383 550 Q383 552 394.5 563.5 Q406 575 427.5 585 Q449 595 478 595 Q552 595 587 539 Q631 595 706 595 Q770 595 808.5 555.5 Q847 516 847 451 L847 225 L770 225 L770 441 Q770 479 751 500 Q732 521 698 521 Q661 521 638.5 498.5 Q616 476 615 436 L615 225 L538 225 L538 441 Q538 479 519 500 Q500 521 466 521 Q427 521 405 498 Q383 475 383 433 L383 225 L306 225 L306 590 L383 590 L383 550 Z " />
<glyph glyph-name="acute" unicode="&#xb4;" horiz-adv-x="400" d="M100 569 L100 647 L310 708 L310 626 L100 569 Z " />
<glyph glyph-name="breve" unicode="&#x2d8;" horiz-adv-x="400" d="M339 621 Q339 619 322 603.5 Q305 588 274 575 Q243 562 200 562 Q157 562 126.5 575 Q96 588 79 603.5 Q62 619 62 621 L62 691 Q62 689 82 675.5 Q102 662 132.5 650 Q163 638 200 638 Q237 638 268 650 Q299 662 319 675.5 Q339 689 339 691 L339 621 Z " />
<glyph glyph-name="caron" unicode="&#x2c7;" horiz-adv-x="400" d="M200 550 L65 619 L65 694 L200 634 L335 694 L335 619 L200 550 Z " />
<glyph glyph-name="cedilla" unicode="&#xb8;" horiz-adv-x="400" d="M195 -46 Q234 -46 259 -68.5 Q284 -91 284 -127 Q284 -163 258.5 -187.5 Q233 -212 194 -212 Q155 -212 130 -189.5 Q105 -167 101 -129 L157 -129 Q162 -161 195 -161 Q210 -161 220.5 -151.5 Q231 -142 231 -127 Q231 -113 220.5 -103 Q210 -93 194 -93 L121 -93 L172 9 L224 9 L195 -46 Z " />
<glyph glyph-name="circumflex" unicode="&#x2c6;" horiz-adv-x="400" d="M335 557 L200 617 L65 557 L65 632 L200 701 L335 632 L335 557 Z " />
<glyph glyph-name="dieresis" unicode="&#xa8;" horiz-adv-x="400" d="M80 596 L80 685 L167 685 L167 596 L80 596 Z M234 596 L234 685 L321 685 L321 596 L234 596 Z " />
<glyph glyph-name="dotaccent" unicode="&#x2d9;" horiz-adv-x="400" d="M157 596 L157 685 L244 685 L244 596 L157 596 Z " />
<glyph glyph-name="grave" unicode="&#x60;" horiz-adv-x="400" d="M300 569 L90 626 L90 708 L300 647 L300 569 Z " />
<glyph glyph-name="hungarumlaut" unicode="&#x2dd;" horiz-adv-x="400" d="M100 558 L148 705 L234 705 L182 558 L100 558 Z M231 558 L284 705 L369 705 L312 558 L231 558 Z " />
<glyph glyph-name="overscore" unicode="&#xaf;" horiz-adv-x="400" d="M69 595 L69 673 L331 673 L331 595 L69 595 Z " />
<glyph glyph-name="ogonek" unicode="&#x2db;" horiz-adv-x="400" d="M254 0 Q221 -14 203.5 -36 Q186 -58 186 -84 Q186 -124 234 -124 Q249 -124 261 -121 Q273 -118 280 -115 Q287 -112 289 -111 L289 -161 Q287 -162 279 -166.5 Q271 -171 256 -175 Q241 -179 221 -179 Q176 -179 148 -156.5 Q120 -134 120 -97 Q120 -62 143 -34.5 Q166 -7 200 3 L245 16 L254 0 Z " />
<glyph glyph-name="ring" unicode="&#x2da;" horiz-adv-x="400" d="M200 741 Q241 741 269 714 Q297 687 297 647 Q297 607 269 579.5 Q241 552 200 552 Q159 552 131 579.5 Q103 607 103 647 Q103 687 131 714 Q159 741 200 741 Z M200 691 Q181 691 168.5 678.5 Q156 666 156 647 Q156 628 168.5 615 Q181 602 200 602 Q219 602 231.5 615 Q244 628 244 647 Q244 666 231.5 678.5 Q219 691 200 691 Z " />
<glyph glyph-name="tilde" unicode="&#x2dc;" horiz-adv-x="400" d="M56 629 Q56 630 67.5 641.5 Q79 653 97.5 662.5 Q116 672 139 672 Q168 672 212 653 Q252 637 273 637 Q291 637 307 644.5 Q323 652 333 659.5 Q343 667 345 670 L345 607 Q345 606 333.5 594.5 Q322 583 303.5 573 Q285 563 262 563 Q234 563 188 582 Q146 599 128 599 Q110 599 94 591.5 Q78 584 68 576.5 Q58 569 56 566 L56 629 Z " />
<glyph glyph-name="commaaccentcomb" unicode="&#x326;" d="M214 -202 L160 -202 L183 -131 L157 -131 L157 -52 L241 -52 L241 -118 L214 -202 Z " />
</font>
</svg>
