<svg xmlns="http://www.w3.org/2000/svg" xmlns:xlink="http://www.w3.org/1999/xlink" width="94" height="92" viewBox="0 0 94 92">
    <defs>
        <path id="bpbpoz9pea" d="M0.024 0.04L32.531 0.04 32.531 59.312 0.024 59.312z"/>
    </defs>
    <g fill="none" fill-rule="evenodd">
        <g>
            <g>
                <path fill="#1D1D1B" d="M62.024 8.281c-1.674 0-2.67-.86-2.731-2.083h1.576c0 .38.238.94 1.254.961.68 0 .997-.4.997-.701-.038-.483-.64-.524-1.278-.625-.637-.1-1.174-.22-1.573-.421-.497-.26-.835-.818-.835-1.463 0-1.082.934-1.944 2.49-1.944 1.514 0 2.473.803 2.57 1.984h-1.513c-.02-.321-.08-.821-.978-.821-.598 0-.994.12-1.036.539 0 .625 1.256.585 2.233.843.937.242 1.532.822 1.532 1.648 0 1.502-1.214 2.083-2.708 2.083zm-8.252-3.147c0 .941.797 1.723 1.734 1.723.939 0 1.714-.782 1.714-1.723 0-.942-.775-1.747-1.714-1.747-.937 0-1.734.805-1.734 1.747zm1.672 3.147c-1.71 0-3.128-1.424-3.128-3.147 0-1.747 1.419-3.13 3.128-3.13.659 0 1.277.182 1.776.542v-.484h1.494V8.14H57.22v-.403c-.5.343-1.092.544-1.776.544zm-8.567-3.147c0 .941.796 1.723 1.712 1.723.956 0 1.751-.782 1.751-1.723 0-.942-.795-1.747-1.751-1.747-.916 0-1.712.805-1.712 1.747zM50.34 0h1.479v8.14H50.34v-.403c-.494.343-1.115.544-1.792.544-1.713 0-3.127-1.424-3.127-3.147 0-1.747 1.414-3.13 3.127-3.13.677 0 1.279.182 1.792.542V0zm-7.012 8.14h1.496V2.062h-1.496V8.14zm-5.723-3.006c0 .941.797 1.723 1.756 1.723.94 0 1.737-.782 1.737-1.723 0-.942-.798-1.747-1.737-1.747-.959 0-1.756.805-1.756 1.747zm1.717 3.147c-1.733 0-3.153-1.424-3.153-3.147 0-1.747 1.42-3.13 3.153-3.13.66 0 1.255.182 1.776.542V0h1.493v8.14h-1.493v-.403c-.521.343-1.116.544-1.776.544zm-8.634-3.147c0 .941.8 1.723 1.737 1.723.955 0 1.755-.782 1.755-1.723 0-.942-.8-1.747-1.755-1.747-.937 0-1.737.805-1.737 1.747zm1.696 3.147c-1.714 0-3.128-1.424-3.128-3.147 0-1.747 1.414-3.13 3.128-3.13.659 0 1.276.182 1.796.542v-.484h1.473V8.14H34.18v-.403c-.502.343-1.117.544-1.796.544zm10.944-6.777h1.497V0h-1.497v1.504z" transform="translate(-141 -60) translate(141 60)"/>
                <path fill="#000" d="M0 91.978L93.988 91.978 93.988 78.912 0 78.912z" transform="translate(-141 -60) translate(141 60)"/>
                <path fill="#FFF" d="M28.049 89.377L28.049 81.682 30.684 81.682 30.684 82.963 29.5 82.963 29.5 85.052 30.561 85.052 30.561 86.288 29.5 86.288 29.5 89.377zM33.776 84.603L33.765 84.603 33.508 89.377 31.8 89.377 31.298 81.682 32.693 81.682 32.794 87.209 32.805 87.209 33.195 81.682 34.379 81.682 34.769 87.209 34.781 87.209 34.892 81.682 36.232 81.682 35.73 89.377 34.01 89.377z" transform="translate(-141 -60) translate(141 60)"/>
                <g>
                    <path fill="#FFF" d="M36.946 73.245L38.196 70c.202-.427.258-.685.258-1v-.764c0-.134-.079-.235-.19-.235-.112 0-.179.09-.179.224v1h-1.273v-.989c0-.943.548-1.516 1.452-1.516.949 0 1.518.562 1.518 1.528v.83c0 .551-.112 1-.469 1.663l-.938 2.494h1.318v1.28h-2.747v-1.269zM40.787 74.515L40.787 68.123 40.318 68.123 40.318 66.82 42.182 66.82 42.182 74.515zM44.326 66.82L46.96 66.82 46.96 68.067 45.766 68.067 45.766 70.089 46.815 70.089 46.815 71.235 45.766 71.235 45.766 73.302 46.949 73.302 46.949 74.515 44.326 74.515zM49.16 74.616c-.994 0-1.586-.573-1.586-1.54V66.82h1.451v6.28c0 .1.056.168.146.168.089 0 .145-.056.145-.169V66.82h1.44v6.257c0 .955-.603 1.539-1.597 1.539M52.832 70.64h.145c.1 0 .168-.068.168-.18v-2.202c0-.112-.067-.191-.168-.191h-.145v2.572zm0 1.415v2.46h-1.44V66.82h1.675c.926 0 1.484.528 1.484 1.427v2.044c0 .494-.178.876-.48 1.123l.77 3.1h-1.54l-.469-2.46zM56.896 73.234c.1 0 .19-.09.19-.202v-4.684c0-.135-.09-.214-.19-.214h-.011c-.09 0-.179.079-.179.214v4.684c0 .112.09.202.19.202m0 1.37c-.983 0-1.63-.628-1.63-1.606v-4.65c0-.977.647-1.607 1.63-1.607.971 0 1.63.63 1.63 1.607v4.64c0 .988-.67 1.617-1.63 1.617M60.602 70.976h.156c.101 0 .179-.067.179-.19v-2.483c0-.135-.078-.202-.179-.202h-.156v2.875zm-1.44-4.156h1.675c.937 0 1.496.55 1.496 1.483v2.381c0 .933-.57 1.494-1.496 1.494h-.235v2.337h-1.44V66.82zM62.958 66.82L65.592 66.82 65.592 68.067 64.398 68.067 64.398 70.089 65.447 70.089 65.447 71.235 64.398 71.235 64.398 73.302 65.581 73.302 65.581 74.515 62.958 74.515z" transform="translate(-141 -60) translate(141 60) translate(0 14.862)"/>
                    <path fill="#000" d="M17.113 26.01c5.16 2.856 7.137 6.144 7.137 11.941v11.162c0 7.01-4.901 11.422-12.383 11.422C4.472 60.535.172 56.468.172 49.46v-8.74h10.406v8.826c0 1.125.515 1.644 1.375 1.644.774 0 1.29-.605 1.29-1.644v-10.73c0-1.47-.688-2.51-1.978-3.287l-4.127-2.683C1.978 29.991 0 26.876 0 20.992v-9.518C0 4.292 4.644.052 12.211.052c7.31 0 11.695 4.154 11.695 11.162v8.22H13.587v-8.306c0-1.125-.43-1.731-1.29-1.731-.86 0-1.376.606-1.376 1.73V20.3c0 1.384.516 2.25 1.892 3.028l4.3 2.682zM26.484.658L40.673.658 42.737 35.529 42.823 35.529 44.801.658 58.99.658 58.99 59.929 49.272 59.929 49.444 19.175 49.358 19.175 45.919 59.929 39.297 59.929 35.944 19.002 35.858 19.002 36.03 59.929 26.484 59.929z" transform="translate(-141 -60) translate(141 60) translate(0 14.862)"/>
                    <g transform="translate(-141 -60) translate(141 60) translate(0 14.862) translate(61.457 .618)">
                        <mask id="rhe3a8euvb" fill="#fff">
                            <use xlink:href="#bpbpoz9pea"/>
                        </mask>
                        <path fill="#000" d="M0.024 0.04L14.214 0.04 16.277 34.911 16.363 34.911 18.341 0.04 32.531 0.04 32.531 59.312 22.813 59.312 22.985 18.557 22.899 18.557 19.46 59.312 12.838 59.312 9.484 18.384 9.398 18.384 9.57 59.312 0.024 59.312z" mask="url(#rhe3a8euvb)"/>
                    </g>
                </g>
            </g>
        </g>
    </g>
</svg>
