<?xml version="1.0" encoding="UTF-8"?>
<svg width="95px" height="92px" viewBox="0 0 95 92" version="1.1" xmlns="http://www.w3.org/2000/svg" xmlns:xlink="http://www.w3.org/1999/xlink">
    <title>logo-adidas-smm copy</title>
    <defs>
        <polygon id="path-1" points="0.0246808195 0.0403440781 32.8766004 0.0403440781 32.8766004 59.3115407 0.0246808195 59.3115407"></polygon>
    </defs>
    <g id="Page-1" stroke="none" stroke-width="1" fill="none" fill-rule="evenodd">
        <g id="adidas-event-7a" transform="translate(-140.000000, -60.000000)">
            <g id="Group-38" transform="translate(140.000000, 60.000000)">
                <path d="M62.6834427,8.28110085 C60.9922283,8.28110085 59.9850817,7.42058071 59.9235912,6.1977895 L61.5167028,6.1977895 C61.5167028,6.57713504 61.7566286,7.13722295 62.7843661,7.15912772 C63.4701826,7.15912772 63.7911179,6.75894457 63.7911179,6.45750134 C63.7530953,5.97464176 63.1447343,5.93392137 62.5000995,5.83344029 C61.8561416,5.73368938 61.313897,5.61298852 60.910147,5.41202637 C60.4082942,5.15197753 60.0664296,4.59396777 60.0664296,3.94861978 C60.0664296,2.86697387 61.0103934,2.00476874 62.5824629,2.00476874 C64.1130686,2.00476874 65.0821927,2.80755018 65.1806903,3.98894701 L63.6510436,3.98894701 C63.6301143,3.66767717 63.5696957,3.1677431 62.6624569,3.1677431 C62.0586654,3.1677431 61.6581309,3.2877138 61.6152004,3.70665641 C61.6152004,4.33245861 62.8846125,4.29213138 63.8724659,4.55049524 C64.8191939,4.79245861 65.4206161,5.37169915 65.4206161,6.1977895 C65.4206161,7.69950134 64.193796,8.28110085 62.6834427,8.28110085 L62.6834427,8.28110085 Z M54.3442028,5.13422906 C54.3442028,6.07540366 55.1495591,6.8573475 56.0966256,6.8573475 C57.0453845,6.8573475 57.8290217,6.07540366 57.8290217,5.13422906 C57.8290217,4.19165031 57.0453845,3.38712772 56.0966256,3.38712772 C55.1495591,3.38712772 54.3442028,4.19165031 54.3442028,5.13422906 L54.3442028,5.13422906 Z M56.0337248,8.28110085 C54.3061802,8.28110085 52.8726618,6.8573475 52.8726618,5.13422906 C52.8726618,3.38712772 54.3061802,2.00476874 56.0337248,2.00476874 C56.6996838,2.00476874 57.3240662,2.18556728 57.8290217,2.5457602 L57.8290217,2.06245128 L59.3383031,2.06245128 L59.3383031,8.13961856 L57.8290217,8.13961856 L57.8290217,7.7373011 C57.3240662,8.07980171 56.7255211,8.28110085 56.0337248,8.28110085 L56.0337248,8.28110085 Z M47.3761446,5.13422906 C47.3761446,6.07540366 48.1799777,6.8573475 49.10572,6.8573475 C50.0720235,6.8573475 50.8758566,6.07540366 50.8758566,5.13422906 C50.8758566,4.19165031 50.0720235,3.38712772 49.10572,3.38712772 C48.1799777,3.38712772 47.3761446,4.19165031 47.3761446,5.13422906 L47.3761446,5.13422906 Z M50.8758566,8.98656899e-05 L52.3697936,8.98656899e-05 L52.3697936,8.13961856 L50.8758566,8.13961856 L50.8758566,7.7373011 C50.3758091,8.07980171 49.7490009,8.28110085 49.0641998,8.28110085 C47.3331577,8.28110085 45.9041523,6.8573475 45.9041523,5.13422906 C45.9041523,3.38712772 47.3331577,2.00476874 49.0641998,2.00476874 C49.7490009,2.00476874 50.3566286,2.18556728 50.8758566,2.5457602 L50.8758566,8.98656899e-05 Z M43.788992,8.13961856 L45.3010941,8.13961856 L45.3010941,2.06211429 L43.788992,2.06211429 L43.788992,8.13961856 Z M38.0053311,5.13422906 C38.0053311,6.07540366 38.8109694,6.8573475 39.7793602,6.8573475 C40.7291909,6.8573475 41.5355062,6.07540366 41.5355062,5.13422906 C41.5355062,4.19165031 40.7291909,3.38712772 39.7793602,3.38712772 C38.8109694,3.38712772 38.0053311,4.19165031 38.0053311,5.13422906 L38.0053311,5.13422906 Z M39.7402093,8.28110085 C37.9885763,8.28110085 36.553704,6.8573475 36.553704,5.13422906 C36.553704,3.38712772 37.9885763,2.00476874 39.7402093,2.00476874 C40.4069017,2.00476874 41.008606,2.18556728 41.5355062,2.5457602 L41.5355062,8.98656899e-05 L43.0437723,8.98656899e-05 L43.0437723,8.13961856 L41.5355062,8.13961856 L41.5355062,7.7373011 C41.008606,8.07980171 40.4069017,8.28110085 39.7402093,8.28110085 L39.7402093,8.28110085 Z M31.0144819,5.13422906 C31.0144819,6.07540366 31.822546,6.8573475 32.769951,6.8573475 C33.7351826,6.8573475 34.5432467,6.07540366 34.5432467,5.13422906 C34.5432467,4.19165031 33.7351826,3.38712772 32.769951,3.38712772 C31.822546,3.38712772 31.0144819,4.19165031 31.0144819,5.13422906 L31.0144819,5.13422906 Z M32.7280359,8.28110085 C30.9959783,8.28110085 29.566973,6.8573475 29.566973,5.13422906 C29.566973,3.38712772 30.9959783,2.00476874 32.7280359,2.00476874 C33.3943898,2.00476874 34.0184338,2.18556728 34.5432467,2.5457602 L34.5432467,2.06245128 L36.0326143,2.06245128 L36.0326143,8.13961856 L34.5432467,8.13961856 L34.5432467,7.7373011 C34.036204,8.07980171 33.4146422,8.28110085 32.7280359,8.28110085 L32.7280359,8.28110085 Z M43.7893305,1.50416068 L45.3014326,1.50416068 L45.3014326,8.98656899e-05 L43.7893305,8.98656899e-05 L43.7893305,1.50416068 Z" id="Fill-1" fill="#000000"></path>
                <polygon id="Fill-3" fill="#000000" points="0 91.9780952 94.9875327 91.9780952 94.9875327 78.9122979 0 78.9122979"></polygon>
                <polygon id="Fill-4" fill="#FFFFFF" points="20.391152 89.3206545 20.391152 81.6260171 23.0538034 81.6260171 23.0538034 82.9066032 21.8578979 82.9066032 21.8578979 84.9959243 22.9297506 84.9959243 22.9297506 86.2315775 21.8578979 86.2315775 21.8578979 89.3206545"></polygon>
                <polygon id="Fill-5" fill="#FFFFFF" points="26.1791342 84.5465958 26.1678515 84.5465958 25.9083504 89.3206545 24.1821033 89.3206545 23.67444 81.6260171 25.0847162 81.6260171 25.1862601 87.1526447 25.1975428 87.1526447 25.5924359 81.6260171 26.7883979 81.6260171 27.1832346 87.1526447 27.1945736 87.1526447 27.3074002 81.6260171 28.6612631 81.6260171 28.1535433 89.3206545 26.4160701 89.3206545"></polygon>
                <g id="Group-37" transform="translate(0.000000, 14.862100)">
                    <path d="M29.3833138,73.1892239 L30.6469718,69.9428821 C30.8500597,69.51602 30.906473,69.2576562 30.906473,68.9431263 L30.906473,68.1793241 C30.906473,68.0444694 30.8274944,67.9434266 30.7146678,67.9434266 C30.6018412,67.9434266 30.5341452,68.0332361 30.5341452,68.1680908 L30.5341452,69.1677905 L29.2479219,69.1677905 L29.2479219,68.1793241 C29.2479219,67.2357343 29.8007723,66.6628405 30.7146678,66.6628405 C31.6736939,66.6628405 32.2490531,67.2245011 32.2490531,68.1905011 L32.2490531,69.0217587 C32.2490531,69.5721861 32.1362265,70.0215145 31.7751814,70.6842178 L30.8274944,73.1779907 L32.1587919,73.1779907 L32.1587919,74.4585768 L29.3833138,74.4585768 L29.3833138,73.1892239 Z" id="Fill-6" fill="#FFFFFF"></path>
                    <polygon id="Fill-8" fill="#FFFFFF" points="33.2644813 74.4585543 33.2644813 68.0669695 32.7906096 68.0669695 32.7906096 66.763917 34.6748138 66.763917 34.6748138 74.4585543"></polygon>
                    <polygon id="Fill-10" fill="#FFFFFF" points="36.8409154 66.763917 39.5035668 66.763917 39.5035668 68.0108034 38.2963786 68.0108034 38.2963786 70.0327253 39.3569486 70.0327253 39.3569486 71.1785128 38.2963786 71.1785128 38.2963786 73.2453675 39.4923406 73.2453675 39.4923406 74.4585543 36.8409154 74.4585543"></polygon>
                    <path d="M41.5908195,71.796317 L41.9969952,71.796317 L41.7826247,68.8757382 L41.5908195,71.796317 Z M41.3877316,74.4585319 L40.011247,74.4585319 L40.8235986,66.7638945 L42.8093468,66.7638945 L43.599133,74.4585319 L42.2000831,74.4585319 L42.0985392,73.0319702 L41.4892755,73.0319702 L41.3877316,74.4585319 Z" id="Fill-12" fill="#FFFFFF"></path>
                    <path d="M46.3407179,70.0552254 C47.0176776,70.4259214 47.2771787,70.8527272 47.2771787,71.6054085 L47.2771787,73.0543805 C47.2771787,73.9643267 46.6340671,74.5372205 45.6524757,74.5372205 C44.6821669,74.5372205 44.1180903,74.0092034 44.1180903,73.0993695 L44.1180903,71.9648151 L45.4832357,71.9648151 L45.4832357,73.1105465 C45.4832357,73.2566344 45.5509317,73.3240337 45.6637583,73.3240337 C45.7653023,73.3240337 45.8329982,73.2454012 45.8329982,73.1105465 L45.8329982,71.7177407 C45.8329982,71.5267199 45.7427369,71.3919214 45.573497,71.2908225 L45.0319293,70.9426491 C44.3549697,70.5718969 44.0955249,70.1675575 44.0955249,69.403643 L44.0955249,68.1680459 C44.0955249,67.2357455 44.7047322,66.6853182 45.6976063,66.6853182 C46.6566324,66.6853182 47.2320481,67.2245123 47.2320481,68.1343463 L47.2320481,69.2015013 L45.8781289,69.2015013 L45.8781289,68.1231692 C45.8781289,67.9770813 45.8217156,67.898505 45.708889,67.898505 C45.5960624,67.898505 45.5283664,67.9770813 45.5283664,68.1231692 L45.5283664,69.3138335 C45.5283664,69.4935648 45.5960624,69.6058969 45.7765849,69.7069958 L46.3407179,70.0552254 Z" id="Fill-14" fill="#FFFFFF"></path>
                    <polygon id="Fill-16" fill="#FFFFFF" points="48.6760594 74.4585543 48.6760594 68.0669695 47.8411425 68.0669695 47.8411425 66.763917 50.9777221 66.763917 50.9777221 68.0669695 50.1315226 68.0669695 50.1315226 74.4585543"></polygon>
                    <polygon id="Fill-18" fill="#FFFFFF" points="53.0649466 66.763917 55.727598 66.763917 55.727598 68.0108034 54.5204097 68.0108034 54.5204097 70.0327253 55.5809798 70.0327253 55.5809798 71.1785128 54.5204097 71.1785128 54.5204097 73.2453675 55.7163153 73.2453675 55.7163153 74.4585543 53.0649466 74.4585543"></polygon>
                    <path d="M57.9503441,74.559642 C56.9461874,74.559642 56.3481499,73.9868044 56.3481499,73.0207482 L56.3481499,66.7639057 L57.8149522,66.7639057 L57.8149522,73.0432147 C57.8149522,73.1443136 57.8713655,73.2117128 57.9615704,73.2117128 C58.0518881,73.2117128 58.1083014,73.1555468 58.1083014,73.0432147 L58.1083014,66.7639057 L59.5637081,66.7639057 L59.5637081,73.0207482 C59.5637081,73.9755712 58.9544445,74.559642 57.9503441,74.559642" id="Fill-20" fill="#FFFFFF"></path>
                    <path d="M61.6621645,70.5831526 L61.8088391,70.5831526 C61.9103266,70.5831526 61.978079,70.5157534 61.978079,70.4034212 L61.978079,68.201768 C61.978079,68.0894359 61.9103266,68.0108034 61.8088391,68.0108034 L61.6621645,68.0108034 L61.6621645,70.5831526 Z M61.6621645,71.9984811 L61.6621645,74.4585543 L60.2067013,74.4585543 L60.2067013,66.763917 L61.8991004,66.763917 C62.8355612,66.763917 63.3996942,67.2918779 63.3996942,68.1904786 L63.3996942,70.2349231 C63.3996942,70.7291844 63.2191716,71.1111136 62.9144834,71.3582442 L63.6929869,74.4585543 L62.1359798,74.4585543 L61.6621645,71.9984811 Z" id="Fill-22" fill="#FFFFFF"></path>
                    <path d="M65.7689852,73.1779795 C65.8705291,73.1779795 65.960734,73.0881138 65.960734,72.9757817 L65.960734,68.2916449 C65.960734,68.1568464 65.8705291,68.0781578 65.7689852,68.0781578 L65.7577025,68.0781578 C65.6674412,68.0781578 65.5771799,68.1568464 65.5771799,68.2916449 L65.5771799,72.9757817 C65.5771799,73.0881138 65.6674412,73.1779795 65.7689852,73.1779795 M65.7689852,74.5483751 C64.776111,74.5483751 64.1217167,73.9193714 64.1217167,72.9420821 L64.1217167,68.2916449 C64.1217167,67.3143556 64.776111,66.6852957 65.7689852,66.6852957 C66.7505202,66.6852957 67.4161971,67.3143556 67.4161971,68.2916449 L67.4161971,72.930905 C67.4161971,73.9193714 66.7392375,74.5483751 65.7689852,74.5483751" id="Fill-24" fill="#FFFFFF"></path>
                    <path d="M69.5147381,70.920149 L69.6726954,70.920149 C69.7742393,70.920149 69.8532179,70.8527497 69.8532179,70.7291844 L69.8532179,68.2466447 C69.8532179,68.1119023 69.7742393,68.0445031 69.6726954,68.0445031 L69.5147381,68.0445031 L69.5147381,70.920149 Z M68.0592749,66.763917 L69.751674,66.763917 C70.6994175,66.763917 71.2634941,67.3143443 71.2634941,68.2466447 L71.2634941,70.6280855 C71.2634941,71.5603858 70.6881348,72.1220464 69.751674,72.1220464 L69.5147381,72.1220464 L69.5147381,74.4585543 L68.0592749,74.4585543 L68.0592749,66.763917 Z" id="Fill-26" fill="#FFFFFF"></path>
                    <polygon id="Fill-28" fill="#FFFFFF" points="71.8953907 66.763917 74.5580422 66.763917 74.5580422 68.0108034 73.3508539 68.0108034 73.3508539 70.0327253 74.411424 70.0327253 74.411424 71.1785128 73.3508539 71.1785128 73.3508539 73.2453675 74.5467595 73.2453675 74.5467595 74.4585543 71.8953907 74.4585543"></polygon>
                    <path d="M17.2950828,26.0103433 C22.5091387,28.865601 24.5078055,32.1541797 24.5078055,37.9511346 L24.5078055,49.1132396 C24.5078055,56.1221455 19.554492,60.5353372 11.99353,60.5353372 C4.51944448,60.5353372 0.173645784,56.4681284 0.173645784,49.4596718 L0.173645784,40.7201211 L10.6901007,40.7201211 L10.6901007,49.5461114 C10.6901007,50.670949 11.2112467,51.190485 12.0803501,51.190485 C12.8626897,51.190485 13.3836102,50.5845094 13.3836102,49.5461114 L13.3836102,38.8164288 C13.3836102,37.3460015 12.6890496,36.3069294 11.3848869,35.5289734 L7.21363094,32.8463702 C1.99889816,29.9911126 5.64133016e-06,26.8756376 5.64133016e-06,20.9920186 L5.64133016e-06,11.4742872 C5.64133016e-06,4.29227741 4.69308462,0.0521894994 12.3408667,0.0521894994 C19.7281321,0.0521894994 24.1605252,4.20583785 24.1605252,11.214126 L24.1605252,19.4343092 L13.7317931,19.4343092 L13.7317931,11.1276303 C13.7317931,10.0030173 13.2967901,9.39704176 12.4276868,9.39704176 C11.558527,9.39704176 11.0373809,10.0030173 11.0373809,11.1276303 L11.0373809,20.2996034 C11.0373809,21.6844337 11.558527,22.5497841 12.9495098,23.3279648 L17.2950828,26.0103433 Z" id="Fill-30" fill="#000000"></path>
                    <polygon id="Fill-32" fill="#000000" points="26.7656859 0.658170696 41.1058907 0.658170696 43.1916597 35.528979 43.2784798 35.528979 45.2772031 0.658170696 59.617408 0.658170696 59.617408 59.9293673 49.7966419 59.9293673 49.9702821 19.1749961 49.883462 19.1749961 46.4076692 59.9293673 39.7149644 59.9293673 36.3262173 19.002117 36.2393973 19.002117 36.4130374 59.9293673 26.7656859 59.9293673"></polygon>
                    <g id="Group-36" transform="translate(62.111045, 0.617827)">
                        <mask id="mask-2" fill="white">
                            <use xlink:href="#path-1"></use>
                        </mask>
                        <g id="Clip-35"></g>
                        <polygon id="Fill-34" fill="#000000" mask="url(#mask-2)" points="0.0246808195 0.0403440781 14.3651113 0.0403440781 16.4506547 34.9111524 16.5374748 34.9111524 18.536198 0.0403440781 32.8766286 0.0403440781 32.8766286 59.3115407 23.0556369 59.3115407 23.229277 18.5571695 23.1424569 18.5571695 19.6666642 59.3115407 12.974185 59.3115407 9.58521229 18.3842904 9.49839222 18.3842904 9.67203236 59.3115407 0.0246808195 59.3115407"></polygon>
                    </g>
                </g>
            </g>
        </g>
    </g>
</svg>